<svg width="512" height="512" viewBox="0 0 512 512" fill="none" xmlns="http://www.w3.org/2000/svg">
<rect width="512" height="512" fill="url(#paint0_linear_529_148)"/>
<g filter="url(#filter0_ii_529_148)">
<mask id="path-1-inside-1_529_148" fill="white">
<path fill-rule="evenodd" clip-rule="evenodd" d="M141.245 129.246C139 133.652 139 139.419 139 150.955V359.239C139 370.774 139 376.542 141.245 380.947C143.22 384.823 146.37 387.974 150.246 389.948C154.652 392.193 160.419 392.193 171.955 392.193H248.42C291.677 392.193 313.306 392.193 329.828 383.775C344.361 376.37 356.177 364.554 363.582 350.021C372 333.499 372 311.87 372 268.613V249.819C372 203.678 372 180.607 363.02 162.984C355.122 147.482 342.518 134.878 327.016 126.98C309.393 118 286.322 118 240.181 118H171.955C160.419 118 154.652 118 150.246 120.245C146.37 122.22 143.22 125.37 141.245 129.246ZM275.808 175.731L188.22 338.648C188.089 338.89 188.264 339.184 188.539 339.184C209.876 339.184 229.492 327.444 239.615 308.616L312.717 172.644C312.917 172.273 312.649 171.822 312.227 171.822H282.341C279.612 171.822 277.103 173.323 275.808 175.731ZM311.497 339.414H245.845C245.845 339.414 270.304 336.84 289.613 314.956C308.923 293.072 311.497 262.177 311.497 262.177V339.414ZM167.32 170.793H167.944C170.556 170.992 181.278 173.708 198.236 202.813C217.875 236.521 224.887 258.315 224.887 258.315C224.887 258.315 214.226 224.16 214.226 197.476C214.226 170.793 235.547 170.793 235.547 170.793H167.944C167.531 170.762 167.32 170.793 167.32 170.793Z"/>
</mask>
<path fill-rule="evenodd" clip-rule="evenodd" d="M141.245 129.246C139 133.652 139 139.419 139 150.955V359.239C139 370.774 139 376.542 141.245 380.947C143.22 384.823 146.37 387.974 150.246 389.948C154.652 392.193 160.419 392.193 171.955 392.193H248.42C291.677 392.193 313.306 392.193 329.828 383.775C344.361 376.37 356.177 364.554 363.582 350.021C372 333.499 372 311.87 372 268.613V249.819C372 203.678 372 180.607 363.02 162.984C355.122 147.482 342.518 134.878 327.016 126.98C309.393 118 286.322 118 240.181 118H171.955C160.419 118 154.652 118 150.246 120.245C146.37 122.22 143.22 125.37 141.245 129.246ZM275.808 175.731L188.22 338.648C188.089 338.89 188.264 339.184 188.539 339.184C209.876 339.184 229.492 327.444 239.615 308.616L312.717 172.644C312.917 172.273 312.649 171.822 312.227 171.822H282.341C279.612 171.822 277.103 173.323 275.808 175.731ZM311.497 339.414H245.845C245.845 339.414 270.304 336.84 289.613 314.956C308.923 293.072 311.497 262.177 311.497 262.177V339.414ZM167.32 170.793H167.944C170.556 170.992 181.278 173.708 198.236 202.813C217.875 236.521 224.887 258.315 224.887 258.315C224.887 258.315 214.226 224.16 214.226 197.476C214.226 170.793 235.547 170.793 235.547 170.793H167.944C167.531 170.762 167.32 170.793 167.32 170.793Z" fill="white" fill-opacity="0.85"/>
<path d="M141.245 129.246L140.799 129.019L140.799 129.019L141.245 129.246ZM141.245 380.947L140.799 381.174L140.799 381.174L141.245 380.947ZM150.246 389.948L150.473 389.503L150.473 389.503L150.246 389.948ZM329.828 383.775L329.601 383.329L329.601 383.329L329.828 383.775ZM363.582 350.021L364.027 350.248L364.027 350.248L363.582 350.021ZM363.02 162.984L363.466 162.757L363.466 162.757L363.02 162.984ZM327.016 126.98L326.789 127.425L326.789 127.425L327.016 126.98ZM150.246 120.245L150.473 120.69L150.473 120.69L150.246 120.245ZM188.22 338.648L188.66 338.885L188.66 338.885L188.22 338.648ZM275.808 175.731L275.368 175.495L275.368 175.495L275.808 175.731ZM239.615 308.616L240.055 308.853L240.055 308.853L239.615 308.616ZM312.717 172.644L312.277 172.407L312.277 172.407L312.717 172.644ZM245.845 339.414L245.793 338.917C245.528 338.945 245.332 339.175 245.346 339.441C245.36 339.706 245.579 339.914 245.845 339.914V339.414ZM311.497 339.414V339.914C311.773 339.914 311.997 339.69 311.997 339.414H311.497ZM289.613 314.956L289.988 315.287L289.988 315.287L289.613 314.956ZM311.497 262.177H311.997C311.997 261.909 311.786 261.688 311.518 261.677C311.25 261.666 311.021 261.868 310.999 262.135L311.497 262.177ZM167.32 170.793L167.246 170.298C166.988 170.337 166.802 170.569 166.822 170.83C166.841 171.091 167.059 171.293 167.32 171.293V170.793ZM198.236 202.813L198.668 202.561L198.668 202.561L198.236 202.813ZM224.887 258.315L224.411 258.468C224.495 258.73 224.775 258.875 225.038 258.792C225.3 258.708 225.446 258.429 225.364 258.166L224.887 258.315ZM235.547 171.293C235.823 171.293 236.047 171.069 236.047 170.793C236.047 170.517 235.823 170.293 235.547 170.293L235.547 171.293ZM139.5 150.955C139.5 145.179 139.5 140.877 139.779 137.468C140.057 134.064 140.61 131.594 141.69 129.473L140.799 129.019C139.635 131.304 139.065 133.921 138.782 137.386C138.5 140.846 138.5 145.195 138.5 150.955H139.5ZM139.5 359.239V150.955H138.5V359.239H139.5ZM141.69 380.72C140.61 378.6 140.057 376.129 139.779 372.726C139.5 369.316 139.5 365.015 139.5 359.239H138.5C138.5 364.998 138.5 369.348 138.782 372.807C139.065 376.273 139.635 378.889 140.799 381.174L141.69 380.72ZM150.473 389.503C146.692 387.576 143.617 384.502 141.69 380.72L140.799 381.174C142.822 385.144 146.049 388.371 150.019 390.394L150.473 389.503ZM171.955 391.693C166.179 391.693 161.877 391.693 158.468 391.414C155.064 391.136 152.594 390.584 150.473 389.503L150.019 390.394C152.304 391.558 154.921 392.128 158.386 392.411C161.846 392.694 166.195 392.693 171.955 392.693V391.693ZM248.42 391.693H171.955V392.693H248.42V391.693ZM329.601 383.329C321.422 387.497 311.957 389.593 299.109 390.643C286.254 391.693 270.057 391.693 248.42 391.693V392.693C270.04 392.693 286.285 392.694 299.19 391.639C312.101 390.585 321.711 388.472 330.055 384.22L329.601 383.329ZM363.136 349.794C355.779 364.233 344.04 375.972 329.601 383.329L330.055 384.22C344.682 376.768 356.574 364.875 364.027 350.248L363.136 349.794ZM371.5 268.613C371.5 290.25 371.5 306.448 370.449 319.302C369.4 332.151 367.303 341.615 363.136 349.794L364.027 350.248C368.278 341.905 370.391 332.294 371.446 319.383C372.5 306.479 372.5 290.234 372.5 268.613H371.5ZM371.5 249.819V268.613H372.5V249.819H371.5ZM362.575 163.211C367.023 171.94 369.259 182.041 370.379 195.748C371.5 209.461 371.5 226.74 371.5 249.819H372.5C372.5 226.757 372.5 209.43 371.376 195.667C370.251 181.898 367.998 171.651 363.466 162.757L362.575 163.211ZM326.789 127.425C342.197 135.276 354.724 147.803 362.575 163.211L363.466 162.757C355.519 147.161 342.839 134.481 327.243 126.534L326.789 127.425ZM240.181 118.5C263.26 118.5 280.539 118.5 294.252 119.621C307.959 120.741 318.06 122.977 326.789 127.425L327.243 126.534C318.349 122.002 308.102 119.749 294.333 118.624C280.57 117.5 263.243 117.5 240.181 117.5V118.5ZM171.955 118.5H240.181V117.5H171.955V118.5ZM150.473 120.69C152.594 119.61 155.064 119.057 158.468 118.779C161.877 118.5 166.179 118.5 171.955 118.5V117.5C166.195 117.5 161.846 117.5 158.386 117.782C154.921 118.065 152.304 118.635 150.019 119.799L150.473 120.69ZM141.69 129.473C143.617 125.692 146.692 122.617 150.473 120.69L150.019 119.799C146.049 121.822 142.822 125.049 140.799 129.019L141.69 129.473ZM188.66 338.885L276.249 175.968L275.368 175.495L187.779 338.411L188.66 338.885ZM188.539 338.684C188.644 338.684 188.708 338.795 188.66 338.885L187.779 338.411C187.471 338.984 187.884 339.684 188.539 339.684V338.684ZM239.174 308.38C229.139 327.046 209.692 338.684 188.539 338.684V339.684C210.061 339.684 229.846 327.843 240.055 308.853L239.174 308.38ZM312.277 172.407L239.174 308.38L240.055 308.853L313.158 172.881L312.277 172.407ZM312.227 172.322C312.241 172.322 312.249 172.325 312.255 172.328C312.262 172.332 312.27 172.339 312.276 172.349C312.282 172.36 312.284 172.37 312.285 172.378C312.285 172.385 312.284 172.395 312.277 172.407L313.158 172.881C313.536 172.178 313.029 171.322 312.227 171.322V172.322ZM282.341 172.322H312.227V171.322H282.341V172.322ZM276.249 175.968C277.456 173.722 279.796 172.322 282.341 172.322V171.322C279.427 171.322 276.749 172.925 275.368 175.495L276.249 175.968ZM245.845 339.914H311.497V338.914H245.845V339.914ZM289.238 314.625C279.647 325.495 268.778 331.569 260.304 334.927C256.068 336.605 252.432 337.604 249.859 338.182C248.573 338.471 247.552 338.656 246.855 338.767C246.506 338.823 246.239 338.861 246.059 338.884C245.97 338.896 245.902 338.904 245.857 338.91C245.835 338.912 245.818 338.914 245.808 338.915C245.802 338.916 245.798 338.916 245.796 338.917C245.795 338.917 245.794 338.917 245.793 338.917C245.793 338.917 245.793 338.917 245.793 338.917C245.793 338.917 245.793 338.917 245.845 339.414C245.898 339.912 245.898 339.912 245.898 339.911C245.899 339.911 245.899 339.911 245.9 339.911C245.901 339.911 245.902 339.911 245.904 339.911C245.907 339.911 245.912 339.91 245.919 339.909C245.931 339.908 245.95 339.906 245.975 339.903C246.024 339.897 246.096 339.888 246.19 339.876C246.378 339.851 246.655 339.812 247.013 339.755C247.729 339.64 248.77 339.452 250.078 339.158C252.695 338.57 256.381 337.557 260.672 335.856C269.256 332.455 280.27 326.301 289.988 315.287L289.238 314.625ZM311.497 262.177C310.999 262.135 310.999 262.135 310.999 262.135C310.999 262.135 310.999 262.136 310.999 262.136C310.999 262.137 310.999 262.138 310.999 262.14C310.998 262.143 310.998 262.148 310.997 262.155C310.996 262.17 310.994 262.191 310.991 262.22C310.986 262.278 310.978 262.364 310.966 262.478C310.943 262.707 310.906 263.046 310.853 263.487C310.745 264.367 310.57 265.652 310.3 267.263C309.76 270.486 308.839 275.012 307.316 280.219C304.27 290.64 298.827 303.758 289.238 314.625L289.988 315.287C299.709 304.269 305.208 290.998 308.276 280.5C309.811 275.248 310.741 270.683 311.286 267.429C311.559 265.802 311.736 264.502 311.845 263.607C311.9 263.16 311.937 262.814 311.961 262.58C311.973 262.462 311.982 262.373 311.987 262.312C311.99 262.282 311.992 262.259 311.993 262.243C311.994 262.235 311.995 262.229 311.995 262.225C311.995 262.223 311.995 262.221 311.995 262.22C311.995 262.22 311.995 262.219 311.995 262.219C311.995 262.219 311.996 262.218 311.497 262.177ZM311.997 339.414V262.177H310.997V339.414H311.997ZM167.944 170.293H167.32V171.293H167.944V170.293ZM198.668 202.561C181.689 173.419 170.85 170.513 167.982 170.294L167.906 171.292C170.261 171.471 180.868 173.996 197.804 203.065L198.668 202.561ZM224.887 258.315C225.363 258.162 225.362 258.162 225.362 258.161C225.362 258.161 225.362 258.161 225.362 258.16C225.362 258.16 225.361 258.159 225.361 258.157C225.36 258.154 225.359 258.15 225.357 258.144C225.353 258.133 225.348 258.117 225.341 258.095C225.327 258.052 225.306 257.988 225.277 257.903C225.22 257.734 225.135 257.481 225.019 257.148C224.788 256.483 224.436 255.496 223.952 254.207C222.985 251.63 221.492 247.844 219.384 243.005C215.169 233.327 208.498 219.434 198.668 202.561L197.804 203.065C207.613 219.901 214.267 233.759 218.467 243.404C220.568 248.227 222.055 251.997 223.016 254.559C223.497 255.84 223.846 256.819 224.075 257.477C224.189 257.806 224.273 258.055 224.329 258.221C224.357 258.304 224.377 258.366 224.391 258.407C224.398 258.428 224.403 258.443 224.406 258.453C224.408 258.459 224.409 258.462 224.41 258.465C224.41 258.466 224.41 258.467 224.41 258.467C224.41 258.468 224.411 258.468 224.411 258.468C224.411 258.468 224.411 258.468 224.887 258.315ZM213.726 197.476C213.726 210.874 216.401 226.126 219.068 238.011C220.403 243.958 221.738 249.069 222.739 252.694C223.239 254.507 223.657 255.948 223.949 256.937C224.095 257.431 224.21 257.812 224.288 258.07C224.328 258.199 224.358 258.297 224.378 258.363C224.388 258.396 224.396 258.421 224.401 258.438C224.404 258.447 224.406 258.453 224.407 258.457C224.408 258.459 224.408 258.461 224.409 258.462C224.409 258.463 224.409 258.463 224.409 258.463C224.409 258.464 224.409 258.464 224.887 258.315C225.364 258.166 225.364 258.166 225.364 258.166C225.364 258.165 225.364 258.165 225.363 258.165C225.363 258.164 225.363 258.162 225.362 258.16C225.361 258.156 225.359 258.15 225.356 258.142C225.351 258.126 225.344 258.101 225.334 258.069C225.314 258.004 225.284 257.907 225.245 257.779C225.167 257.524 225.053 257.145 224.908 256.653C224.617 255.67 224.202 254.235 223.703 252.428C222.705 248.815 221.375 243.72 220.044 237.792C217.382 225.93 214.726 210.763 214.726 197.476H213.726ZM235.547 170.793C235.547 170.293 235.547 170.293 235.546 170.293C235.546 170.293 235.545 170.293 235.545 170.293C235.544 170.293 235.542 170.293 235.541 170.293C235.537 170.293 235.532 170.293 235.527 170.293C235.515 170.293 235.498 170.293 235.476 170.294C235.432 170.295 235.368 170.297 235.287 170.3C235.123 170.307 234.886 170.32 234.586 170.347C233.987 170.401 233.134 170.507 232.113 170.72C230.073 171.146 227.349 171.998 224.621 173.705C219.135 177.138 213.726 183.975 213.726 197.476H214.726C214.726 184.294 219.978 177.79 225.152 174.552C227.754 172.924 230.36 172.108 232.318 171.699C233.296 171.495 234.109 171.394 234.675 171.343C234.958 171.318 235.18 171.305 235.328 171.299C235.403 171.296 235.459 171.294 235.496 171.294C235.514 171.293 235.528 171.293 235.536 171.293C235.541 171.293 235.544 171.293 235.546 171.293C235.546 171.293 235.547 171.293 235.547 171.293C235.547 171.293 235.547 171.293 235.547 171.293C235.547 171.293 235.547 171.293 235.547 170.793ZM167.944 171.293H235.547V170.293H167.944V171.293ZM167.32 170.793C167.394 171.287 167.394 171.287 167.394 171.288C167.394 171.288 167.394 171.288 167.394 171.288C167.394 171.288 167.394 171.288 167.394 171.288C167.393 171.288 167.393 171.288 167.393 171.288C167.392 171.288 167.392 171.288 167.392 171.288C167.391 171.288 167.39 171.288 167.39 171.288C167.39 171.288 167.39 171.288 167.391 171.288C167.393 171.288 167.398 171.287 167.407 171.286C167.423 171.285 167.453 171.282 167.496 171.281C167.581 171.278 167.718 171.277 167.906 171.292L167.982 170.294C167.756 170.277 167.581 170.277 167.458 170.282C167.397 170.284 167.348 170.287 167.313 170.291C167.295 170.292 167.281 170.294 167.27 170.295C167.264 170.296 167.26 170.297 167.256 170.297C167.254 170.297 167.252 170.298 167.25 170.298C167.25 170.298 167.249 170.298 167.248 170.298C167.248 170.298 167.248 170.298 167.247 170.298C167.247 170.298 167.247 170.298 167.247 170.298C167.247 170.298 167.247 170.298 167.247 170.298C167.247 170.298 167.246 170.298 167.32 170.793Z" fill="#D998A9" mask="url(#path-1-inside-1_529_148)"/>
</g>
<defs>
<filter id="filter0_ii_529_148" x="137" y="117" width="237" height="276.193" filterUnits="userSpaceOnUse" color-interpolation-filters="sRGB">
<feFlood flood-opacity="0" result="BackgroundImageFix"/>
<feBlend mode="normal" in="SourceGraphic" in2="BackgroundImageFix" result="shape"/>
<feColorMatrix in="SourceAlpha" type="matrix" values="0 0 0 0 0 0 0 0 0 0 0 0 0 0 0 0 0 0 127 0" result="hardAlpha"/>
<feOffset dx="-2" dy="-1"/>
<feGaussianBlur stdDeviation="1"/>
<feComposite in2="hardAlpha" operator="arithmetic" k2="-1" k3="1"/>
<feColorMatrix type="matrix" values="0 0 0 0 0.980556 0 0 0 0 0.922026 0 0 0 0 0.920633 0 0 0 1 0"/>
<feBlend mode="normal" in2="shape" result="effect1_innerShadow_529_148"/>
<feColorMatrix in="SourceAlpha" type="matrix" values="0 0 0 0 0 0 0 0 0 0 0 0 0 0 0 0 0 0 127 0" result="hardAlpha"/>
<feOffset dx="2" dy="1"/>
<feGaussianBlur stdDeviation="1"/>
<feComposite in2="hardAlpha" operator="arithmetic" k2="-1" k3="1"/>
<feColorMatrix type="matrix" values="0 0 0 0 0.918056 0 0 0 0 0.536808 0 0 0 0 0.712303 0 0 0 1 0"/>
<feBlend mode="normal" in2="effect1_innerShadow_529_148" result="effect2_innerShadow_529_148"/>
</filter>
<linearGradient id="paint0_linear_529_148" x1="0" y1="0" x2="516" y2="512" gradientUnits="userSpaceOnUse">
<stop stop-color="#FF6A61"/>
<stop offset="1" stop-color="#FF007A"/>
</linearGradient>
</defs>
</svg>
