<svg width="2048" height="2048" viewBox="0 0 2048 2048" fill="none" xmlns="http://www.w3.org/2000/svg">
<g opacity="0.5" filter="url(#filter0_i_1137_1860)">
<rect x="571" y="91" width="906" height="1829" rx="121" fill="#B5E0FF" fill-opacity="0.4"/>
<rect x="571" y="91" width="906" height="1829" rx="121" fill="url(#paint0_linear_1137_1860)" fill-opacity="0.4"/>
</g>
<rect x="811" y="476" width="508" height="46" rx="23" stroke="white" stroke-width="2"/>
<rect x="811" y="823" width="508" height="46" rx="23" stroke="white" stroke-width="2"/>
<rect x="811" y="1170" width="508" height="47" rx="23.5" stroke="white" stroke-width="2"/>
<rect x="811" y="1517" width="508" height="46" rx="23" stroke="white" stroke-width="2"/>
<rect x="811" y="562" width="385" height="46" rx="23" stroke="white" stroke-width="2"/>
<rect x="811" y="909" width="385" height="46" rx="23" stroke="white" stroke-width="2"/>
<rect x="811" y="1255" width="385" height="47" rx="23.5" stroke="white" stroke-width="2"/>
<rect x="811" y="1603" width="385" height="46" rx="23" stroke="white" stroke-width="2"/>
<rect x="630.5" y="466.5" width="115" height="115" rx="22.5" stroke="white" stroke-width="3"/>
<rect x="630.5" y="815.5" width="115" height="115" rx="22.5" stroke="white" stroke-width="3"/>
<rect x="630.5" y="1164.5" width="115" height="115" rx="22.5" stroke="white" stroke-width="3"/>
<rect x="630.5" y="1513.5" width="115" height="115" rx="22.5" stroke="white" stroke-width="3"/>
<path fill-rule="evenodd" clip-rule="evenodd" d="M755.8 415H1335.2C1350.11 415 1361.05 415.003 1369.68 415.709C1378.28 416.411 1384.23 417.788 1389.25 420.341C1398.47 425.038 1405.96 432.535 1410.66 441.754C1413.21 446.765 1414.59 452.725 1415.29 461.315C1416 469.953 1416 480.893 1416 495.8V599.2C1416 614.107 1416 625.047 1415.29 633.685C1414.59 642.275 1413.21 648.235 1410.66 653.246C1405.96 662.465 1398.47 669.962 1389.25 674.659C1384.23 677.212 1378.28 678.589 1369.68 679.291C1361.05 679.997 1350.11 680 1335.2 680H755.8C740.893 680 729.953 679.997 721.315 679.291C712.725 678.589 706.765 677.212 701.754 674.659C692.535 669.962 685.038 662.465 680.341 653.246C677.788 648.235 676.411 642.275 675.709 633.685C675.003 625.047 675 614.107 675 599.2V583H671V599.2C671 628.883 671 643.724 676.777 655.061C681.858 665.034 689.966 673.142 699.939 678.223C711.276 684 726.117 684 755.8 684H1335.2C1364.88 684 1379.72 684 1391.06 678.223C1401.03 673.142 1409.14 665.034 1414.22 655.061C1420 643.724 1420 628.883 1420 599.2V495.8C1420 466.117 1420 451.276 1414.22 439.939C1409.14 429.966 1401.03 421.858 1391.06 416.777C1379.72 411 1364.88 411 1335.2 411H755.8C726.117 411 711.276 411 699.939 416.777C689.966 421.858 681.858 429.966 676.777 439.939C673.468 446.432 672.054 454.076 671.45 465H675.456C675.529 463.726 675.612 462.499 675.709 461.315C676.411 452.725 677.788 446.765 680.341 441.754C685.038 432.535 692.535 425.038 701.754 420.341C706.765 417.788 712.725 416.411 721.315 415.709C729.953 415.003 740.893 415 755.8 415Z" fill="white"/>
<path fill-rule="evenodd" clip-rule="evenodd" d="M755.8 762H1335.2C1350.11 762 1361.05 762.003 1369.68 762.709C1378.28 763.411 1384.23 764.788 1389.25 767.341C1398.47 772.038 1405.96 779.535 1410.66 788.754C1413.21 793.765 1414.59 799.725 1415.29 808.315C1416 816.953 1416 827.893 1416 842.8V946.2C1416 961.107 1416 972.047 1415.29 980.685C1414.59 989.275 1413.21 995.235 1410.66 1000.25C1405.96 1009.47 1398.47 1016.96 1389.25 1021.66C1384.23 1024.21 1378.28 1025.59 1369.68 1026.29C1361.05 1027 1350.11 1027 1335.2 1027H755.8C740.893 1027 729.953 1027 721.315 1026.29C712.725 1025.59 706.765 1024.21 701.754 1021.66C692.535 1016.96 685.038 1009.47 680.341 1000.25C677.788 995.235 676.411 989.275 675.709 980.685C675.003 972.047 675 961.107 675 946.2V932H671V946.2C671 975.883 671 990.724 676.777 1002.06C681.858 1012.03 689.966 1020.14 699.939 1025.22C711.276 1031 726.117 1031 755.8 1031H1335.2C1364.88 1031 1379.72 1031 1391.06 1025.22C1401.03 1020.14 1409.14 1012.03 1414.22 1002.06C1420 990.724 1420 975.883 1420 946.2V842.8C1420 813.117 1420 798.276 1414.22 786.939C1409.14 776.966 1401.03 768.858 1391.06 763.777C1379.72 758 1364.88 758 1335.2 758H755.8C726.117 758 711.276 758 699.939 763.777C689.966 768.858 681.858 776.966 676.777 786.939C673.27 793.822 671.892 801.996 671.35 814H675.354C675.446 811.996 675.562 810.106 675.709 808.315C676.411 799.725 677.788 793.765 680.341 788.754C685.038 779.535 692.535 772.038 701.754 767.341C706.765 764.788 712.725 763.411 721.315 762.709C729.953 762.003 740.893 762 755.8 762Z" fill="white"/>
<path fill-rule="evenodd" clip-rule="evenodd" d="M755.8 1109H1335.2C1350.11 1109 1361.05 1109 1369.68 1109.71C1378.28 1110.41 1384.23 1111.79 1389.25 1114.34C1398.47 1119.04 1405.96 1126.53 1410.66 1135.75C1413.21 1140.77 1414.59 1146.72 1415.29 1155.32C1416 1163.95 1416 1174.89 1416 1189.8V1293.2C1416 1308.11 1416 1319.05 1415.29 1327.68C1414.59 1336.28 1413.21 1342.23 1410.66 1347.25C1405.96 1356.47 1398.47 1363.96 1389.25 1368.66C1384.23 1371.21 1378.28 1372.59 1369.68 1373.29C1361.05 1374 1350.11 1374 1335.2 1374H755.8C740.893 1374 729.953 1374 721.315 1373.29C712.725 1372.59 706.765 1371.21 701.754 1368.66C692.535 1363.96 685.038 1356.47 680.341 1347.25C677.788 1342.23 676.411 1336.28 675.709 1327.68C675.003 1319.05 675 1308.11 675 1293.2V1281H671V1293.2C671 1322.88 671 1337.72 676.777 1349.06C681.858 1359.03 689.966 1367.14 699.939 1372.22C711.276 1378 726.117 1378 755.8 1378H1335.2C1364.88 1378 1379.72 1378 1391.06 1372.22C1401.03 1367.14 1409.14 1359.03 1414.22 1349.06C1420 1337.72 1420 1322.88 1420 1293.2V1189.8C1420 1160.12 1420 1145.28 1414.22 1133.94C1409.14 1123.97 1401.03 1115.86 1391.06 1110.78C1379.72 1105 1364.88 1105 1335.2 1105H755.8C726.117 1105 711.276 1105 699.939 1110.78C689.966 1115.86 681.858 1123.97 676.777 1133.94C673.078 1141.2 671.748 1149.89 671.269 1163H675.271C675.374 1160.24 675.515 1157.69 675.709 1155.32C676.411 1146.72 677.788 1140.77 680.341 1135.75C685.038 1126.53 692.535 1119.04 701.754 1114.34C706.765 1111.79 712.725 1110.41 721.315 1109.71C729.953 1109 740.893 1109 755.8 1109Z" fill="white"/>
<path fill-rule="evenodd" clip-rule="evenodd" d="M755.8 1456H1335.2C1350.11 1456 1361.05 1456 1369.68 1456.71C1378.28 1457.41 1384.23 1458.79 1389.25 1461.34C1398.47 1466.04 1405.96 1473.53 1410.66 1482.75C1413.21 1487.77 1414.59 1493.72 1415.29 1502.32C1416 1510.95 1416 1521.89 1416 1536.8V1640.2C1416 1655.11 1416 1666.05 1415.29 1674.68C1414.59 1683.28 1413.21 1689.23 1410.66 1694.25C1405.96 1703.47 1398.47 1710.96 1389.25 1715.66C1384.23 1718.21 1378.28 1719.59 1369.68 1720.29C1361.05 1721 1350.11 1721 1335.2 1721H755.8C740.893 1721 729.953 1721 721.315 1720.29C712.725 1719.59 706.765 1718.21 701.754 1715.66C692.535 1710.96 685.038 1703.47 680.341 1694.25C677.788 1689.23 676.411 1683.28 675.709 1674.68C675.003 1666.05 675 1655.11 675 1640.2V1630H671V1640.2C671 1669.88 671 1684.72 676.777 1696.06C681.858 1706.03 689.966 1714.14 699.939 1719.22C711.276 1725 726.117 1725 755.8 1725H1335.2C1364.88 1725 1379.72 1725 1391.06 1719.22C1401.03 1714.14 1409.14 1706.03 1414.22 1696.06C1420 1684.72 1420 1669.88 1420 1640.2V1536.8C1420 1507.12 1420 1492.28 1414.22 1480.94C1409.14 1470.97 1401.03 1462.86 1391.06 1457.78C1379.72 1452 1364.88 1452 1335.2 1452H755.8C726.117 1452 711.276 1452 699.939 1457.78C689.966 1462.86 681.858 1470.97 676.777 1480.94C672.893 1488.56 671.62 1497.77 671.203 1512H675.205C675.31 1508.46 675.469 1505.26 675.709 1502.32C676.411 1493.72 677.788 1487.77 680.341 1482.75C685.038 1473.53 692.535 1466.04 701.754 1461.34C706.765 1458.79 712.725 1457.41 721.315 1456.71C729.953 1456 740.893 1456 755.8 1456Z" fill="white"/>
<path d="M1043.12 332C1043.12 332.564 1042.9 333.104 1042.5 333.503C1042.1 333.901 1041.56 334.125 1041 334.125H1007C1006.44 334.125 1005.9 333.901 1005.5 333.503C1005.1 333.104 1004.87 332.564 1004.87 332C1004.87 331.436 1005.1 330.896 1005.5 330.497C1005.9 330.099 1006.44 329.875 1007 329.875H1041C1041.56 329.875 1042.1 330.099 1042.5 330.497C1042.9 330.896 1043.12 331.436 1043.12 332ZM1074.91 246.023C1070.31 237.021 1063.4 229.404 1054.88 223.954C1054.65 223.789 1054.38 223.674 1054.1 223.614C1053.82 223.555 1053.52 223.554 1053.24 223.611C1052.96 223.668 1052.69 223.781 1052.46 223.945C1052.22 224.108 1052.02 224.318 1051.86 224.561C1051.71 224.805 1051.61 225.077 1051.56 225.361C1051.52 225.646 1051.53 225.936 1051.6 226.215C1051.67 226.494 1051.8 226.756 1051.97 226.985C1052.15 227.214 1052.37 227.404 1052.62 227.546C1060.49 232.595 1066.89 239.646 1071.14 247.978C1071.32 248.323 1071.59 248.613 1071.93 248.815C1072.26 249.018 1072.64 249.125 1073.03 249.125C1073.37 249.126 1073.7 249.044 1074.01 248.886C1074.51 248.627 1074.88 248.179 1075.05 247.642C1075.22 247.105 1075.17 246.523 1074.91 246.023ZM976.857 247.978C981.113 239.646 987.506 232.595 995.382 227.546C995.828 227.233 996.137 226.76 996.245 226.225C996.352 225.69 996.25 225.134 995.959 224.673C995.669 224.211 995.211 223.879 994.683 223.746C994.154 223.612 993.594 223.687 993.118 223.954C984.602 229.404 977.688 237.021 973.085 246.023C972.826 246.523 972.776 247.105 972.946 247.642C973.117 248.179 973.493 248.627 973.993 248.886C974.295 249.044 974.63 249.126 974.971 249.125C975.36 249.125 975.742 249.018 976.075 248.815C976.407 248.613 976.678 248.323 976.857 247.978ZM1072 307.563C1072.56 308.53 1072.86 309.628 1072.86 310.746C1072.86 311.863 1072.57 312.962 1072.01 313.93C1071.45 314.899 1070.65 315.704 1069.68 316.265C1068.71 316.825 1067.62 317.122 1066.5 317.125H981.5C980.382 317.122 979.285 316.825 978.318 316.265C977.352 315.704 976.549 314.899 975.992 313.93C975.434 312.962 975.141 311.863 975.142 310.746C975.143 309.628 975.437 308.53 975.996 307.563C981.059 298.829 983.625 287.04 983.625 272.5C983.625 261.792 987.879 251.522 995.451 243.951C1003.02 236.379 1013.29 232.125 1024 232.125C1034.71 232.125 1044.98 236.379 1052.55 243.951C1060.12 251.522 1064.37 261.792 1064.37 272.5C1064.37 287.035 1066.94 298.823 1072 307.563ZM1068.33 309.688C1062.88 300.306 1060.12 287.795 1060.12 272.5C1060.12 262.919 1056.32 253.731 1049.54 246.956C1042.77 240.181 1033.58 236.375 1024 236.375C1014.42 236.375 1005.23 240.181 998.456 246.956C991.681 253.731 987.875 262.919 987.875 272.5C987.875 287.8 985.118 300.306 979.672 309.688C979.486 310.011 979.388 310.377 979.388 310.75C979.388 311.123 979.486 311.49 979.672 311.813C979.853 312.138 980.118 312.408 980.44 312.595C980.762 312.782 981.128 312.879 981.5 312.875H1066.5C1066.87 312.878 1067.24 312.781 1067.56 312.594C1067.88 312.407 1068.14 312.137 1068.32 311.813C1068.51 311.49 1068.61 311.124 1068.61 310.751C1068.61 310.378 1068.51 310.011 1068.33 309.688Z" fill="white"/>
<defs>
<filter id="filter0_i_1137_1860" x="571" y="89" width="909" height="1831" filterUnits="userSpaceOnUse" color-interpolation-filters="sRGB">
<feFlood flood-opacity="0" result="BackgroundImageFix"/>
<feBlend mode="normal" in="SourceGraphic" in2="BackgroundImageFix" result="shape"/>
<feColorMatrix in="SourceAlpha" type="matrix" values="0 0 0 0 0 0 0 0 0 0 0 0 0 0 0 0 0 0 127 0" result="hardAlpha"/>
<feMorphology radius="3" operator="erode" in="SourceAlpha" result="effect1_innerShadow_1137_1860"/>
<feOffset dx="4" dy="-2"/>
<feComposite in2="hardAlpha" operator="arithmetic" k2="-1" k3="1"/>
<feColorMatrix type="matrix" values="0 0 0 0 1 0 0 0 0 0 0 0 0 0 0 0 0 0 0.6 0"/>
<feBlend mode="normal" in2="shape" result="effect1_innerShadow_1137_1860"/>
</filter>
<linearGradient id="paint0_linear_1137_1860" x1="864.118" y1="91" x2="1200.29" y2="1726.58" gradientUnits="userSpaceOnUse">
<stop offset="0.434901" stop-color="#FF0090" stop-opacity="0"/>
<stop offset="1" stop-color="#FF0091" stop-opacity="0.8"/>
</linearGradient>
</defs>
</svg>
