<svg width="1480" height="1168" viewBox="0 0 1480 1168" fill="none" xmlns="http://www.w3.org/2000/svg">
<g opacity="0.3">
<path d="M1265 526H1337C1349.15 526 1359 535.85 1359 548V620C1359 632.15 1349.15 642 1337 642H1265C1252.85 642 1243 632.15 1243 620V548C1243 535.85 1252.85 526 1265 526Z" fill="#868686"/>
<path d="M1265 526H1337C1349.15 526 1359 535.85 1359 548V620C1359 632.15 1349.15 642 1337 642H1265C1252.85 642 1243 632.15 1243 620V548C1243 535.85 1252.85 526 1265 526Z" fill="url(#paint0_linear_1182_789)"/>
<path d="M1265 526H1337C1349.15 526 1359 535.85 1359 548V620C1359 632.15 1349.15 642 1337 642H1265C1252.85 642 1243 632.15 1243 620V548C1243 535.85 1252.85 526 1265 526Z" fill="url(#paint1_linear_1182_789)"/>
<path d="M1265 526H1337C1349.15 526 1359 535.85 1359 548V620C1359 632.15 1349.15 642 1337 642H1265C1252.85 642 1243 632.15 1243 620V548C1243 535.85 1252.85 526 1265 526Z" stroke="white" stroke-width="4"/>
</g>
<g filter="url(#filter0_d_1182_789)">
<path fill-rule="evenodd" clip-rule="evenodd" d="M1294.33 611H1307.67C1317.03 611 1321.71 611 1325.07 608.795C1326.53 607.844 1327.78 606.617 1328.75 605.183C1331 601.883 1331 597.284 1331 588.092C1331 578.897 1331 574.301 1328.75 571.001C1327.78 569.567 1326.53 568.34 1325.07 567.389C1322.91 565.97 1320.21 565.463 1316.07 565.283C1314.09 565.283 1312.39 563.813 1312 561.908C1311.71 560.513 1310.94 559.262 1309.83 558.368C1308.71 557.474 1307.33 556.991 1305.9 557H1296.1C1293.13 557 1290.58 559.055 1290 561.908C1289.61 563.813 1287.91 565.283 1285.93 565.283C1281.79 565.463 1279.09 565.973 1276.92 567.389C1275.47 568.34 1274.23 569.568 1273.25 571.001C1271 574.301 1271 578.897 1271 588.092C1271 597.284 1271 601.88 1273.25 605.183C1274.22 606.611 1275.47 607.838 1276.92 608.795C1280.29 611 1284.97 611 1294.33 611ZM1301 575.819C1294.1 575.819 1288.5 581.312 1288.5 588.089C1288.5 594.869 1294.1 600.362 1301 600.362C1307.9 600.362 1313.5 594.869 1313.5 588.092C1313.5 581.312 1307.9 575.819 1301 575.819ZM1301 580.727C1296.86 580.727 1293.5 584.024 1293.5 588.092C1293.5 592.157 1296.86 595.454 1301 595.454C1305.14 595.454 1308.5 592.157 1308.5 588.092C1308.5 584.024 1305.14 580.727 1301 580.727ZM1315.17 578.273C1315.17 576.917 1316.28 575.819 1317.67 575.819H1321C1322.38 575.819 1323.5 576.917 1323.5 578.273C1323.49 578.93 1323.23 579.557 1322.76 580.017C1322.29 580.477 1321.66 580.733 1321 580.727H1317.67C1317.34 580.73 1317.02 580.669 1316.72 580.548C1316.42 580.426 1316.14 580.246 1315.91 580.018C1315.68 579.79 1315.49 579.519 1315.36 579.22C1315.24 578.92 1315.17 578.599 1315.17 578.273Z" fill="url(#paint2_linear_1182_789)"/>
</g>
<defs>
<filter id="filter0_d_1182_789" x="1267" y="557" width="68" height="62" filterUnits="userSpaceOnUse" color-interpolation-filters="sRGB">
<feFlood flood-opacity="0" result="BackgroundImageFix"/>
<feColorMatrix in="SourceAlpha" type="matrix" values="0 0 0 0 0 0 0 0 0 0 0 0 0 0 0 0 0 0 127 0" result="hardAlpha"/>
<feOffset dy="4"/>
<feGaussianBlur stdDeviation="2"/>
<feComposite in2="hardAlpha" operator="out"/>
<feColorMatrix type="matrix" values="0 0 0 0 0 0 0 0 0 0 0 0 0 0 0 0 0 0 0.25 0"/>
<feBlend mode="normal" in2="BackgroundImageFix" result="effect1_dropShadow_1182_789"/>
<feBlend mode="normal" in="SourceGraphic" in2="effect1_dropShadow_1182_789" result="shape"/>
</filter>
<linearGradient id="paint0_linear_1182_789" x1="1301" y1="557.75" x2="1301" y2="644" gradientUnits="userSpaceOnUse">
<stop stop-opacity="0"/>
<stop offset="0.972871" stop-opacity="0.24"/>
<stop offset="1" stop-opacity="0.41"/>
</linearGradient>
<linearGradient id="paint1_linear_1182_789" x1="1301" y1="524" x2="1301" y2="601.813" gradientUnits="userSpaceOnUse">
<stop stop-color="white" stop-opacity="0.2"/>
<stop offset="1" stop-color="white" stop-opacity="0"/>
</linearGradient>
<linearGradient id="paint2_linear_1182_789" x1="1331" y1="585.8" x2="1271" y2="585.8" gradientUnits="userSpaceOnUse">
<stop stop-color="#FF4281"/>
<stop offset="1" stop-color="#FF7676"/>
</linearGradient>
</defs>
</svg>
