<svg width="1480" height="1168" viewBox="0 0 1480 1168" fill="none" xmlns="http://www.w3.org/2000/svg">
<g opacity="0.3">
<path d="M632 276H848C882.242 276 910 303.758 910 338V830C910 864.242 882.242 892 848 892H632C597.758 892 570 864.242 570 830V338C570 303.758 597.758 276 632 276Z" fill="#868686"/>
<path d="M632 276H848C882.242 276 910 303.758 910 338V830C910 864.242 882.242 892 848 892H632C597.758 892 570 864.242 570 830V338C570 303.758 597.758 276 632 276Z" fill="url(#paint0_linear_1175_56)"/>
<path d="M632 276H848C882.242 276 910 303.758 910 338V830C910 864.242 882.242 892 848 892H632C597.758 892 570 864.242 570 830V338C570 303.758 597.758 276 632 276Z" fill="url(#paint1_linear_1175_56)"/>
<path d="M632 276H848C882.242 276 910 303.758 910 338V830C910 864.242 882.242 892 848 892H632C597.758 892 570 864.242 570 830V338C570 303.758 597.758 276 632 276Z" stroke="white" stroke-width="4"/>
</g>
<path d="M718 294.5H762C769.456 294.5 775.5 300.544 775.5 308C775.5 315.456 769.456 321.5 762 321.5H718C710.544 321.5 704.5 315.456 704.5 308C704.5 300.544 710.544 294.5 718 294.5Z" stroke="white" stroke-opacity="0.2"/>
<g filter="url(#filter0_d_1175_56)">
<rect x="669" y="820" width="209" height="15" rx="7.5" fill="black"/>
<rect x="605" y="820" width="209" height="15" rx="7.5" fill="url(#paint2_linear_1175_56)"/>
</g>
<path opacity="0.8" d="M740 682C731.656 682 723.5 684.474 716.562 689.11C709.624 693.745 704.217 700.334 701.024 708.043C697.831 715.752 696.995 724.234 698.623 732.418C700.251 740.601 704.269 748.119 710.169 754.019C716.069 759.919 723.586 763.937 731.77 765.564C739.953 767.192 748.436 766.357 756.144 763.164C763.853 759.971 770.442 754.563 775.078 747.626C779.713 740.688 782.188 732.531 782.188 724.187C782.175 713.002 777.727 702.279 769.818 694.37C761.908 686.461 751.185 682.012 740 682ZM740 763C732.324 763 724.82 760.724 718.437 756.459C712.054 752.194 707.08 746.132 704.142 739.04C701.204 731.948 700.436 724.144 701.933 716.616C703.431 709.087 707.127 702.171 712.555 696.743C717.983 691.315 724.899 687.618 732.428 686.121C739.957 684.623 747.761 685.392 754.853 688.329C761.945 691.267 768.007 696.242 772.271 702.624C776.536 709.007 778.813 716.511 778.813 724.187C778.801 734.478 774.709 744.343 767.432 751.62C760.156 758.896 750.29 762.989 740 763ZM754.437 722.783L734.187 709.283C733.932 709.113 733.637 709.016 733.332 709.001C733.026 708.986 732.723 709.054 732.454 709.199C732.184 709.343 731.959 709.558 731.802 709.82C731.645 710.082 731.562 710.382 731.563 710.687V737.687C731.562 737.993 731.645 738.293 731.802 738.555C731.958 738.818 732.183 739.032 732.453 739.177C732.722 739.321 733.026 739.389 733.331 739.375C733.637 739.36 733.932 739.262 734.187 739.092L754.437 725.592C754.668 725.438 754.858 725.229 754.989 724.984C755.12 724.739 755.189 724.466 755.189 724.187C755.189 723.909 755.12 723.636 754.989 723.391C754.858 723.146 754.668 722.937 754.437 722.783ZM734.938 734.536V713.839L750.458 724.187L734.938 734.536Z" fill="white"/>
<path opacity="0.6" d="M850 696.062C844.437 696.062 839 697.712 834.375 700.802C829.749 703.893 826.145 708.285 824.016 713.425C821.887 718.564 821.33 724.219 822.415 729.674C823.501 735.13 826.179 740.142 830.113 744.075C834.046 748.008 839.057 750.687 844.513 751.772C849.969 752.857 855.624 752.3 860.763 750.172C865.902 748.043 870.295 744.438 873.385 739.813C876.476 735.188 878.125 729.75 878.125 724.188C878.117 716.731 875.151 709.582 869.878 704.309C864.606 699.036 857.457 696.071 850 696.062ZM850 750.062C844.882 750.062 839.88 748.545 835.625 745.702C831.37 742.859 828.053 738.817 826.095 734.089C824.136 729.361 823.624 724.159 824.622 719.14C825.621 714.12 828.085 709.51 831.704 705.891C835.322 702.272 839.933 699.808 844.952 698.81C849.971 697.811 855.174 698.324 859.902 700.282C864.63 702.241 868.671 705.557 871.514 709.812C874.357 714.067 875.875 719.07 875.875 724.188C875.868 731.048 873.139 737.625 868.288 742.476C863.437 747.327 856.86 750.055 850 750.062ZM851.749 723.251L838.249 714.251C838.08 714.138 837.883 714.073 837.679 714.063C837.476 714.053 837.274 714.099 837.094 714.195C836.914 714.291 836.764 714.434 836.66 714.609C836.555 714.784 836.5 714.984 836.5 715.188V733.188C836.5 733.391 836.555 733.591 836.659 733.766C836.764 733.941 836.914 734.084 837.093 734.18C837.273 734.277 837.476 734.322 837.679 734.312C837.883 734.302 838.08 734.237 838.249 734.124L851.749 725.124C851.904 725.021 852.03 724.882 852.118 724.719C852.205 724.555 852.251 724.373 852.251 724.188C852.251 724.002 852.205 723.82 852.118 723.656C852.03 723.493 851.904 723.354 851.749 723.251ZM838.75 731.087V717.288L849.097 724.188L838.75 731.087ZM867.499 723.251L853.999 714.251C853.83 714.138 853.633 714.073 853.429 714.063C853.226 714.053 853.024 714.099 852.844 714.195C852.664 714.291 852.514 714.434 852.41 714.609C852.305 714.784 852.25 714.984 852.25 715.188V733.188C852.25 733.391 852.305 733.591 852.409 733.766C852.514 733.941 852.664 734.084 852.843 734.18C853.023 734.277 853.226 734.322 853.429 734.312C853.633 734.302 853.83 734.237 853.999 734.124L867.499 725.124C867.654 725.021 867.78 724.882 867.868 724.719C867.955 724.555 868.001 724.373 868.001 724.188C868.001 724.002 867.955 723.82 867.868 723.656C867.78 723.493 867.654 723.354 867.499 723.251ZM854.5 731.087V717.288L864.847 724.188L854.5 731.087Z" fill="white"/>
<path opacity="0.6" d="M630 696.062C624.437 696.062 619 697.712 614.375 700.802C609.749 703.893 606.145 708.285 604.016 713.425C601.887 718.564 601.33 724.219 602.415 729.674C603.501 735.13 606.179 740.142 610.113 744.075C614.046 748.008 619.057 750.687 624.513 751.772C629.969 752.857 635.624 752.3 640.763 750.172C645.902 748.043 650.295 744.438 653.385 739.813C656.476 735.188 658.125 729.75 658.125 724.188C658.117 716.731 655.151 709.582 649.878 704.309C644.606 699.036 637.457 696.071 630 696.062ZM630 750.062C624.882 750.062 619.88 748.545 615.625 745.702C611.37 742.859 608.053 738.817 606.095 734.089C604.136 729.361 603.624 724.159 604.622 719.14C605.621 714.12 608.085 709.51 611.704 705.891C615.322 702.272 619.933 699.808 624.952 698.81C629.971 697.811 635.174 698.324 639.902 700.282C644.63 702.241 648.671 705.557 651.514 709.812C654.357 714.067 655.875 719.07 655.875 724.188C655.868 731.048 653.139 737.625 648.288 742.476C643.437 747.327 636.86 750.055 630 750.062ZM642.907 714.195C642.727 714.098 642.524 714.053 642.321 714.063C642.117 714.073 641.92 714.138 641.751 714.251L628.251 723.251C628.096 723.354 627.97 723.493 627.882 723.656C627.795 723.82 627.749 724.002 627.749 724.188C627.749 724.373 627.795 724.555 627.882 724.719C627.97 724.882 628.096 725.021 628.251 725.124L641.751 734.124C641.92 734.237 642.117 734.302 642.321 734.312C642.524 734.322 642.726 734.276 642.906 734.18C643.086 734.084 643.236 733.941 643.34 733.766C643.445 733.591 643.5 733.391 643.5 733.188V715.188C643.5 714.984 643.445 714.784 643.341 714.609C643.236 714.434 643.086 714.291 642.907 714.195ZM641.25 731.087L630.903 724.188L641.25 717.288V731.087ZM627.157 714.195C626.977 714.098 626.774 714.053 626.571 714.063C626.367 714.073 626.17 714.138 626.001 714.251L612.501 723.251C612.346 723.354 612.22 723.493 612.132 723.656C612.045 723.82 611.999 724.002 611.999 724.188C611.999 724.373 612.045 724.555 612.132 724.719C612.22 724.882 612.346 725.021 612.501 725.124L626.001 734.124C626.17 734.237 626.367 734.302 626.571 734.312C626.774 734.322 626.976 734.276 627.156 734.18C627.336 734.084 627.486 733.941 627.59 733.766C627.695 733.591 627.75 733.391 627.75 733.188V715.188C627.75 714.984 627.695 714.784 627.591 714.609C627.486 714.434 627.336 714.291 627.157 714.195ZM625.5 731.087L615.153 724.188L625.5 717.288V731.087Z" fill="white"/>
<g filter="url(#filter1_i_1175_56)">
<rect x="604" y="417" width="273" height="237" rx="17" fill="black" fill-opacity="0.3"/>
</g>
<rect x="600" y="481" width="281" height="42" rx="21" fill="url(#paint3_linear_1175_56)"/>
<g filter="url(#filter2_d_1175_56)">
<path d="M631.058 498.273V507H629.464L625.668 501.507H625.604V507H623.759V498.273H625.378L629.145 503.761H629.222V498.273H631.058ZM635.506 507.128C634.844 507.128 634.272 506.987 633.789 506.706C633.309 506.422 632.938 506.027 632.676 505.521C632.415 505.013 632.284 504.423 632.284 503.753C632.284 503.077 632.415 502.486 632.676 501.98C632.938 501.472 633.309 501.077 633.789 500.795C634.272 500.511 634.844 500.369 635.506 500.369C636.168 500.369 636.739 500.511 637.219 500.795C637.702 501.077 638.074 501.472 638.336 501.98C638.597 502.486 638.728 503.077 638.728 503.753C638.728 504.423 638.597 505.013 638.336 505.521C638.074 506.027 637.702 506.422 637.219 506.706C636.739 506.987 636.168 507.128 635.506 507.128ZM635.515 505.722C635.816 505.722 636.067 505.636 636.269 505.466C636.471 505.293 636.623 505.057 636.725 504.759C636.83 504.46 636.882 504.121 636.882 503.74C636.882 503.359 636.83 503.02 636.725 502.722C636.623 502.423 636.471 502.187 636.269 502.014C636.067 501.841 635.816 501.754 635.515 501.754C635.211 501.754 634.955 501.841 634.748 502.014C634.543 502.187 634.388 502.423 634.283 502.722C634.181 503.02 634.13 503.359 634.13 503.74C634.13 504.121 634.181 504.46 634.283 504.759C634.388 505.057 634.543 505.293 634.748 505.466C634.955 505.636 635.211 505.722 635.515 505.722ZM641.035 507L639.254 500.455H641.091L642.105 504.852H642.164L643.221 500.455H645.024L646.098 504.827H646.153L647.15 500.455H648.983L647.206 507H645.284L644.159 502.884H644.078L642.953 507H641.035ZM652.762 507V498.273H656.206C656.868 498.273 657.431 498.399 657.897 498.652C658.363 498.902 658.718 499.25 658.963 499.696C659.21 500.139 659.333 500.651 659.333 501.23C659.333 501.81 659.208 502.321 658.958 502.764C658.708 503.207 658.346 503.553 657.872 503.8C657.4 504.047 656.829 504.17 656.159 504.17H653.964V502.692H655.86C656.216 502.692 656.508 502.631 656.738 502.509C656.971 502.384 657.145 502.212 657.258 501.993C657.375 501.771 657.433 501.517 657.433 501.23C657.433 500.94 657.375 500.687 657.258 500.472C657.145 500.253 656.971 500.084 656.738 499.964C656.505 499.842 656.21 499.781 655.852 499.781H654.608V507H652.762ZM662.313 498.273V507H660.498V498.273H662.313ZM665.634 507.124C665.216 507.124 664.844 507.051 664.517 506.906C664.191 506.759 663.932 506.541 663.742 506.254C663.554 505.964 663.461 505.604 663.461 505.172C663.461 504.808 663.527 504.503 663.661 504.256C663.794 504.009 663.976 503.81 664.206 503.659C664.436 503.509 664.698 503.395 664.99 503.318C665.286 503.241 665.596 503.188 665.919 503.156C666.3 503.116 666.607 503.08 666.84 503.045C667.073 503.009 667.242 502.955 667.347 502.884C667.452 502.812 667.505 502.707 667.505 502.568V502.543C667.505 502.273 667.419 502.064 667.249 501.916C667.081 501.768 666.843 501.695 666.533 501.695C666.206 501.695 665.946 501.767 665.753 501.912C665.56 502.054 665.432 502.233 665.37 502.449L663.691 502.312C663.776 501.915 663.944 501.571 664.194 501.281C664.444 500.989 664.766 500.764 665.161 500.608C665.559 500.449 666.019 500.369 666.542 500.369C666.905 500.369 667.253 500.412 667.586 500.497C667.921 500.582 668.218 500.714 668.476 500.893C668.738 501.072 668.944 501.303 669.094 501.584C669.245 501.862 669.32 502.196 669.32 502.585V507H667.598V506.092H667.547C667.442 506.297 667.301 506.477 667.125 506.634C666.949 506.787 666.738 506.908 666.49 506.996C666.243 507.081 665.958 507.124 665.634 507.124ZM666.154 505.871C666.421 505.871 666.657 505.818 666.861 505.713C667.066 505.605 667.226 505.46 667.343 505.278C667.459 505.097 667.517 504.891 667.517 504.661V503.966C667.461 504.003 667.382 504.037 667.283 504.068C667.186 504.097 667.077 504.124 666.955 504.149C666.833 504.172 666.711 504.193 666.588 504.213C666.466 504.23 666.355 504.246 666.256 504.26C666.043 504.291 665.857 504.341 665.698 504.409C665.539 504.477 665.415 504.57 665.327 504.686C665.239 504.8 665.195 504.942 665.195 505.112C665.195 505.359 665.284 505.548 665.463 505.679C665.645 505.807 665.875 505.871 666.154 505.871ZM671.615 509.455C671.385 509.455 671.169 509.436 670.967 509.399C670.768 509.365 670.603 509.321 670.473 509.267L670.882 507.912C671.095 507.977 671.287 508.013 671.457 508.018C671.63 508.024 671.779 507.984 671.904 507.899C672.032 507.814 672.136 507.669 672.216 507.464L672.322 507.188L669.974 500.455H671.883L673.238 505.261H673.306L674.674 500.455H676.596L674.052 507.707C673.93 508.06 673.764 508.366 673.554 508.628C673.346 508.892 673.083 509.095 672.765 509.237C672.447 509.382 672.064 509.455 671.615 509.455ZM677.525 507V500.455H679.341V507H677.525ZM678.437 499.611C678.167 499.611 677.936 499.521 677.743 499.342C677.552 499.161 677.457 498.943 677.457 498.69C677.457 498.44 677.552 498.226 677.743 498.047C677.936 497.865 678.167 497.774 678.437 497.774C678.707 497.774 678.937 497.865 679.127 498.047C679.321 498.226 679.417 498.44 679.417 498.69C679.417 498.943 679.321 499.161 679.127 499.342C678.937 499.521 678.707 499.611 678.437 499.611ZM682.61 503.216V507H680.795V500.455H682.525V501.609H682.602C682.746 501.229 682.989 500.928 683.33 500.706C683.671 500.482 684.085 500.369 684.57 500.369C685.025 500.369 685.421 500.469 685.759 500.668C686.097 500.866 686.36 501.151 686.548 501.52C686.735 501.886 686.829 502.324 686.829 502.832V507H685.013V503.156C685.016 502.756 684.914 502.443 684.707 502.219C684.499 501.991 684.214 501.878 683.85 501.878C683.606 501.878 683.39 501.93 683.202 502.036C683.018 502.141 682.873 502.294 682.768 502.496C682.665 502.695 682.613 502.935 682.61 503.216ZM691.208 509.591C690.62 509.591 690.116 509.51 689.696 509.348C689.278 509.189 688.946 508.972 688.699 508.696C688.451 508.42 688.291 508.111 688.217 507.767L689.896 507.541C689.947 507.672 690.028 507.794 690.139 507.908C690.25 508.021 690.396 508.112 690.578 508.18C690.762 508.251 690.987 508.287 691.251 508.287C691.646 508.287 691.971 508.19 692.227 507.997C692.485 507.807 692.615 507.487 692.615 507.038V505.841H692.538C692.458 506.023 692.339 506.195 692.18 506.357C692.021 506.518 691.816 506.651 691.566 506.753C691.316 506.855 691.018 506.906 690.672 506.906C690.18 506.906 689.733 506.793 689.329 506.565C688.929 506.335 688.609 505.984 688.37 505.513C688.135 505.038 688.017 504.439 688.017 503.714C688.017 502.973 688.137 502.354 688.379 501.857C688.62 501.359 688.941 500.987 689.342 500.74C689.745 500.493 690.187 500.369 690.667 500.369C691.034 500.369 691.341 500.432 691.588 500.557C691.835 500.679 692.034 500.832 692.184 501.017C692.338 501.199 692.456 501.378 692.538 501.554H692.606V500.455H694.409V507.064C694.409 507.621 694.272 508.087 694 508.462C693.727 508.837 693.349 509.118 692.866 509.305C692.386 509.496 691.833 509.591 691.208 509.591ZM691.247 505.543C691.539 505.543 691.787 505.47 691.988 505.325C692.193 505.178 692.349 504.967 692.457 504.695C692.568 504.419 692.623 504.089 692.623 503.706C692.623 503.322 692.569 502.99 692.461 502.709C692.353 502.425 692.197 502.205 691.993 502.048C691.788 501.892 691.539 501.814 691.247 501.814C690.949 501.814 690.697 501.895 690.493 502.057C690.288 502.216 690.133 502.437 690.028 502.722C689.923 503.006 689.87 503.334 689.87 503.706C689.87 504.084 689.923 504.411 690.028 504.686C690.136 504.959 690.291 505.17 690.493 505.321C690.697 505.469 690.949 505.543 691.247 505.543Z" fill="white"/>
</g>
<g filter="url(#filter3_d_1175_56)">
<path d="M627.398 448.273H628.455V454.511C628.455 455.068 628.352 455.541 628.148 455.93C627.943 456.32 627.655 456.615 627.283 456.817C626.911 457.018 626.472 457.119 625.966 457.119C625.489 457.119 625.064 457.033 624.692 456.859C624.32 456.683 624.027 456.433 623.814 456.109C623.601 455.786 623.494 455.401 623.494 454.955H624.534C624.534 455.202 624.595 455.418 624.717 455.602C624.842 455.784 625.013 455.926 625.229 456.028C625.445 456.131 625.69 456.182 625.966 456.182C626.27 456.182 626.528 456.118 626.741 455.99C626.955 455.862 627.116 455.675 627.227 455.428C627.341 455.178 627.398 454.872 627.398 454.511V448.273ZM634.561 454.324V450.455H635.567V457H634.561V455.892H634.493C634.339 456.224 634.101 456.507 633.777 456.74C633.453 456.97 633.044 457.085 632.55 457.085C632.141 457.085 631.777 456.996 631.459 456.817C631.141 456.635 630.891 456.362 630.709 455.999C630.527 455.632 630.436 455.17 630.436 454.614V450.455H631.442V454.545C631.442 455.023 631.575 455.403 631.842 455.688C632.112 455.972 632.456 456.114 632.874 456.114C633.124 456.114 633.378 456.05 633.636 455.922C633.898 455.794 634.116 455.598 634.293 455.334C634.472 455.07 634.561 454.733 634.561 454.324ZM642.045 451.92L641.142 452.176C641.085 452.026 641.001 451.879 640.89 451.737C640.782 451.592 640.635 451.473 640.447 451.379C640.26 451.286 640.02 451.239 639.727 451.239C639.326 451.239 638.993 451.331 638.725 451.516C638.461 451.697 638.329 451.929 638.329 452.21C638.329 452.46 638.42 452.658 638.602 452.803C638.784 452.947 639.068 453.068 639.454 453.165L640.426 453.403C641.011 453.545 641.447 453.763 641.734 454.055C642.021 454.345 642.164 454.719 642.164 455.176C642.164 455.551 642.056 455.886 641.841 456.182C641.627 456.477 641.329 456.71 640.946 456.881C640.562 457.051 640.116 457.136 639.608 457.136C638.94 457.136 638.387 456.991 637.95 456.702C637.512 456.412 637.235 455.989 637.119 455.432L638.074 455.193C638.164 455.545 638.336 455.81 638.589 455.986C638.845 456.162 639.179 456.25 639.591 456.25C640.059 456.25 640.431 456.151 640.707 455.952C640.985 455.75 641.125 455.509 641.125 455.227C641.125 455 641.045 454.81 640.886 454.656C640.727 454.5 640.483 454.384 640.153 454.307L639.062 454.051C638.463 453.909 638.022 453.689 637.741 453.391C637.463 453.089 637.324 452.713 637.324 452.261C637.324 451.892 637.427 451.565 637.635 451.281C637.845 450.997 638.13 450.774 638.491 450.612C638.855 450.45 639.267 450.369 639.727 450.369C640.375 450.369 640.883 450.511 641.252 450.795C641.625 451.08 641.889 451.455 642.045 451.92ZM646.525 450.455V451.307H643.133V450.455H646.525ZM644.121 448.886H645.127V455.125C645.127 455.409 645.168 455.622 645.251 455.764C645.336 455.903 645.444 455.997 645.575 456.045C645.708 456.091 645.849 456.114 645.996 456.114C646.107 456.114 646.198 456.108 646.269 456.097C646.34 456.082 646.397 456.071 646.44 456.062L646.644 456.966C646.576 456.991 646.481 457.017 646.359 457.043C646.237 457.071 646.082 457.085 645.894 457.085C645.61 457.085 645.332 457.024 645.059 456.902C644.789 456.78 644.565 456.594 644.386 456.344C644.21 456.094 644.121 455.778 644.121 455.398V448.886ZM654.327 450.455V451.307H650.799V450.455H654.327ZM651.856 457V449.551C651.856 449.176 651.944 448.864 652.12 448.614C652.296 448.364 652.525 448.176 652.806 448.051C653.087 447.926 653.384 447.864 653.697 447.864C653.944 447.864 654.146 447.884 654.302 447.923C654.458 447.963 654.575 448 654.651 448.034L654.362 448.903C654.31 448.886 654.239 448.865 654.148 448.839C654.06 448.814 653.944 448.801 653.799 448.801C653.467 448.801 653.227 448.885 653.079 449.053C652.934 449.22 652.862 449.466 652.862 449.79V457H651.856ZM658.126 457.136C657.536 457.136 657.017 456.996 656.571 456.714C656.128 456.433 655.781 456.04 655.531 455.534C655.284 455.028 655.161 454.437 655.161 453.761C655.161 453.08 655.284 452.484 655.531 451.976C655.781 451.467 656.128 451.072 656.571 450.791C657.017 450.51 657.536 450.369 658.126 450.369C658.717 450.369 659.234 450.51 659.678 450.791C660.124 451.072 660.47 451.467 660.717 451.976C660.967 452.484 661.092 453.08 661.092 453.761C661.092 454.437 660.967 455.028 660.717 455.534C660.47 456.04 660.124 456.433 659.678 456.714C659.234 456.996 658.717 457.136 658.126 457.136ZM658.126 456.233C658.575 456.233 658.945 456.118 659.234 455.888C659.524 455.658 659.739 455.355 659.878 454.98C660.017 454.605 660.087 454.199 660.087 453.761C660.087 453.324 660.017 452.916 659.878 452.538C659.739 452.161 659.524 451.855 659.234 451.622C658.945 451.389 658.575 451.273 658.126 451.273C657.678 451.273 657.308 451.389 657.018 451.622C656.729 451.855 656.514 452.161 656.375 452.538C656.236 452.916 656.166 453.324 656.166 453.761C656.166 454.199 656.236 454.605 656.375 454.98C656.514 455.355 656.729 455.658 657.018 455.888C657.308 456.118 657.678 456.233 658.126 456.233ZM662.627 457V450.455H663.599V451.443H663.667C663.787 451.119 664.002 450.857 664.315 450.655C664.627 450.453 664.98 450.352 665.372 450.352C665.446 450.352 665.538 450.354 665.649 450.357C665.76 450.359 665.843 450.364 665.9 450.369V451.392C665.866 451.384 665.788 451.371 665.666 451.354C665.547 451.334 665.42 451.324 665.287 451.324C664.968 451.324 664.684 451.391 664.434 451.524C664.187 451.655 663.991 451.837 663.846 452.07C663.704 452.3 663.633 452.562 663.633 452.858V457H662.627ZM669.854 448.273H671.064L673.484 452.347H673.587L676.007 448.273H677.217L674.064 453.403V457H673.007V453.403L669.854 448.273ZM680.181 457.136C679.59 457.136 679.072 456.996 678.626 456.714C678.183 456.433 677.836 456.04 677.586 455.534C677.339 455.028 677.215 454.437 677.215 453.761C677.215 453.08 677.339 452.484 677.586 451.976C677.836 451.467 678.183 451.072 678.626 450.791C679.072 450.51 679.59 450.369 680.181 450.369C680.772 450.369 681.289 450.51 681.732 450.791C682.178 451.072 682.525 451.467 682.772 451.976C683.022 452.484 683.147 453.08 683.147 453.761C683.147 454.437 683.022 455.028 682.772 455.534C682.525 456.04 682.178 456.433 681.732 456.714C681.289 456.996 680.772 457.136 680.181 457.136ZM680.181 456.233C680.63 456.233 680.999 456.118 681.289 455.888C681.579 455.658 681.793 455.355 681.933 454.98C682.072 454.605 682.141 454.199 682.141 453.761C682.141 453.324 682.072 452.916 681.933 452.538C681.793 452.161 681.579 451.855 681.289 451.622C680.999 451.389 680.63 451.273 680.181 451.273C679.732 451.273 679.363 451.389 679.073 451.622C678.783 451.855 678.569 452.161 678.43 452.538C678.29 452.916 678.221 453.324 678.221 453.761C678.221 454.199 678.29 454.605 678.43 454.98C678.569 455.355 678.783 455.658 679.073 455.888C679.363 456.118 679.732 456.233 680.181 456.233ZM688.807 454.324V450.455H689.813V457H688.807V455.892H688.739C688.586 456.224 688.347 456.507 688.023 456.74C687.699 456.97 687.29 457.085 686.796 457.085C686.387 457.085 686.023 456.996 685.705 456.817C685.387 456.635 685.137 456.362 684.955 455.999C684.773 455.632 684.682 455.17 684.682 454.614V450.455H685.688V454.545C685.688 455.023 685.821 455.403 686.088 455.688C686.358 455.972 686.702 456.114 687.12 456.114C687.37 456.114 687.624 456.05 687.882 455.922C688.144 455.794 688.363 455.598 688.539 455.334C688.718 455.07 688.807 454.733 688.807 454.324Z" fill="white"/>
</g>
<g filter="url(#filter4_d_1175_56)">
<path d="M630.977 547.273V556H629.955L625.199 549.148H625.114V556H624.057V547.273H625.08L629.852 554.142H629.938V547.273H630.977ZM635.7 556.136C635.069 556.136 634.525 555.997 634.068 555.719C633.613 555.438 633.262 555.045 633.015 554.543C632.771 554.037 632.649 553.449 632.649 552.778C632.649 552.108 632.771 551.517 633.015 551.006C633.262 550.491 633.606 550.091 634.047 549.804C634.49 549.514 635.007 549.369 635.598 549.369C635.939 549.369 636.275 549.426 636.608 549.54C636.94 549.653 637.243 549.838 637.515 550.094C637.788 550.347 638.005 550.682 638.167 551.099C638.329 551.517 638.41 552.031 638.41 552.642V553.068H633.365V552.199H637.387C637.387 551.83 637.314 551.5 637.166 551.21C637.021 550.92 636.814 550.692 636.544 550.524C636.277 550.357 635.961 550.273 635.598 550.273C635.197 550.273 634.85 550.372 634.558 550.571C634.268 550.767 634.045 551.023 633.889 551.338C633.733 551.653 633.654 551.991 633.654 552.352V552.932C633.654 553.426 633.74 553.845 633.91 554.189C634.083 554.53 634.324 554.79 634.63 554.969C634.937 555.145 635.294 555.233 635.7 555.233C635.964 555.233 636.203 555.196 636.416 555.122C636.632 555.045 636.818 554.932 636.974 554.781C637.13 554.628 637.251 554.437 637.336 554.21L638.308 554.483C638.206 554.812 638.034 555.102 637.792 555.352C637.551 555.599 637.252 555.793 636.897 555.932C636.542 556.068 636.143 556.136 635.7 556.136ZM640.514 549.455L642.082 552.131L643.651 549.455H644.81L642.696 552.727L644.81 556H643.651L642.082 553.46L640.514 556H639.355L641.435 552.727L639.355 549.455H640.514ZM649.091 549.455V550.307H645.699V549.455H649.091ZM646.688 547.886H647.694V554.125C647.694 554.409 647.735 554.622 647.817 554.764C647.902 554.903 648.01 554.997 648.141 555.045C648.275 555.091 648.415 555.114 648.563 555.114C648.674 555.114 648.765 555.108 648.836 555.097C648.907 555.082 648.963 555.071 649.006 555.062L649.211 555.966C649.142 555.991 649.047 556.017 648.925 556.043C648.803 556.071 648.648 556.085 648.461 556.085C648.176 556.085 647.898 556.024 647.625 555.902C647.355 555.78 647.131 555.594 646.952 555.344C646.776 555.094 646.688 554.778 646.688 554.398V547.886ZM654.115 556V547.273H657.064C657.749 547.273 658.309 547.396 658.743 547.643C659.181 547.888 659.505 548.219 659.715 548.636C659.925 549.054 660.03 549.52 660.03 550.034C660.03 550.548 659.925 551.016 659.715 551.436C659.507 551.857 659.186 552.192 658.752 552.442C658.317 552.689 657.76 552.812 657.081 552.812H654.968V551.875H657.047C657.516 551.875 657.892 551.794 658.176 551.632C658.461 551.47 658.667 551.251 658.794 550.976C658.925 550.697 658.99 550.384 658.99 550.034C658.99 549.685 658.925 549.372 658.794 549.097C658.667 548.821 658.459 548.605 658.172 548.449C657.885 548.29 657.505 548.21 657.03 548.21H655.172V556H654.115ZM662.602 547.273V556H661.596V547.273H662.602ZM666.37 556.153C665.955 556.153 665.579 556.075 665.241 555.919C664.903 555.76 664.634 555.531 664.435 555.233C664.237 554.932 664.137 554.568 664.137 554.142C664.137 553.767 664.211 553.463 664.359 553.23C664.506 552.994 664.704 552.81 664.951 552.676C665.198 552.543 665.471 552.443 665.769 552.378C666.07 552.31 666.373 552.256 666.677 552.216C667.075 552.165 667.397 552.126 667.644 552.101C667.894 552.072 668.076 552.026 668.19 551.96C668.306 551.895 668.364 551.781 668.364 551.619V551.585C668.364 551.165 668.249 550.838 668.019 550.605C667.792 550.372 667.447 550.256 666.984 550.256C666.504 550.256 666.127 550.361 665.854 550.571C665.582 550.781 665.39 551.006 665.279 551.244L664.325 550.903C664.495 550.506 664.722 550.196 665.006 549.974C665.293 549.75 665.606 549.594 665.944 549.506C666.285 549.415 666.62 549.369 666.95 549.369C667.16 549.369 667.401 549.395 667.674 549.446C667.95 549.494 668.215 549.595 668.471 549.749C668.729 549.902 668.944 550.134 669.114 550.443C669.285 550.753 669.37 551.168 669.37 551.688V556H668.364V555.114H668.313C668.245 555.256 668.131 555.408 667.972 555.57C667.813 555.732 667.602 555.869 667.337 555.983C667.073 556.097 666.751 556.153 666.37 556.153ZM666.523 555.25C666.921 555.25 667.256 555.172 667.529 555.016C667.805 554.859 668.012 554.658 668.151 554.411C668.293 554.163 668.364 553.903 668.364 553.631V552.71C668.322 552.761 668.228 552.808 668.083 552.851C667.941 552.891 667.776 552.926 667.589 552.957C667.404 552.986 667.224 553.011 667.048 553.034C666.874 553.054 666.734 553.071 666.626 553.085C666.364 553.119 666.12 553.175 665.893 553.251C665.668 553.325 665.487 553.437 665.347 553.588C665.211 553.736 665.143 553.937 665.143 554.193C665.143 554.543 665.272 554.807 665.531 554.986C665.792 555.162 666.123 555.25 666.523 555.25ZM671.619 558.455C671.449 558.455 671.297 558.44 671.163 558.412C671.029 558.386 670.937 558.361 670.886 558.335L671.142 557.449C671.386 557.511 671.602 557.534 671.789 557.517C671.977 557.5 672.143 557.416 672.288 557.266C672.436 557.118 672.571 556.878 672.693 556.545L672.88 556.034L670.46 549.455H671.551L673.358 554.67H673.426L675.233 549.455H676.324L673.545 556.955C673.42 557.293 673.265 557.572 673.081 557.794C672.896 558.018 672.681 558.185 672.437 558.293C672.196 558.401 671.923 558.455 671.619 558.455ZM677.651 556V549.455H678.657V556H677.651ZM678.162 548.364C677.966 548.364 677.797 548.297 677.655 548.163C677.516 548.03 677.446 547.869 677.446 547.682C677.446 547.494 677.516 547.334 677.655 547.2C677.797 547.067 677.966 547 678.162 547C678.358 547 678.526 547.067 678.665 547.2C678.807 547.334 678.878 547.494 678.878 547.682C678.878 547.869 678.807 548.03 678.665 548.163C678.526 548.297 678.358 548.364 678.162 548.364ZM681.504 552.062V556H680.499V549.455H681.47V550.477H681.555C681.709 550.145 681.942 549.878 682.254 549.676C682.567 549.472 682.97 549.369 683.464 549.369C683.908 549.369 684.295 549.46 684.628 549.642C684.96 549.821 685.219 550.094 685.403 550.46C685.588 550.824 685.68 551.284 685.68 551.841V556H684.675V551.909C684.675 551.395 684.541 550.994 684.274 550.707C684.007 550.418 683.641 550.273 683.175 550.273C682.854 550.273 682.567 550.342 682.314 550.482C682.064 550.621 681.866 550.824 681.722 551.091C681.577 551.358 681.504 551.682 681.504 552.062ZM690.16 558.591C689.674 558.591 689.257 558.528 688.907 558.403C688.558 558.281 688.267 558.119 688.034 557.918C687.804 557.719 687.62 557.506 687.484 557.278L688.285 556.716C688.376 556.835 688.491 556.972 688.63 557.125C688.77 557.281 688.96 557.416 689.201 557.53C689.446 557.646 689.765 557.705 690.16 557.705C690.689 557.705 691.125 557.577 691.468 557.321C691.812 557.065 691.984 556.665 691.984 556.119V554.79H691.899C691.825 554.909 691.72 555.057 691.583 555.233C691.45 555.406 691.257 555.561 691.004 555.697C690.754 555.831 690.416 555.898 689.99 555.898C689.461 555.898 688.987 555.773 688.566 555.523C688.149 555.273 687.818 554.909 687.574 554.432C687.332 553.955 687.211 553.375 687.211 552.693C687.211 552.023 687.329 551.439 687.565 550.942C687.801 550.442 688.129 550.055 688.549 549.783C688.97 549.507 689.456 549.369 690.007 549.369C690.433 549.369 690.771 549.44 691.021 549.582C691.274 549.722 691.467 549.881 691.6 550.06C691.737 550.236 691.842 550.381 691.916 550.494H692.018V549.455H692.99V556.188C692.99 556.75 692.862 557.207 692.606 557.56C692.353 557.915 692.012 558.175 691.583 558.339C691.157 558.507 690.683 558.591 690.16 558.591ZM690.126 554.994C690.529 554.994 690.87 554.902 691.149 554.717C691.427 554.533 691.639 554.267 691.784 553.92C691.929 553.574 692.001 553.159 692.001 552.676C692.001 552.205 691.93 551.788 691.788 551.428C691.646 551.067 691.436 550.784 691.157 550.58C690.879 550.375 690.535 550.273 690.126 550.273C689.7 550.273 689.345 550.381 689.061 550.597C688.779 550.812 688.568 551.102 688.426 551.466C688.287 551.83 688.217 552.233 688.217 552.676C688.217 553.131 688.288 553.533 688.43 553.882C688.575 554.229 688.788 554.501 689.069 554.7C689.353 554.896 689.706 554.994 690.126 554.994Z" fill="white"/>
</g>
<g filter="url(#filter5_d_1175_56)">
<path d="M624.057 592V583.273H627.108C627.716 583.273 628.217 583.378 628.612 583.588C629.007 583.795 629.301 584.075 629.494 584.428C629.688 584.777 629.784 585.165 629.784 585.591C629.784 585.966 629.717 586.276 629.584 586.52C629.453 586.764 629.28 586.957 629.064 587.099C628.851 587.241 628.619 587.347 628.369 587.415V587.5C628.636 587.517 628.905 587.611 629.175 587.781C629.445 587.952 629.67 588.196 629.852 588.514C630.034 588.832 630.125 589.222 630.125 589.682C630.125 590.119 630.026 590.513 629.827 590.862C629.628 591.212 629.314 591.489 628.885 591.693C628.456 591.898 627.898 592 627.21 592H624.057ZM625.114 591.062H627.21C627.901 591.062 628.391 590.929 628.68 590.662C628.973 590.392 629.119 590.065 629.119 589.682C629.119 589.386 629.044 589.114 628.893 588.864C628.743 588.611 628.528 588.409 628.25 588.259C627.972 588.105 627.642 588.028 627.261 588.028H625.114V591.062ZM625.114 587.108H627.074C627.392 587.108 627.679 587.045 627.935 586.92C628.193 586.795 628.398 586.619 628.548 586.392C628.702 586.165 628.778 585.898 628.778 585.591C628.778 585.207 628.645 584.882 628.378 584.615C628.111 584.345 627.688 584.21 627.108 584.21H625.114V587.108ZM634.469 592.136C633.839 592.136 633.295 591.997 632.837 591.719C632.383 591.438 632.032 591.045 631.785 590.543C631.54 590.037 631.418 589.449 631.418 588.778C631.418 588.108 631.54 587.517 631.785 587.006C632.032 586.491 632.376 586.091 632.816 585.804C633.259 585.514 633.776 585.369 634.367 585.369C634.708 585.369 635.045 585.426 635.377 585.54C635.71 585.653 636.012 585.838 636.285 586.094C636.558 586.347 636.775 586.682 636.937 587.099C637.099 587.517 637.18 588.031 637.18 588.642V589.068H632.134V588.199H636.157C636.157 587.83 636.083 587.5 635.935 587.21C635.79 586.92 635.583 586.692 635.313 586.524C635.046 586.357 634.731 586.273 634.367 586.273C633.967 586.273 633.62 586.372 633.327 586.571C633.038 586.767 632.815 587.023 632.658 587.338C632.502 587.653 632.424 587.991 632.424 588.352V588.932C632.424 589.426 632.509 589.845 632.68 590.189C632.853 590.53 633.093 590.79 633.4 590.969C633.707 591.145 634.063 591.233 634.469 591.233C634.734 591.233 634.972 591.196 635.185 591.122C635.401 591.045 635.587 590.932 635.744 590.781C635.9 590.628 636.021 590.437 636.106 590.21L637.077 590.483C636.975 590.812 636.803 591.102 636.562 591.352C636.32 591.599 636.022 591.793 635.667 591.932C635.312 592.068 634.913 592.136 634.469 592.136ZM643.346 586.92L642.442 587.176C642.386 587.026 642.302 586.879 642.191 586.737C642.083 586.592 641.935 586.473 641.748 586.379C641.56 586.286 641.32 586.239 641.028 586.239C640.627 586.239 640.293 586.331 640.026 586.516C639.762 586.697 639.63 586.929 639.63 587.21C639.63 587.46 639.721 587.658 639.903 587.803C640.085 587.947 640.369 588.068 640.755 588.165L641.727 588.403C642.312 588.545 642.748 588.763 643.035 589.055C643.322 589.345 643.465 589.719 643.465 590.176C643.465 590.551 643.357 590.886 643.141 591.182C642.928 591.477 642.63 591.71 642.246 591.881C641.863 592.051 641.417 592.136 640.908 592.136C640.241 592.136 639.688 591.991 639.251 591.702C638.813 591.412 638.536 590.989 638.42 590.432L639.374 590.193C639.465 590.545 639.637 590.81 639.89 590.986C640.146 591.162 640.479 591.25 640.891 591.25C641.36 591.25 641.732 591.151 642.008 590.952C642.286 590.75 642.425 590.509 642.425 590.227C642.425 590 642.346 589.81 642.187 589.656C642.028 589.5 641.783 589.384 641.454 589.307L640.363 589.051C639.763 588.909 639.323 588.689 639.042 588.391C638.763 588.089 638.624 587.713 638.624 587.261C638.624 586.892 638.728 586.565 638.935 586.281C639.146 585.997 639.431 585.774 639.792 585.612C640.156 585.45 640.567 585.369 641.028 585.369C641.675 585.369 642.184 585.511 642.553 585.795C642.925 586.08 643.19 586.455 643.346 586.92ZM647.826 585.455V586.307H644.434V585.455H647.826ZM645.422 583.886H646.428V590.125C646.428 590.409 646.469 590.622 646.551 590.764C646.637 590.903 646.745 590.997 646.875 591.045C647.009 591.091 647.15 591.114 647.297 591.114C647.408 591.114 647.499 591.108 647.57 591.097C647.641 591.082 647.698 591.071 647.74 591.062L647.945 591.966C647.877 591.991 647.782 592.017 647.659 592.043C647.537 592.071 647.382 592.085 647.195 592.085C646.911 592.085 646.632 592.024 646.36 591.902C646.09 591.78 645.865 591.594 645.686 591.344C645.51 591.094 645.422 590.778 645.422 590.398V583.886ZM652.85 583.273H654.111L657.077 590.517H657.179L660.145 583.273H661.407V592H660.418V585.369H660.333L657.605 592H656.651L653.924 585.369H653.838V592H652.85V583.273ZM665.315 592.153C664.901 592.153 664.524 592.075 664.186 591.919C663.848 591.76 663.58 591.531 663.381 591.233C663.182 590.932 663.082 590.568 663.082 590.142C663.082 589.767 663.156 589.463 663.304 589.23C663.452 588.994 663.649 588.81 663.896 588.676C664.143 588.543 664.416 588.443 664.714 588.378C665.016 588.31 665.318 588.256 665.622 588.216C666.02 588.165 666.342 588.126 666.589 588.101C666.839 588.072 667.021 588.026 667.135 587.96C667.251 587.895 667.31 587.781 667.31 587.619V587.585C667.31 587.165 667.195 586.838 666.964 586.605C666.737 586.372 666.392 586.256 665.929 586.256C665.449 586.256 665.072 586.361 664.8 586.571C664.527 586.781 664.335 587.006 664.224 587.244L663.27 586.903C663.44 586.506 663.668 586.196 663.952 585.974C664.239 585.75 664.551 585.594 664.889 585.506C665.23 585.415 665.565 585.369 665.895 585.369C666.105 585.369 666.347 585.395 666.619 585.446C666.895 585.494 667.161 585.595 667.416 585.749C667.675 585.902 667.889 586.134 668.06 586.443C668.23 586.753 668.315 587.168 668.315 587.688V592H667.31V591.114H667.259C667.19 591.256 667.077 591.408 666.918 591.57C666.759 591.732 666.547 591.869 666.283 591.983C666.018 592.097 665.696 592.153 665.315 592.153ZM665.469 591.25C665.866 591.25 666.202 591.172 666.474 591.016C666.75 590.859 666.957 590.658 667.097 590.411C667.239 590.163 667.31 589.903 667.31 589.631V588.71C667.267 588.761 667.173 588.808 667.028 588.851C666.886 588.891 666.722 588.926 666.534 588.957C666.349 588.986 666.169 589.011 665.993 589.034C665.82 589.054 665.679 589.071 665.571 589.085C665.31 589.119 665.065 589.175 664.838 589.251C664.614 589.325 664.432 589.437 664.293 589.588C664.156 589.736 664.088 589.937 664.088 590.193C664.088 590.543 664.217 590.807 664.476 590.986C664.737 591.162 665.068 591.25 665.469 591.25ZM672.998 585.455V586.307H669.605V585.455H672.998ZM670.594 583.886H671.6V590.125C671.6 590.409 671.641 590.622 671.723 590.764C671.809 590.903 671.917 590.997 672.047 591.045C672.181 591.091 672.321 591.114 672.469 591.114C672.58 591.114 672.671 591.108 672.742 591.097C672.813 591.082 672.87 591.071 672.912 591.062L673.117 591.966C673.049 591.991 672.953 592.017 672.831 592.043C672.709 592.071 672.554 592.085 672.367 592.085C672.083 592.085 671.804 592.024 671.532 591.902C671.262 591.78 671.037 591.594 670.858 591.344C670.682 591.094 670.594 590.778 670.594 590.398V583.886ZM677.099 592.136C676.485 592.136 675.957 591.991 675.514 591.702C675.071 591.412 674.73 591.013 674.491 590.504C674.252 589.996 674.133 589.415 674.133 588.761C674.133 588.097 674.255 587.51 674.5 587.001C674.747 586.49 675.091 586.091 675.531 585.804C675.974 585.514 676.491 585.369 677.082 585.369C677.542 585.369 677.957 585.455 678.326 585.625C678.696 585.795 678.998 586.034 679.234 586.341C679.47 586.648 679.616 587.006 679.673 587.415H678.667C678.591 587.116 678.42 586.852 678.156 586.622C677.895 586.389 677.542 586.273 677.099 586.273C676.707 586.273 676.363 586.375 676.068 586.58C675.775 586.781 675.547 587.067 675.382 587.436C675.22 587.803 675.139 588.233 675.139 588.727C675.139 589.233 675.218 589.673 675.377 590.048C675.539 590.423 675.767 590.714 676.059 590.922C676.355 591.129 676.701 591.233 677.099 591.233C677.36 591.233 677.598 591.188 677.811 591.097C678.024 591.006 678.204 590.875 678.352 590.705C678.5 590.534 678.605 590.33 678.667 590.091H679.673C679.616 590.477 679.475 590.825 679.251 591.135C679.029 591.442 678.735 591.686 678.369 591.868C678.005 592.047 677.582 592.136 677.099 592.136ZM682.149 588.062V592H681.143V583.273H682.149V586.477H682.234C682.387 586.139 682.618 585.871 682.924 585.672C683.234 585.47 683.646 585.369 684.16 585.369C684.606 585.369 684.997 585.459 685.332 585.638C685.667 585.814 685.927 586.085 686.112 586.452C686.299 586.815 686.393 587.278 686.393 587.841V592H685.387V587.909C685.387 587.389 685.252 586.987 684.983 586.703C684.716 586.416 684.345 586.273 683.87 586.273C683.541 586.273 683.245 586.342 682.984 586.482C682.725 586.621 682.521 586.824 682.37 587.091C682.223 587.358 682.149 587.682 682.149 588.062Z" fill="white"/>
</g>
<g filter="url(#filter6_d_1175_56)">
<path d="M631.42 618.636C631.42 619.557 631.254 620.352 630.922 621.023C630.589 621.693 630.134 622.21 629.554 622.574C628.974 622.938 628.313 623.119 627.568 623.119C626.824 623.119 626.162 622.938 625.582 622.574C625.003 622.21 624.547 621.693 624.214 621.023C623.882 620.352 623.716 619.557 623.716 618.636C623.716 617.716 623.882 616.92 624.214 616.25C624.547 615.58 625.003 615.062 625.582 614.699C626.162 614.335 626.824 614.153 627.568 614.153C628.313 614.153 628.974 614.335 629.554 614.699C630.134 615.062 630.589 615.58 630.922 616.25C631.254 616.92 631.42 617.716 631.42 618.636ZM630.398 618.636C630.398 617.881 630.271 617.243 630.018 616.723C629.768 616.203 629.429 615.81 629 615.543C628.574 615.276 628.097 615.142 627.568 615.142C627.04 615.142 626.561 615.276 626.132 615.543C625.706 615.81 625.366 616.203 625.114 616.723C624.864 617.243 624.739 617.881 624.739 618.636C624.739 619.392 624.864 620.03 625.114 620.55C625.366 621.07 625.706 621.463 626.132 621.73C626.561 621.997 627.04 622.131 627.568 622.131C628.097 622.131 628.574 621.997 629 621.73C629.429 621.463 629.768 621.07 630.018 620.55C630.271 620.03 630.398 619.392 630.398 618.636ZM637.186 620.324V616.455H638.192V623H637.186V621.892H637.118C636.964 622.224 636.726 622.507 636.402 622.74C636.078 622.97 635.669 623.085 635.175 623.085C634.766 623.085 634.402 622.996 634.084 622.817C633.766 622.635 633.516 622.362 633.334 621.999C633.152 621.632 633.061 621.17 633.061 620.614V616.455H634.067V620.545C634.067 621.023 634.2 621.403 634.467 621.688C634.737 621.972 635.081 622.114 635.499 622.114C635.749 622.114 636.003 622.05 636.261 621.922C636.523 621.794 636.741 621.598 636.918 621.334C637.097 621.07 637.186 620.733 637.186 620.324ZM640.034 623V616.455H641.005V617.443H641.074C641.193 617.119 641.409 616.857 641.721 616.655C642.034 616.453 642.386 616.352 642.778 616.352C642.852 616.352 642.944 616.354 643.055 616.357C643.166 616.359 643.25 616.364 643.306 616.369V617.392C643.272 617.384 643.194 617.371 643.072 617.354C642.953 617.334 642.826 617.324 642.693 617.324C642.375 617.324 642.091 617.391 641.841 617.524C641.593 617.655 641.397 617.837 641.252 618.07C641.11 618.3 641.039 618.562 641.039 618.858V623H640.034ZM652.783 616.455C652.732 616.023 652.524 615.688 652.161 615.449C651.797 615.21 651.351 615.091 650.822 615.091C650.436 615.091 650.098 615.153 649.808 615.278C649.521 615.403 649.297 615.575 649.135 615.794C648.976 616.013 648.896 616.261 648.896 616.54C648.896 616.773 648.952 616.973 649.062 617.141C649.176 617.305 649.321 617.443 649.497 617.554C649.673 617.662 649.858 617.751 650.051 617.822C650.244 617.891 650.422 617.946 650.584 617.989L651.47 618.227C651.697 618.287 651.95 618.369 652.229 618.474C652.51 618.58 652.778 618.723 653.034 618.905C653.293 619.084 653.506 619.314 653.673 619.595C653.841 619.876 653.925 620.222 653.925 620.631C653.925 621.102 653.801 621.528 653.554 621.909C653.31 622.29 652.952 622.592 652.48 622.817C652.011 623.041 651.442 623.153 650.771 623.153C650.146 623.153 649.605 623.053 649.148 622.851C648.693 622.649 648.335 622.368 648.074 622.007C647.815 621.646 647.669 621.227 647.635 620.75H648.726C648.754 621.08 648.865 621.352 649.058 621.568C649.254 621.781 649.501 621.94 649.8 622.045C650.101 622.148 650.425 622.199 650.771 622.199C651.175 622.199 651.537 622.134 651.858 622.003C652.179 621.869 652.433 621.685 652.621 621.449C652.808 621.21 652.902 620.932 652.902 620.614C652.902 620.324 652.821 620.088 652.659 619.906C652.497 619.724 652.284 619.577 652.02 619.463C651.756 619.349 651.47 619.25 651.163 619.165L650.089 618.858C649.408 618.662 648.868 618.382 648.47 618.018C648.072 617.655 647.874 617.179 647.874 616.591C647.874 616.102 648.006 615.676 648.27 615.312C648.537 614.946 648.895 614.662 649.344 614.46C649.795 614.256 650.3 614.153 650.857 614.153C651.419 614.153 651.919 614.254 652.357 614.456C652.794 614.655 653.141 614.928 653.396 615.274C653.655 615.621 653.791 616.014 653.805 616.455H652.783ZM659.651 620.324V616.455H660.657V623H659.651V621.892H659.583C659.429 622.224 659.191 622.507 658.867 622.74C658.543 622.97 658.134 623.085 657.64 623.085C657.23 623.085 656.867 622.996 656.549 622.817C656.23 622.635 655.98 622.362 655.799 621.999C655.617 621.632 655.526 621.17 655.526 620.614V616.455H656.532V620.545C656.532 621.023 656.665 621.403 656.932 621.688C657.202 621.972 657.546 622.114 657.963 622.114C658.213 622.114 658.468 622.05 658.726 621.922C658.988 621.794 659.206 621.598 659.382 621.334C659.561 621.07 659.651 620.733 659.651 620.324ZM665.141 625.591C664.655 625.591 664.237 625.528 663.888 625.403C663.538 625.281 663.247 625.119 663.014 624.918C662.784 624.719 662.601 624.506 662.464 624.278L663.266 623.716C663.357 623.835 663.472 623.972 663.611 624.125C663.75 624.281 663.94 624.416 664.182 624.53C664.426 624.646 664.746 624.705 665.141 624.705C665.669 624.705 666.105 624.577 666.449 624.321C666.793 624.065 666.964 623.665 666.964 623.119V621.79H666.879C666.805 621.909 666.7 622.057 666.564 622.233C666.43 622.406 666.237 622.561 665.984 622.697C665.734 622.831 665.396 622.898 664.97 622.898C664.442 622.898 663.967 622.773 663.547 622.523C663.129 622.273 662.798 621.909 662.554 621.432C662.313 620.955 662.192 620.375 662.192 619.693C662.192 619.023 662.31 618.439 662.545 617.942C662.781 617.442 663.109 617.055 663.53 616.783C663.95 616.507 664.436 616.369 664.987 616.369C665.413 616.369 665.751 616.44 666.001 616.582C666.254 616.722 666.447 616.881 666.581 617.06C666.717 617.236 666.822 617.381 666.896 617.494H666.999V616.455H667.97V623.188C667.97 623.75 667.842 624.207 667.587 624.56C667.334 624.915 666.993 625.175 666.564 625.339C666.138 625.507 665.663 625.591 665.141 625.591ZM665.107 621.994C665.51 621.994 665.851 621.902 666.129 621.717C666.408 621.533 666.619 621.267 666.764 620.92C666.909 620.574 666.982 620.159 666.982 619.676C666.982 619.205 666.911 618.788 666.768 618.428C666.626 618.067 666.416 617.784 666.138 617.58C665.859 617.375 665.516 617.273 665.107 617.273C664.68 617.273 664.325 617.381 664.041 617.597C663.76 617.812 663.548 618.102 663.406 618.466C663.267 618.83 663.197 619.233 663.197 619.676C663.197 620.131 663.268 620.533 663.411 620.882C663.555 621.229 663.768 621.501 664.05 621.7C664.334 621.896 664.686 621.994 665.107 621.994ZM672.453 625.591C671.967 625.591 671.55 625.528 671.2 625.403C670.851 625.281 670.56 625.119 670.327 624.918C670.097 624.719 669.913 624.506 669.777 624.278L670.578 623.716C670.669 623.835 670.784 623.972 670.923 624.125C671.063 624.281 671.253 624.416 671.494 624.53C671.739 624.646 672.058 624.705 672.453 624.705C672.982 624.705 673.418 624.577 673.761 624.321C674.105 624.065 674.277 623.665 674.277 623.119V621.79H674.192C674.118 621.909 674.013 622.057 673.876 622.233C673.743 622.406 673.55 622.561 673.297 622.697C673.047 622.831 672.709 622.898 672.283 622.898C671.754 622.898 671.28 622.773 670.859 622.523C670.442 622.273 670.111 621.909 669.866 621.432C669.625 620.955 669.504 620.375 669.504 619.693C669.504 619.023 669.622 618.439 669.858 617.942C670.094 617.442 670.422 617.055 670.842 616.783C671.263 616.507 671.749 616.369 672.3 616.369C672.726 616.369 673.064 616.44 673.314 616.582C673.567 616.722 673.76 616.881 673.893 617.06C674.03 617.236 674.135 617.381 674.209 617.494H674.311V616.455H675.283V623.188C675.283 623.75 675.155 624.207 674.899 624.56C674.646 624.915 674.305 625.175 673.876 625.339C673.45 625.507 672.976 625.591 672.453 625.591ZM672.419 621.994C672.822 621.994 673.163 621.902 673.442 621.717C673.72 621.533 673.932 621.267 674.077 620.92C674.222 620.574 674.294 620.159 674.294 619.676C674.294 619.205 674.223 618.788 674.081 618.428C673.939 618.067 673.729 617.784 673.45 617.58C673.172 617.375 672.828 617.273 672.419 617.273C671.993 617.273 671.638 617.381 671.354 617.597C671.072 617.812 670.861 618.102 670.719 618.466C670.58 618.83 670.51 619.233 670.51 619.676C670.51 620.131 670.581 620.533 670.723 620.882C670.868 621.229 671.081 621.501 671.362 621.7C671.646 621.896 671.999 621.994 672.419 621.994ZM679.868 623.136C679.237 623.136 678.693 622.997 678.236 622.719C677.781 622.438 677.43 622.045 677.183 621.543C676.939 621.037 676.817 620.449 676.817 619.778C676.817 619.108 676.939 618.517 677.183 618.006C677.43 617.491 677.774 617.091 678.214 616.804C678.658 616.514 679.175 616.369 679.766 616.369C680.107 616.369 680.443 616.426 680.776 616.54C681.108 616.653 681.411 616.838 681.683 617.094C681.956 617.347 682.173 617.682 682.335 618.099C682.497 618.517 682.578 619.031 682.578 619.642V620.068H677.533V619.199H681.555C681.555 618.83 681.482 618.5 681.334 618.21C681.189 617.92 680.982 617.692 680.712 617.524C680.445 617.357 680.129 617.273 679.766 617.273C679.365 617.273 679.018 617.372 678.726 617.571C678.436 617.767 678.213 618.023 678.057 618.338C677.901 618.653 677.822 618.991 677.822 619.352V619.932C677.822 620.426 677.908 620.845 678.078 621.189C678.251 621.53 678.491 621.79 678.798 621.969C679.105 622.145 679.462 622.233 679.868 622.233C680.132 622.233 680.371 622.196 680.584 622.122C680.8 622.045 680.986 621.932 681.142 621.781C681.298 621.628 681.419 621.437 681.504 621.21L682.476 621.483C682.374 621.812 682.202 622.102 681.96 622.352C681.719 622.599 681.42 622.793 681.065 622.932C680.71 623.068 680.311 623.136 679.868 623.136ZM688.744 617.92L687.841 618.176C687.784 618.026 687.7 617.879 687.589 617.737C687.482 617.592 687.334 617.473 687.146 617.379C686.959 617.286 686.719 617.239 686.426 617.239C686.026 617.239 685.692 617.331 685.425 617.516C685.161 617.697 685.028 617.929 685.028 618.21C685.028 618.46 685.119 618.658 685.301 618.803C685.483 618.947 685.767 619.068 686.153 619.165L687.125 619.403C687.71 619.545 688.146 619.763 688.433 620.055C688.72 620.345 688.864 620.719 688.864 621.176C688.864 621.551 688.756 621.886 688.54 622.182C688.327 622.477 688.028 622.71 687.645 622.881C687.261 623.051 686.815 623.136 686.307 623.136C685.639 623.136 685.087 622.991 684.649 622.702C684.212 622.412 683.935 621.989 683.818 621.432L684.773 621.193C684.864 621.545 685.036 621.81 685.288 621.986C685.544 622.162 685.878 622.25 686.29 622.25C686.759 622.25 687.131 622.151 687.406 621.952C687.685 621.75 687.824 621.509 687.824 621.227C687.824 621 687.744 620.81 687.585 620.656C687.426 620.5 687.182 620.384 686.852 620.307L685.761 620.051C685.162 619.909 684.722 619.689 684.44 619.391C684.162 619.089 684.023 618.713 684.023 618.261C684.023 617.892 684.126 617.565 684.334 617.281C684.544 616.997 684.83 616.774 685.19 616.612C685.554 616.45 685.966 616.369 686.426 616.369C687.074 616.369 687.582 616.511 687.952 616.795C688.324 617.08 688.588 617.455 688.744 617.92ZM693.224 616.455V617.307H689.832V616.455H693.224ZM690.821 614.886H691.826V621.125C691.826 621.409 691.868 621.622 691.95 621.764C692.035 621.903 692.143 621.997 692.274 622.045C692.407 622.091 692.548 622.114 692.696 622.114C692.806 622.114 692.897 622.108 692.968 622.097C693.039 622.082 693.096 622.071 693.139 622.062L693.343 622.966C693.275 622.991 693.18 623.017 693.058 623.043C692.936 623.071 692.781 623.085 692.593 623.085C692.309 623.085 692.031 623.024 691.758 622.902C691.488 622.78 691.264 622.594 691.085 622.344C690.909 622.094 690.821 621.778 690.821 621.398V614.886ZM694.737 623V616.455H695.743V623H694.737ZM695.248 615.364C695.052 615.364 694.883 615.297 694.741 615.163C694.602 615.03 694.532 614.869 694.532 614.682C694.532 614.494 694.602 614.334 694.741 614.2C694.883 614.067 695.052 614 695.248 614C695.444 614 695.612 614.067 695.751 614.2C695.893 614.334 695.964 614.494 695.964 614.682C695.964 614.869 695.893 615.03 695.751 615.163C695.612 615.297 695.444 615.364 695.248 615.364ZM700.244 623.136C699.653 623.136 699.134 622.996 698.688 622.714C698.245 622.433 697.898 622.04 697.648 621.534C697.401 621.028 697.278 620.437 697.278 619.761C697.278 619.08 697.401 618.484 697.648 617.976C697.898 617.467 698.245 617.072 698.688 616.791C699.134 616.51 699.653 616.369 700.244 616.369C700.835 616.369 701.352 616.51 701.795 616.791C702.241 617.072 702.587 617.467 702.835 617.976C703.085 618.484 703.21 619.08 703.21 619.761C703.21 620.437 703.085 621.028 702.835 621.534C702.587 622.04 702.241 622.433 701.795 622.714C701.352 622.996 700.835 623.136 700.244 623.136ZM700.244 622.233C700.692 622.233 701.062 622.118 701.352 621.888C701.641 621.658 701.856 621.355 701.995 620.98C702.134 620.605 702.204 620.199 702.204 619.761C702.204 619.324 702.134 618.916 701.995 618.538C701.856 618.161 701.641 617.855 701.352 617.622C701.062 617.389 700.692 617.273 700.244 617.273C699.795 617.273 699.425 617.389 699.136 617.622C698.846 617.855 698.631 618.161 698.492 618.538C698.353 618.916 698.283 619.324 698.283 619.761C698.283 620.199 698.353 620.605 698.492 620.98C698.631 621.355 698.846 621.658 699.136 621.888C699.425 622.118 699.795 622.233 700.244 622.233ZM705.75 619.062V623H704.745V616.455H705.716V617.477H705.801C705.955 617.145 706.188 616.878 706.5 616.676C706.813 616.472 707.216 616.369 707.711 616.369C708.154 616.369 708.542 616.46 708.874 616.642C709.206 616.821 709.465 617.094 709.65 617.46C709.834 617.824 709.926 618.284 709.926 618.841V623H708.921V618.909C708.921 618.395 708.787 617.994 708.52 617.707C708.253 617.418 707.887 617.273 707.421 617.273C707.1 617.273 706.813 617.342 706.56 617.482C706.31 617.621 706.113 617.824 705.968 618.091C705.823 618.358 705.75 618.682 705.75 619.062ZM716.401 617.92L715.497 618.176C715.44 618.026 715.357 617.879 715.246 617.737C715.138 617.592 714.99 617.473 714.803 617.379C714.615 617.286 714.375 617.239 714.082 617.239C713.682 617.239 713.348 617.331 713.081 617.516C712.817 617.697 712.685 617.929 712.685 618.21C712.685 618.46 712.776 618.658 712.957 618.803C713.139 618.947 713.423 619.068 713.81 619.165L714.781 619.403C715.366 619.545 715.803 619.763 716.089 620.055C716.376 620.345 716.52 620.719 716.52 621.176C716.52 621.551 716.412 621.886 716.196 622.182C715.983 622.477 715.685 622.71 715.301 622.881C714.918 623.051 714.472 623.136 713.963 623.136C713.295 623.136 712.743 622.991 712.305 622.702C711.868 622.412 711.591 621.989 711.474 621.432L712.429 621.193C712.52 621.545 712.692 621.81 712.945 621.986C713.2 622.162 713.534 622.25 713.946 622.25C714.415 622.25 714.787 622.151 715.062 621.952C715.341 621.75 715.48 621.509 715.48 621.227C715.48 621 715.401 620.81 715.241 620.656C715.082 620.5 714.838 620.384 714.509 620.307L713.418 620.051C712.818 619.909 712.378 619.689 712.097 619.391C711.818 619.089 711.679 618.713 711.679 618.261C711.679 617.892 711.783 617.565 711.99 617.281C712.2 616.997 712.486 616.774 712.847 616.612C713.21 616.45 713.622 616.369 714.082 616.369C714.73 616.369 715.239 616.511 715.608 616.795C715.98 617.08 716.244 617.455 716.401 617.92Z" fill="white"/>
</g>
<path d="M608.091 361.727H610.545L618.989 382H619.193L627.636 361.727H630.091V385H628.091V366.216H627.909L620.057 385H618.125L610.273 366.216H610.091V385H608.091V361.727ZM637.267 391.545C636.866 391.545 636.491 391.508 636.142 391.432C635.794 391.356 635.517 391.273 635.312 391.182L635.858 389.398C636.547 389.61 637.161 389.686 637.699 389.625C638.237 389.572 638.714 389.33 639.131 388.898C639.547 388.473 639.919 387.822 640.244 386.943L640.881 385.17L634.46 367.545H636.653L641.835 382.33H641.994L647.176 367.545H649.369L641.983 387.761C641.672 388.602 641.29 389.303 640.835 389.864C640.381 390.432 639.854 390.852 639.256 391.125C638.665 391.405 638.002 391.545 637.267 391.545ZM662.747 385V361.727H676.213V363.636H664.872V372.398H675.156V374.307H664.872V385H662.747ZM685.952 385.398C684.899 385.398 683.937 385.193 683.065 384.784C682.194 384.367 681.501 383.769 680.986 382.989C680.471 382.201 680.213 381.246 680.213 380.125C680.213 379.261 680.376 378.534 680.702 377.943C681.027 377.352 681.49 376.867 682.088 376.489C682.687 376.11 683.395 375.811 684.213 375.591C685.031 375.371 685.933 375.201 686.918 375.08C687.895 374.958 688.721 374.852 689.395 374.761C690.077 374.67 690.596 374.527 690.952 374.33C691.308 374.133 691.486 373.814 691.486 373.375V372.966C691.486 371.777 691.13 370.841 690.418 370.159C689.713 369.47 688.698 369.125 687.372 369.125C686.115 369.125 685.088 369.402 684.293 369.955C683.505 370.508 682.952 371.159 682.634 371.909L680.713 371.216C681.107 370.261 681.652 369.5 682.349 368.932C683.046 368.356 683.827 367.943 684.69 367.693C685.554 367.436 686.429 367.307 687.315 367.307C687.982 367.307 688.675 367.394 689.395 367.568C690.122 367.742 690.796 368.045 691.418 368.477C692.039 368.902 692.543 369.496 692.929 370.261C693.315 371.019 693.509 371.981 693.509 373.148V385H691.486V382.239H691.361C691.118 382.754 690.759 383.254 690.281 383.739C689.804 384.223 689.205 384.621 688.486 384.932C687.766 385.242 686.921 385.398 685.952 385.398ZM686.224 383.545C687.3 383.545 688.232 383.307 689.02 382.83C689.808 382.352 690.414 381.72 690.838 380.932C691.27 380.136 691.486 379.261 691.486 378.307V375.784C691.334 375.928 691.08 376.057 690.724 376.17C690.376 376.284 689.971 376.386 689.509 376.477C689.054 376.561 688.599 376.633 688.145 376.693C687.69 376.754 687.281 376.807 686.918 376.852C685.933 376.973 685.092 377.163 684.395 377.42C683.698 377.678 683.164 378.034 682.793 378.489C682.421 378.936 682.236 379.511 682.236 380.216C682.236 381.277 682.615 382.098 683.372 382.682C684.13 383.258 685.08 383.545 686.224 383.545ZM711.776 367.545L705.401 385H703.241L696.866 367.545H699.06L704.241 382.33H704.401L709.582 367.545H711.776ZM721.892 385.364C720.384 385.364 719.051 384.981 717.892 384.216C716.741 383.451 715.839 382.394 715.188 381.045C714.536 379.689 714.21 378.125 714.21 376.352C714.21 374.564 714.536 372.992 715.188 371.636C715.839 370.273 716.741 369.212 717.892 368.455C719.051 367.689 720.384 367.307 721.892 367.307C723.4 367.307 724.729 367.689 725.881 368.455C727.032 369.22 727.934 370.28 728.585 371.636C729.244 372.992 729.574 374.564 729.574 376.352C729.574 378.125 729.248 379.689 728.597 381.045C727.945 382.394 727.04 383.451 725.881 384.216C724.729 384.981 723.4 385.364 721.892 385.364ZM721.892 383.511C723.104 383.511 724.131 383.186 724.972 382.534C725.813 381.883 726.449 381.015 726.881 379.932C727.32 378.848 727.54 377.655 727.54 376.352C727.54 375.049 727.32 373.852 726.881 372.761C726.449 371.67 725.813 370.795 724.972 370.136C724.131 369.477 723.104 369.148 721.892 369.148C720.688 369.148 719.661 369.477 718.812 370.136C717.972 370.795 717.331 371.67 716.892 372.761C716.46 373.852 716.244 375.049 716.244 376.352C716.244 377.655 716.46 378.848 716.892 379.932C717.331 381.015 717.972 381.883 718.812 382.534C719.653 383.186 720.68 383.511 721.892 383.511ZM734.014 385V367.545H735.98V370.227H736.128C736.476 369.348 737.082 368.64 737.946 368.102C738.817 367.557 739.802 367.284 740.901 367.284C741.067 367.284 741.253 367.288 741.457 367.295C741.662 367.303 741.832 367.311 741.969 367.318V369.375C741.878 369.36 741.719 369.337 741.491 369.307C741.264 369.277 741.018 369.261 740.753 369.261C739.844 369.261 739.033 369.455 738.321 369.841C737.616 370.22 737.06 370.746 736.651 371.42C736.241 372.095 736.037 372.864 736.037 373.727V385H734.014ZM745.443 385V367.545H747.477V385H745.443ZM746.477 364.545C746.061 364.545 745.705 364.405 745.409 364.125C745.114 363.837 744.966 363.492 744.966 363.091C744.966 362.689 745.114 362.348 745.409 362.068C745.705 361.78 746.061 361.636 746.477 361.636C746.894 361.636 747.25 361.78 747.545 362.068C747.841 362.348 747.989 362.689 747.989 363.091C747.989 363.492 747.841 363.837 747.545 364.125C747.25 364.405 746.894 364.545 746.477 364.545ZM759.702 367.545V369.307H751.372V367.545H759.702ZM753.974 363.364H756.009V380.443C756.009 381.17 756.134 381.742 756.384 382.159C756.634 382.568 756.959 382.86 757.361 383.034C757.762 383.201 758.19 383.284 758.645 383.284C758.91 383.284 759.137 383.269 759.327 383.239C759.516 383.201 759.683 383.163 759.827 383.125L760.259 384.955C760.062 385.03 759.819 385.098 759.531 385.159C759.243 385.227 758.887 385.261 758.463 385.261C757.721 385.261 757.005 385.098 756.315 384.773C755.634 384.447 755.073 383.962 754.634 383.318C754.194 382.674 753.974 381.875 753.974 380.92V363.364ZM771.165 385.364C769.536 385.364 768.127 384.985 766.938 384.227C765.748 383.462 764.828 382.405 764.176 381.057C763.532 379.701 763.21 378.14 763.21 376.375C763.21 374.617 763.532 373.057 764.176 371.693C764.828 370.322 765.725 369.25 766.869 368.477C768.021 367.697 769.35 367.307 770.858 367.307C771.805 367.307 772.718 367.481 773.597 367.83C774.475 368.17 775.263 368.697 775.96 369.409C776.665 370.114 777.222 371.004 777.631 372.08C778.04 373.148 778.244 374.413 778.244 375.875V376.875H764.608V375.091H776.176C776.176 373.97 775.949 372.962 775.494 372.068C775.047 371.167 774.422 370.455 773.619 369.932C772.824 369.409 771.903 369.148 770.858 369.148C769.752 369.148 768.778 369.443 767.938 370.034C767.097 370.625 766.438 371.405 765.96 372.375C765.491 373.345 765.252 374.405 765.244 375.557V376.625C765.244 378.011 765.483 379.223 765.96 380.261C766.445 381.292 767.131 382.091 768.017 382.659C768.903 383.227 769.953 383.511 771.165 383.511C771.991 383.511 772.714 383.383 773.335 383.125C773.964 382.867 774.491 382.523 774.915 382.091C775.347 381.652 775.672 381.17 775.892 380.648L777.812 381.273C777.547 382.008 777.112 382.686 776.506 383.307C775.907 383.928 775.157 384.428 774.256 384.807C773.362 385.178 772.331 385.364 771.165 385.364Z" fill="white"/>
<path d="M845.805 502.119C845.268 502.119 844.788 502.023 844.365 501.83C843.942 501.634 843.607 501.362 843.359 501.016C843.112 500.669 842.982 500.27 842.967 499.818H843.773C843.787 500.136 843.885 500.415 844.067 500.653C844.249 500.889 844.49 501.074 844.791 501.207C845.092 501.338 845.428 501.403 845.797 501.403C846.2 501.403 846.555 501.328 846.862 501.178C847.172 501.027 847.413 500.821 847.587 500.56C847.763 500.295 847.851 499.997 847.851 499.665C847.851 499.312 847.761 499.001 847.582 498.732C847.403 498.462 847.146 498.251 846.811 498.101C846.479 497.95 846.081 497.875 845.618 497.875H845.107V497.159H845.618C845.996 497.159 846.33 497.091 846.619 496.955C846.912 496.815 847.142 496.621 847.31 496.371C847.477 496.121 847.561 495.827 847.561 495.489C847.561 495.168 847.489 494.885 847.344 494.641C847.199 494.396 846.994 494.205 846.73 494.065C846.469 493.926 846.163 493.857 845.814 493.857C845.476 493.857 845.166 493.922 844.885 494.053C844.604 494.183 844.376 494.368 844.203 494.607C844.033 494.845 843.942 495.128 843.93 495.455H843.159C843.17 495 843.295 494.601 843.534 494.257C843.776 493.911 844.095 493.641 844.493 493.447C844.893 493.251 845.337 493.153 845.822 493.153C846.337 493.153 846.781 493.259 847.156 493.469C847.531 493.679 847.821 493.959 848.026 494.308C848.233 494.655 848.337 495.037 848.337 495.455C848.337 495.952 848.202 496.378 847.932 496.733C847.662 497.085 847.298 497.33 846.841 497.466V497.521C847.398 497.632 847.835 497.879 848.153 498.263C848.474 498.643 848.635 499.111 848.635 499.665C848.635 500.131 848.513 500.55 848.268 500.922C848.024 501.291 847.689 501.584 847.263 501.8C846.839 502.013 846.354 502.119 845.805 502.119ZM853.382 492.864L850.57 503.312H849.858L852.67 492.864H853.382ZM857.415 502.119C857.055 502.116 856.702 502.044 856.359 501.902C856.015 501.757 855.705 501.526 855.43 501.207C855.154 500.886 854.935 500.463 854.773 499.938C854.612 499.412 854.531 498.766 854.531 497.999C854.531 497.288 854.593 496.638 854.718 496.047C854.843 495.456 855.031 494.945 855.281 494.513C855.531 494.081 855.843 493.747 856.218 493.511C856.593 493.273 857.032 493.153 857.535 493.153C858.006 493.153 858.423 493.251 858.783 493.447C859.144 493.641 859.437 493.911 859.661 494.257C859.886 494.604 860.026 495.003 860.083 495.455H859.299C859.219 494.994 859.031 494.615 858.732 494.317C858.434 494.018 858.035 493.869 857.535 493.869C856.819 493.869 856.265 494.202 855.873 494.866C855.481 495.528 855.283 496.469 855.281 497.688H855.336C855.475 497.429 855.654 497.206 855.873 497.018C856.094 496.828 856.346 496.68 856.627 496.575C856.908 496.467 857.204 496.413 857.513 496.413C857.999 496.413 858.444 496.537 858.847 496.784C859.251 497.028 859.573 497.365 859.815 497.794C860.056 498.22 860.177 498.707 860.177 499.256C860.177 499.776 860.062 500.254 859.832 500.692C859.604 501.129 859.283 501.477 858.869 501.736C858.457 501.994 857.972 502.122 857.415 502.119ZM857.415 501.403C857.796 501.403 858.136 501.307 858.434 501.114C858.735 500.92 858.972 500.662 859.146 500.338C859.319 500.011 859.406 499.651 859.406 499.256C859.406 498.861 859.319 498.503 859.146 498.182C858.972 497.861 858.735 497.605 858.434 497.415C858.136 497.224 857.796 497.129 857.415 497.129C857.126 497.129 856.856 497.189 856.606 497.308C856.356 497.425 856.138 497.585 855.954 497.79C855.772 497.991 855.633 498.223 855.536 498.484C855.442 498.746 855.407 499.02 855.43 499.307C855.461 499.707 855.565 500.067 855.741 500.385C855.92 500.7 856.153 500.949 856.44 501.131C856.729 501.312 857.055 501.403 857.415 501.403Z" fill="white"/>
<path d="M842.972 452V451.416L845.822 448.212C846.195 447.791 846.494 447.432 846.722 447.134C846.949 446.835 847.114 446.56 847.216 446.307C847.321 446.054 847.374 445.791 847.374 445.518C847.374 445.186 847.295 444.896 847.139 444.649C846.986 444.399 846.774 444.205 846.504 444.065C846.234 443.926 845.93 443.857 845.592 443.857C845.234 443.857 844.92 443.933 844.651 444.087C844.384 444.24 844.176 444.45 844.028 444.717C843.881 444.984 843.807 445.291 843.807 445.638H843.044C843.044 445.155 843.155 444.727 843.376 444.355C843.601 443.98 843.906 443.686 844.293 443.473C844.682 443.26 845.122 443.153 845.614 443.153C846.099 443.153 846.531 443.259 846.909 443.469C847.287 443.676 847.584 443.959 847.8 444.317C848.016 444.675 848.124 445.075 848.124 445.518C848.124 445.839 848.067 446.151 847.953 446.452C847.842 446.753 847.651 447.088 847.378 447.457C847.105 447.827 846.727 448.278 846.244 448.812L844.08 451.229V451.284H848.396V452H842.972ZM853.159 442.864L850.347 453.312H849.635L852.448 442.864H853.159ZM857.193 452.119C856.832 452.116 856.48 452.044 856.136 451.902C855.792 451.757 855.483 451.526 855.207 451.207C854.931 450.886 854.713 450.463 854.551 449.938C854.389 449.412 854.308 448.766 854.308 447.999C854.308 447.288 854.37 446.638 854.495 446.047C854.62 445.456 854.808 444.945 855.058 444.513C855.308 444.081 855.62 443.747 855.995 443.511C856.37 443.273 856.809 443.153 857.312 443.153C857.784 443.153 858.2 443.251 858.561 443.447C858.922 443.641 859.214 443.911 859.439 444.257C859.663 444.604 859.804 445.003 859.86 445.455H859.076C858.997 444.994 858.808 444.615 858.51 444.317C858.211 444.018 857.812 443.869 857.312 443.869C856.596 443.869 856.042 444.202 855.65 444.866C855.258 445.528 855.061 446.469 855.058 447.688H855.113C855.252 447.429 855.431 447.206 855.65 447.018C855.872 446.828 856.123 446.68 856.404 446.575C856.686 446.467 856.981 446.413 857.291 446.413C857.777 446.413 858.221 446.537 858.625 446.784C859.028 447.028 859.35 447.365 859.592 447.794C859.833 448.22 859.954 448.707 859.954 449.256C859.954 449.776 859.839 450.254 859.609 450.692C859.382 451.129 859.061 451.477 858.646 451.736C858.234 451.994 857.75 452.122 857.193 452.119ZM857.193 451.403C857.574 451.403 857.913 451.307 858.211 451.114C858.512 450.92 858.75 450.662 858.923 450.338C859.096 450.011 859.183 449.651 859.183 449.256C859.183 448.861 859.096 448.503 858.923 448.182C858.75 447.861 858.512 447.605 858.211 447.415C857.913 447.224 857.574 447.129 857.193 447.129C856.903 447.129 856.633 447.189 856.383 447.308C856.133 447.425 855.916 447.585 855.731 447.79C855.549 447.991 855.41 448.223 855.314 448.484C855.22 448.746 855.184 449.02 855.207 449.307C855.238 449.707 855.342 450.067 855.518 450.385C855.697 450.7 855.93 450.949 856.217 451.131C856.507 451.312 856.832 451.403 857.193 451.403Z" fill="white"/>
<path d="M842.763 549.125V548.477L846.653 542.273H847.131V543.359H846.777L843.653 548.354V548.409H848.754V549.125H842.763ZM846.837 551V548.92V548.622V542.273H847.595V551H846.837ZM853.347 541.864L850.534 552.312H849.823L852.635 541.864H853.347ZM857.38 551.119C857.02 551.116 856.667 551.044 856.324 550.902C855.98 550.757 855.67 550.526 855.395 550.207C855.119 549.886 854.9 549.463 854.738 548.938C854.576 548.412 854.495 547.766 854.495 546.999C854.495 546.288 854.558 545.638 854.683 545.047C854.808 544.456 854.995 543.945 855.245 543.513C855.495 543.081 855.808 542.747 856.183 542.511C856.558 542.273 856.997 542.153 857.5 542.153C857.971 542.153 858.387 542.251 858.748 542.447C859.109 542.641 859.402 542.911 859.626 543.257C859.85 543.604 859.991 544.003 860.048 544.455H859.264C859.184 543.994 858.995 543.615 858.697 543.317C858.399 543.018 858 542.869 857.5 542.869C856.784 542.869 856.23 543.202 855.838 543.866C855.446 544.528 855.248 545.469 855.245 546.688H855.301C855.44 546.429 855.619 546.206 855.838 546.018C856.059 545.828 856.311 545.68 856.592 545.575C856.873 545.467 857.169 545.413 857.478 545.413C857.964 545.413 858.409 545.537 858.812 545.784C859.216 546.028 859.538 546.365 859.779 546.794C860.021 547.22 860.142 547.707 860.142 548.256C860.142 548.776 860.027 549.254 859.797 549.692C859.569 550.129 859.248 550.477 858.833 550.736C858.422 550.994 857.937 551.122 857.38 551.119ZM857.38 550.403C857.761 550.403 858.1 550.307 858.399 550.114C858.7 549.92 858.937 549.662 859.11 549.338C859.284 549.011 859.37 548.651 859.37 548.256C859.37 547.861 859.284 547.503 859.11 547.182C858.937 546.861 858.7 546.605 858.399 546.415C858.1 546.224 857.761 546.129 857.38 546.129C857.091 546.129 856.821 546.189 856.571 546.308C856.321 546.425 856.103 546.585 855.919 546.79C855.737 546.991 855.598 547.223 855.501 547.484C855.407 547.746 855.372 548.02 855.395 548.307C855.426 548.707 855.529 549.067 855.706 549.385C855.885 549.7 856.118 549.949 856.404 550.131C856.694 550.312 857.02 550.403 857.38 550.403Z" fill="white"/>
<path d="M845.524 584.119C845.038 584.119 844.604 584.021 844.22 583.825C843.839 583.626 843.536 583.354 843.308 583.007C843.084 582.661 842.964 582.264 842.95 581.818H843.722C843.747 582.281 843.929 582.662 844.267 582.96C844.605 583.256 845.024 583.403 845.524 583.403C845.913 583.403 846.26 583.311 846.564 583.126C846.868 582.939 847.105 582.683 847.276 582.359C847.449 582.033 847.536 581.665 847.536 581.256C847.533 580.83 847.44 580.455 847.259 580.131C847.077 579.804 846.83 579.548 846.517 579.364C846.207 579.179 845.859 579.087 845.473 579.087C845.18 579.084 844.893 579.132 844.612 579.232C844.331 579.331 844.097 579.459 843.909 579.615L843.112 579.513L843.636 575.273H847.949V575.989H844.305L843.956 578.908H843.999C844.192 578.746 844.426 578.614 844.702 578.511C844.98 578.409 845.274 578.358 845.584 578.358C846.098 578.358 846.56 578.482 846.969 578.729C847.381 578.976 847.706 579.317 847.945 579.751C848.186 580.183 848.307 580.68 848.307 581.243C848.307 581.794 848.186 582.287 847.945 582.722C847.706 583.153 847.376 583.494 846.956 583.744C846.538 583.994 846.061 584.119 845.524 584.119ZM852.984 574.864L850.171 585.312H849.46L852.272 574.864H852.984ZM857.017 584.119C856.656 584.116 856.304 584.044 855.96 583.902C855.616 583.757 855.307 583.526 855.031 583.207C854.756 582.886 854.537 582.463 854.375 581.938C854.213 581.412 854.132 580.766 854.132 579.999C854.132 579.288 854.195 578.638 854.32 578.047C854.445 577.456 854.632 576.945 854.882 576.513C855.132 576.081 855.445 575.747 855.82 575.511C856.195 575.273 856.634 575.153 857.136 575.153C857.608 575.153 858.024 575.251 858.385 575.447C858.746 575.641 859.038 575.911 859.263 576.257C859.487 576.604 859.628 577.003 859.685 577.455H858.901C858.821 576.994 858.632 576.615 858.334 576.317C858.036 576.018 857.636 575.869 857.136 575.869C856.42 575.869 855.866 576.202 855.474 576.866C855.082 577.528 854.885 578.469 854.882 579.688H854.938C855.077 579.429 855.256 579.206 855.474 579.018C855.696 578.828 855.947 578.68 856.229 578.575C856.51 578.467 856.805 578.413 857.115 578.413C857.601 578.413 858.045 578.537 858.449 578.784C858.852 579.028 859.175 579.365 859.416 579.794C859.658 580.22 859.778 580.707 859.778 581.256C859.778 581.776 859.663 582.254 859.433 582.692C859.206 583.129 858.885 583.477 858.47 583.736C858.058 583.994 857.574 584.122 857.017 584.119ZM857.017 583.403C857.398 583.403 857.737 583.307 858.036 583.114C858.337 582.92 858.574 582.662 858.747 582.338C858.92 582.011 859.007 581.651 859.007 581.256C859.007 580.861 858.92 580.503 858.747 580.182C858.574 579.861 858.337 579.605 858.036 579.415C857.737 579.224 857.398 579.129 857.017 579.129C856.727 579.129 856.457 579.189 856.207 579.308C855.957 579.425 855.74 579.585 855.555 579.79C855.374 579.991 855.234 580.223 855.138 580.484C855.044 580.746 855.009 581.02 855.031 581.307C855.062 581.707 855.166 582.067 855.342 582.385C855.521 582.7 855.754 582.949 856.041 583.131C856.331 583.312 856.656 583.403 857.017 583.403Z" fill="white"/>
<path d="M845.72 623.119C845.359 623.116 845.007 623.044 844.663 622.902C844.32 622.757 844.01 622.526 843.734 622.207C843.459 621.886 843.24 621.463 843.078 620.938C842.916 620.412 842.835 619.766 842.835 618.999C842.835 618.288 842.898 617.638 843.023 617.047C843.148 616.456 843.335 615.945 843.585 615.513C843.835 615.081 844.148 614.747 844.523 614.511C844.898 614.273 845.337 614.153 845.839 614.153C846.311 614.153 846.727 614.251 847.088 614.447C847.449 614.641 847.741 614.911 847.966 615.257C848.19 615.604 848.331 616.003 848.388 616.455H847.604C847.524 615.994 847.335 615.615 847.037 615.317C846.739 615.018 846.339 614.869 845.839 614.869C845.124 614.869 844.57 615.202 844.178 615.866C843.786 616.528 843.588 617.469 843.585 618.688H843.641C843.78 618.429 843.959 618.206 844.178 618.018C844.399 617.828 844.651 617.68 844.932 617.575C845.213 617.467 845.509 617.413 845.818 617.413C846.304 617.413 846.749 617.537 847.152 617.784C847.555 618.028 847.878 618.365 848.119 618.794C848.361 619.22 848.482 619.707 848.482 620.256C848.482 620.776 848.366 621.254 848.136 621.692C847.909 622.129 847.588 622.477 847.173 622.736C846.761 622.994 846.277 623.122 845.72 623.119ZM845.72 622.403C846.101 622.403 846.44 622.307 846.739 622.114C847.04 621.92 847.277 621.662 847.45 621.338C847.624 621.011 847.71 620.651 847.71 620.256C847.71 619.861 847.624 619.503 847.45 619.182C847.277 618.861 847.04 618.605 846.739 618.415C846.44 618.224 846.101 618.129 845.72 618.129C845.43 618.129 845.161 618.189 844.911 618.308C844.661 618.425 844.443 618.585 844.259 618.79C844.077 618.991 843.938 619.223 843.841 619.484C843.747 619.746 843.712 620.02 843.734 620.307C843.766 620.707 843.869 621.067 844.045 621.385C844.224 621.7 844.457 621.949 844.744 622.131C845.034 622.312 845.359 622.403 845.72 622.403ZM853.148 613.864L850.335 624.312H849.624L852.436 613.864H853.148ZM857.181 623.119C856.82 623.116 856.468 623.044 856.124 622.902C855.781 622.757 855.471 622.526 855.195 622.207C854.92 621.886 854.701 621.463 854.539 620.938C854.377 620.412 854.296 619.766 854.296 618.999C854.296 618.288 854.359 617.638 854.484 617.047C854.609 616.456 854.796 615.945 855.046 615.513C855.296 615.081 855.609 614.747 855.984 614.511C856.359 614.273 856.798 614.153 857.3 614.153C857.772 614.153 858.188 614.251 858.549 614.447C858.91 614.641 859.202 614.911 859.427 615.257C859.651 615.604 859.792 616.003 859.849 616.455H859.065C858.985 615.994 858.796 615.615 858.498 615.317C858.2 615.018 857.8 614.869 857.3 614.869C856.585 614.869 856.031 615.202 855.638 615.866C855.246 616.528 855.049 617.469 855.046 618.688H855.102C855.241 618.429 855.42 618.206 855.638 618.018C855.86 617.828 856.112 617.68 856.393 617.575C856.674 617.467 856.969 617.413 857.279 617.413C857.765 617.413 858.21 617.537 858.613 617.784C859.016 618.028 859.339 618.365 859.58 618.794C859.822 619.22 859.942 619.707 859.942 620.256C859.942 620.776 859.827 621.254 859.597 621.692C859.37 622.129 859.049 622.477 858.634 622.736C858.222 622.994 857.738 623.122 857.181 623.119ZM857.181 622.403C857.562 622.403 857.901 622.307 858.2 622.114C858.501 621.92 858.738 621.662 858.911 621.338C859.085 621.011 859.171 620.651 859.171 620.256C859.171 619.861 859.085 619.503 858.911 619.182C858.738 618.861 858.501 618.605 858.2 618.415C857.901 618.224 857.562 618.129 857.181 618.129C856.891 618.129 856.621 618.189 856.371 618.308C856.121 618.425 855.904 618.585 855.719 618.79C855.538 618.991 855.398 619.223 855.302 619.484C855.208 619.746 855.173 620.02 855.195 620.307C855.227 620.707 855.33 621.067 855.506 621.385C855.685 621.7 855.918 621.949 856.205 622.131C856.495 622.312 856.82 622.403 857.181 622.403Z" fill="white"/>
<path d="M855.72 805.119C855.359 805.116 855.007 805.044 854.663 804.902C854.32 804.757 854.01 804.526 853.734 804.207C853.459 803.886 853.24 803.463 853.078 802.938C852.916 802.412 852.835 801.766 852.835 800.999C852.835 800.288 852.898 799.638 853.023 799.047C853.148 798.456 853.335 797.945 853.585 797.513C853.835 797.081 854.148 796.747 854.523 796.511C854.898 796.273 855.337 796.153 855.839 796.153C856.311 796.153 856.727 796.251 857.088 796.447C857.449 796.641 857.741 796.911 857.966 797.257C858.19 797.604 858.331 798.003 858.388 798.455H857.604C857.524 797.994 857.335 797.615 857.037 797.317C856.739 797.018 856.339 796.869 855.839 796.869C855.124 796.869 854.57 797.202 854.178 797.866C853.786 798.528 853.588 799.469 853.585 800.688H853.641C853.78 800.429 853.959 800.206 854.178 800.018C854.399 799.828 854.651 799.68 854.932 799.575C855.213 799.467 855.509 799.413 855.818 799.413C856.304 799.413 856.749 799.537 857.152 799.784C857.555 800.028 857.878 800.365 858.119 800.794C858.361 801.22 858.482 801.707 858.482 802.256C858.482 802.776 858.366 803.254 858.136 803.692C857.909 804.129 857.588 804.477 857.173 804.736C856.761 804.994 856.277 805.122 855.72 805.119ZM855.72 804.403C856.101 804.403 856.44 804.307 856.739 804.114C857.04 803.92 857.277 803.662 857.45 803.338C857.624 803.011 857.71 802.651 857.71 802.256C857.71 801.861 857.624 801.503 857.45 801.182C857.277 800.861 857.04 800.605 856.739 800.415C856.44 800.224 856.101 800.129 855.72 800.129C855.43 800.129 855.161 800.189 854.911 800.308C854.661 800.425 854.443 800.585 854.259 800.79C854.077 800.991 853.938 801.223 853.841 801.484C853.747 801.746 853.712 802.02 853.734 802.307C853.766 802.707 853.869 803.067 854.045 803.385C854.224 803.7 854.457 803.949 854.744 804.131C855.034 804.312 855.359 804.403 855.72 804.403ZM860.919 803.692C860.751 803.692 860.607 803.632 860.484 803.513C860.365 803.391 860.305 803.246 860.305 803.078C860.305 802.908 860.365 802.763 860.484 802.643C860.607 802.524 860.751 802.464 860.919 802.464C861.089 802.464 861.234 802.524 861.354 802.643C861.473 802.763 861.533 802.908 861.533 803.078C861.533 803.189 861.504 803.291 861.447 803.385C861.393 803.479 861.32 803.554 861.226 803.611C861.135 803.665 861.033 803.692 860.919 803.692ZM860.919 799.264C860.751 799.264 860.607 799.205 860.484 799.085C860.365 798.963 860.305 798.818 860.305 798.651C860.305 798.483 860.365 798.339 860.484 798.22C860.607 798.098 860.751 798.037 860.919 798.037C861.089 798.037 861.234 798.098 861.354 798.22C861.473 798.339 861.533 798.483 861.533 798.651C861.533 798.761 861.504 798.864 861.447 798.957C861.393 799.051 861.32 799.126 861.226 799.183C861.135 799.237 861.033 799.264 860.919 799.264ZM863.507 805V804.416L866.358 801.212C866.73 800.791 867.029 800.432 867.257 800.134C867.484 799.835 867.649 799.56 867.751 799.307C867.856 799.054 867.909 798.791 867.909 798.518C867.909 798.186 867.831 797.896 867.674 797.649C867.521 797.399 867.309 797.205 867.039 797.065C866.77 796.926 866.466 796.857 866.127 796.857C865.77 796.857 865.456 796.933 865.186 797.087C864.919 797.24 864.711 797.45 864.564 797.717C864.416 797.984 864.342 798.291 864.342 798.638H863.579C863.579 798.155 863.69 797.727 863.912 797.355C864.136 796.98 864.441 796.686 864.828 796.473C865.217 796.26 865.657 796.153 866.149 796.153C866.635 796.153 867.066 796.259 867.444 796.469C867.822 796.676 868.119 796.959 868.335 797.317C868.551 797.675 868.659 798.075 868.659 798.518C868.659 798.839 868.602 799.151 868.488 799.452C868.377 799.753 868.186 800.088 867.913 800.457C867.64 800.827 867.262 801.278 866.779 801.812L864.615 804.229V804.284H868.931V805H863.507ZM873.541 805.119C872.928 805.119 872.403 804.943 871.969 804.591C871.537 804.236 871.205 803.723 870.972 803.053C870.741 802.382 870.626 801.577 870.626 800.636C870.626 799.699 870.741 798.896 870.972 798.229C871.205 797.558 871.538 797.045 871.973 796.69C872.411 796.332 872.933 796.153 873.541 796.153C874.149 796.153 874.67 796.332 875.105 796.69C875.543 797.045 875.876 797.558 876.107 798.229C876.339 798.896 876.456 799.699 876.456 800.636C876.456 801.577 876.339 802.382 876.107 803.053C875.876 803.723 875.544 804.236 875.109 804.591C874.678 804.943 874.155 805.119 873.541 805.119ZM873.541 804.403C874.214 804.403 874.74 804.075 875.118 803.419C875.496 802.76 875.685 801.832 875.685 800.636C875.685 799.841 875.598 799.162 875.425 798.599C875.254 798.034 875.009 797.602 874.688 797.304C874.369 797.006 873.987 796.857 873.541 796.857C872.874 796.857 872.349 797.189 871.969 797.854C871.588 798.516 871.398 799.443 871.398 800.636C871.398 801.432 871.483 802.111 871.653 802.673C871.827 803.236 872.072 803.665 872.391 803.96C872.712 804.256 873.095 804.403 873.541 804.403Z" fill="white"/>
<path d="M605.763 803.125V802.477L609.653 796.273H610.131V797.359H609.777L606.653 802.354V802.409H611.754V803.125H605.763ZM609.837 805V802.92V802.622V796.273H610.595V805H609.837ZM614.118 803.692C613.951 803.692 613.806 803.632 613.684 803.513C613.564 803.391 613.505 803.246 613.505 803.078C613.505 802.908 613.564 802.763 613.684 802.643C613.806 802.524 613.951 802.464 614.118 802.464C614.289 802.464 614.434 802.524 614.553 802.643C614.672 802.763 614.732 802.908 614.732 803.078C614.732 803.189 614.703 803.291 614.647 803.385C614.593 803.479 614.519 803.554 614.425 803.611C614.334 803.665 614.232 803.692 614.118 803.692ZM614.118 799.264C613.951 799.264 613.806 799.205 613.684 799.085C613.564 798.963 613.505 798.818 613.505 798.651C613.505 798.483 613.564 798.339 613.684 798.22C613.806 798.098 613.951 798.037 614.118 798.037C614.289 798.037 614.434 798.098 614.553 798.22C614.672 798.339 614.732 798.483 614.732 798.651C614.732 798.761 614.703 798.864 614.647 798.957C614.593 799.051 614.519 799.126 614.425 799.183C614.334 799.237 614.232 799.264 614.118 799.264ZM616.706 805V804.416L619.557 801.212C619.929 800.791 620.229 800.432 620.456 800.134C620.683 799.835 620.848 799.56 620.95 799.307C621.055 799.054 621.108 798.791 621.108 798.518C621.108 798.186 621.03 797.896 620.874 797.649C620.72 797.399 620.509 797.205 620.239 797.065C619.969 796.926 619.665 796.857 619.327 796.857C618.969 796.857 618.655 796.933 618.385 797.087C618.118 797.24 617.911 797.45 617.763 797.717C617.615 797.984 617.541 798.291 617.541 798.638H616.778C616.778 798.155 616.889 797.727 617.111 797.355C617.335 796.98 617.641 796.686 618.027 796.473C618.416 796.26 618.857 796.153 619.348 796.153C619.834 796.153 620.266 796.259 620.643 796.469C621.021 796.676 621.318 796.959 621.534 797.317C621.75 797.675 621.858 798.075 621.858 798.518C621.858 798.839 621.801 799.151 621.688 799.452C621.577 799.753 621.385 800.088 621.112 800.457C620.839 800.827 620.462 801.278 619.979 801.812L617.814 804.229V804.284H622.131V805H616.706ZM626.74 805.119C626.127 805.119 625.603 804.943 625.168 804.591C624.736 804.236 624.404 803.723 624.171 803.053C623.941 802.382 623.826 801.577 623.826 800.636C623.826 799.699 623.941 798.896 624.171 798.229C624.404 797.558 624.738 797.045 625.172 796.69C625.61 796.332 626.132 796.153 626.74 796.153C627.348 796.153 627.87 796.332 628.304 796.69C628.742 797.045 629.076 797.558 629.306 798.229C629.539 798.896 629.655 799.699 629.655 800.636C629.655 801.577 629.539 802.382 629.306 803.053C629.076 803.723 628.743 804.236 628.309 804.591C627.877 804.943 627.354 805.119 626.74 805.119ZM626.74 804.403C627.414 804.403 627.939 804.075 628.317 803.419C628.695 802.76 628.884 801.832 628.884 800.636C628.884 799.841 628.797 799.162 628.624 798.599C628.453 798.034 628.208 797.602 627.887 797.304C627.569 797.006 627.186 796.857 626.74 796.857C626.073 796.857 625.549 797.189 625.168 797.854C624.787 798.516 624.597 799.443 624.597 800.636C624.597 801.432 624.682 802.111 624.853 802.673C625.026 803.236 625.272 803.665 625.59 803.96C625.911 804.256 626.294 804.403 626.74 804.403Z" fill="white"/>
<path d="M642 794.75C640.764 794.75 639.555 795.117 638.528 795.803C637.5 796.49 636.699 797.466 636.226 798.608C635.753 799.75 635.629 801.007 635.87 802.219C636.111 803.432 636.707 804.545 637.581 805.419C638.455 806.293 639.568 806.889 640.781 807.13C641.993 807.371 643.25 807.247 644.392 806.774C645.534 806.301 646.51 805.5 647.197 804.472C647.883 803.445 648.25 802.236 648.25 801C648.248 799.343 647.589 797.754 646.417 796.583C645.246 795.411 643.657 794.752 642 794.75ZM642 806.75C640.863 806.75 639.751 806.413 638.805 805.781C637.86 805.149 637.123 804.251 636.688 803.2C636.252 802.15 636.139 800.994 636.36 799.878C636.582 798.763 637.13 797.738 637.934 796.934C638.738 796.13 639.763 795.582 640.878 795.36C641.994 795.139 643.15 795.252 644.2 795.688C645.251 796.123 646.149 796.86 646.781 797.805C647.413 798.751 647.75 799.863 647.75 801C647.748 802.524 647.142 803.986 646.064 805.064C644.986 806.142 643.524 806.748 642 806.75ZM640.75 799V803C640.75 803.066 640.724 803.13 640.677 803.177C640.63 803.224 640.566 803.25 640.5 803.25C640.434 803.25 640.37 803.224 640.323 803.177C640.276 803.13 640.25 803.066 640.25 803V799C640.25 798.934 640.276 798.87 640.323 798.823C640.37 798.776 640.434 798.75 640.5 798.75C640.566 798.75 640.63 798.776 640.677 798.823C640.724 798.87 640.75 798.934 640.75 799ZM643.75 799V803C643.75 803.066 643.724 803.13 643.677 803.177C643.63 803.224 643.566 803.25 643.5 803.25C643.434 803.25 643.37 803.224 643.323 803.177C643.276 803.13 643.25 803.066 643.25 803V799C643.25 798.934 643.276 798.87 643.323 798.823C643.37 798.776 643.434 798.75 643.5 798.75C643.566 798.75 643.63 798.776 643.677 798.823C643.724 798.87 643.75 798.934 643.75 799Z" fill="white"/>
<defs>
<filter id="filter0_d_1175_56" x="601" y="820" width="281" height="23" filterUnits="userSpaceOnUse" color-interpolation-filters="sRGB">
<feFlood flood-opacity="0" result="BackgroundImageFix"/>
<feColorMatrix in="SourceAlpha" type="matrix" values="0 0 0 0 0 0 0 0 0 0 0 0 0 0 0 0 0 0 127 0" result="hardAlpha"/>
<feOffset dy="4"/>
<feGaussianBlur stdDeviation="2"/>
<feComposite in2="hardAlpha" operator="out"/>
<feColorMatrix type="matrix" values="0 0 0 0 0 0 0 0 0 0 0 0 0 0 0 0 0 0 0.25 0"/>
<feBlend mode="normal" in2="BackgroundImageFix" result="effect1_dropShadow_1175_56"/>
<feBlend mode="normal" in="SourceGraphic" in2="effect1_dropShadow_1175_56" result="shape"/>
</filter>
<filter id="filter1_i_1175_56" x="604" y="417" width="273" height="241" filterUnits="userSpaceOnUse" color-interpolation-filters="sRGB">
<feFlood flood-opacity="0" result="BackgroundImageFix"/>
<feBlend mode="normal" in="SourceGraphic" in2="BackgroundImageFix" result="shape"/>
<feColorMatrix in="SourceAlpha" type="matrix" values="0 0 0 0 0 0 0 0 0 0 0 0 0 0 0 0 0 0 127 0" result="hardAlpha"/>
<feOffset dy="4"/>
<feGaussianBlur stdDeviation="2"/>
<feComposite in2="hardAlpha" operator="arithmetic" k2="-1" k3="1"/>
<feColorMatrix type="matrix" values="0 0 0 0 0 0 0 0 0 0 0 0 0 0 0 0 0 0 0.25 0"/>
<feBlend mode="normal" in2="shape" result="effect1_innerShadow_1175_56"/>
</filter>
<filter id="filter2_d_1175_56" x="619.758" y="497.774" width="78.6504" height="19.8168" filterUnits="userSpaceOnUse" color-interpolation-filters="sRGB">
<feFlood flood-opacity="0" result="BackgroundImageFix"/>
<feColorMatrix in="SourceAlpha" type="matrix" values="0 0 0 0 0 0 0 0 0 0 0 0 0 0 0 0 0 0 127 0" result="hardAlpha"/>
<feOffset dy="4"/>
<feGaussianBlur stdDeviation="2"/>
<feComposite in2="hardAlpha" operator="out"/>
<feColorMatrix type="matrix" values="0 0 0 0 0 0 0 0 0 0 0 0 0 0 0 0 0 0 0.25 0"/>
<feBlend mode="normal" in2="BackgroundImageFix" result="effect1_dropShadow_1175_56"/>
<feBlend mode="normal" in="SourceGraphic" in2="effect1_dropShadow_1175_56" result="shape"/>
</filter>
<filter id="filter3_d_1175_56" x="619.494" y="447.864" width="74.3188" height="17.2727" filterUnits="userSpaceOnUse" color-interpolation-filters="sRGB">
<feFlood flood-opacity="0" result="BackgroundImageFix"/>
<feColorMatrix in="SourceAlpha" type="matrix" values="0 0 0 0 0 0 0 0 0 0 0 0 0 0 0 0 0 0 127 0" result="hardAlpha"/>
<feOffset dy="4"/>
<feGaussianBlur stdDeviation="2"/>
<feComposite in2="hardAlpha" operator="out"/>
<feColorMatrix type="matrix" values="0 0 0 0 0 0 0 0 0 0 0 0 0 0 0 0 0 0 0.25 0"/>
<feBlend mode="normal" in2="BackgroundImageFix" result="effect1_dropShadow_1175_56"/>
<feBlend mode="normal" in="SourceGraphic" in2="effect1_dropShadow_1175_56" result="shape"/>
</filter>
<filter id="filter4_d_1175_56" x="620.057" y="547" width="76.9331" height="19.5909" filterUnits="userSpaceOnUse" color-interpolation-filters="sRGB">
<feFlood flood-opacity="0" result="BackgroundImageFix"/>
<feColorMatrix in="SourceAlpha" type="matrix" values="0 0 0 0 0 0 0 0 0 0 0 0 0 0 0 0 0 0 127 0" result="hardAlpha"/>
<feOffset dy="4"/>
<feGaussianBlur stdDeviation="2"/>
<feComposite in2="hardAlpha" operator="out"/>
<feColorMatrix type="matrix" values="0 0 0 0 0 0 0 0 0 0 0 0 0 0 0 0 0 0 0.25 0"/>
<feBlend mode="normal" in2="BackgroundImageFix" result="effect1_dropShadow_1175_56"/>
<feBlend mode="normal" in="SourceGraphic" in2="effect1_dropShadow_1175_56" result="shape"/>
</filter>
<filter id="filter5_d_1175_56" x="620.057" y="583.273" width="70.3364" height="16.8807" filterUnits="userSpaceOnUse" color-interpolation-filters="sRGB">
<feFlood flood-opacity="0" result="BackgroundImageFix"/>
<feColorMatrix in="SourceAlpha" type="matrix" values="0 0 0 0 0 0 0 0 0 0 0 0 0 0 0 0 0 0 127 0" result="hardAlpha"/>
<feOffset dy="4"/>
<feGaussianBlur stdDeviation="2"/>
<feComposite in2="hardAlpha" operator="out"/>
<feColorMatrix type="matrix" values="0 0 0 0 0 0 0 0 0 0 0 0 0 0 0 0 0 0 0.25 0"/>
<feBlend mode="normal" in2="BackgroundImageFix" result="effect1_dropShadow_1175_56"/>
<feBlend mode="normal" in="SourceGraphic" in2="effect1_dropShadow_1175_56" result="shape"/>
</filter>
<filter id="filter6_d_1175_56" x="619.716" y="614" width="100.804" height="19.5909" filterUnits="userSpaceOnUse" color-interpolation-filters="sRGB">
<feFlood flood-opacity="0" result="BackgroundImageFix"/>
<feColorMatrix in="SourceAlpha" type="matrix" values="0 0 0 0 0 0 0 0 0 0 0 0 0 0 0 0 0 0 127 0" result="hardAlpha"/>
<feOffset dy="4"/>
<feGaussianBlur stdDeviation="2"/>
<feComposite in2="hardAlpha" operator="out"/>
<feColorMatrix type="matrix" values="0 0 0 0 0 0 0 0 0 0 0 0 0 0 0 0 0 0 0.25 0"/>
<feBlend mode="normal" in2="BackgroundImageFix" result="effect1_dropShadow_1175_56"/>
<feBlend mode="normal" in="SourceGraphic" in2="effect1_dropShadow_1175_56" result="shape"/>
</filter>
<linearGradient id="paint0_linear_1175_56" x1="740" y1="448.375" x2="740" y2="894" gradientUnits="userSpaceOnUse">
<stop stop-opacity="0"/>
<stop offset="0.972871" stop-opacity="0.24"/>
<stop offset="1" stop-opacity="0.41"/>
</linearGradient>
<linearGradient id="paint1_linear_1175_56" x1="740" y1="274" x2="740" y2="676.031" gradientUnits="userSpaceOnUse">
<stop stop-color="white" stop-opacity="0.2"/>
<stop offset="1" stop-color="white" stop-opacity="0"/>
</linearGradient>
<linearGradient id="paint2_linear_1175_56" x1="814" y1="828" x2="605" y2="828" gradientUnits="userSpaceOnUse">
<stop stop-color="#FF4281"/>
<stop offset="1" stop-color="#FF7676"/>
</linearGradient>
<linearGradient id="paint3_linear_1175_56" x1="881" y1="503.4" x2="600" y2="503.4" gradientUnits="userSpaceOnUse">
<stop stop-color="#FF4281"/>
<stop offset="1" stop-color="#FF7676"/>
</linearGradient>
</defs>
</svg>
