<svg width="1480" height="1168" viewBox="0 0 1480 1168" fill="none" xmlns="http://www.w3.org/2000/svg">
<g opacity="0.3">
<path d="M1061 301H1133C1145.15 301 1155 310.85 1155 323V395C1155 407.15 1145.15 417 1133 417H1061C1048.85 417 1039 407.15 1039 395V323C1039 310.85 1048.85 301 1061 301Z" fill="#868686"/>
<path d="M1061 301H1133C1145.15 301 1155 310.85 1155 323V395C1155 407.15 1145.15 417 1133 417H1061C1048.85 417 1039 407.15 1039 395V323C1039 310.85 1048.85 301 1061 301Z" fill="url(#paint0_linear_1182_751)"/>
<path d="M1061 301H1133C1145.15 301 1155 310.85 1155 323V395C1155 407.15 1145.15 417 1133 417H1061C1048.85 417 1039 407.15 1039 395V323C1039 310.85 1048.85 301 1061 301Z" fill="url(#paint1_linear_1182_751)"/>
<path d="M1061 301H1133C1145.15 301 1155 310.85 1155 323V395C1155 407.15 1145.15 417 1133 417H1061C1048.85 417 1039 407.15 1039 395V323C1039 310.85 1048.85 301 1061 301Z" stroke="white" stroke-width="4"/>
</g>
<g filter="url(#filter0_d_1182_751)">
<path d="M1119.13 328.882C1118.86 328.665 1118.54 328.514 1118.2 328.441C1117.85 328.369 1117.5 328.376 1117.16 328.463L1080.41 337.65C1079.92 337.774 1079.47 338.06 1079.16 338.464C1078.84 338.867 1078.67 339.363 1078.67 339.875V371.486C1076.76 370.205 1074.47 369.602 1072.17 369.772C1069.87 369.942 1067.69 370.875 1065.99 372.423C1064.28 373.971 1063.14 376.046 1062.75 378.317C1062.35 380.587 1062.73 382.925 1063.82 384.957C1064.9 386.989 1066.64 388.599 1068.75 389.532C1070.85 390.464 1073.21 390.666 1075.45 390.104C1077.68 389.543 1079.67 388.25 1081.08 386.432C1082.5 384.614 1083.27 382.375 1083.27 380.07V353.154L1115.42 345.115V362.298C1113.51 361.018 1111.22 360.415 1108.92 360.585C1106.62 360.754 1104.44 361.688 1102.74 363.236C1101.03 364.784 1099.89 366.858 1099.5 369.129C1099.1 371.4 1099.48 373.737 1100.57 375.769C1101.65 377.801 1103.39 379.411 1105.5 380.344C1107.6 381.277 1109.96 381.478 1112.2 380.917C1114.43 380.355 1116.42 379.063 1117.83 377.245C1119.25 375.427 1120.02 373.188 1120.02 370.883V330.688C1120.01 330.339 1119.93 329.996 1119.78 329.683C1119.63 329.37 1119.41 329.096 1119.13 328.882Z" fill="url(#paint2_linear_1182_751)"/>
</g>
<defs>
<filter id="filter0_d_1182_751" x="1058.59" y="328.392" width="65.4219" height="70.0244" filterUnits="userSpaceOnUse" color-interpolation-filters="sRGB">
<feFlood flood-opacity="0" result="BackgroundImageFix"/>
<feColorMatrix in="SourceAlpha" type="matrix" values="0 0 0 0 0 0 0 0 0 0 0 0 0 0 0 0 0 0 127 0" result="hardAlpha"/>
<feOffset dy="4"/>
<feGaussianBlur stdDeviation="2"/>
<feComposite in2="hardAlpha" operator="out"/>
<feColorMatrix type="matrix" values="0 0 0 0 0 0 0 0 0 0 0 0 0 0 0 0 0 0 0.25 0"/>
<feBlend mode="normal" in2="BackgroundImageFix" result="effect1_dropShadow_1182_751"/>
<feBlend mode="normal" in="SourceGraphic" in2="effect1_dropShadow_1182_751" result="shape"/>
</filter>
<linearGradient id="paint0_linear_1182_751" x1="1097" y1="332.75" x2="1097" y2="419" gradientUnits="userSpaceOnUse">
<stop stop-opacity="0"/>
<stop offset="0.972871" stop-opacity="0.24"/>
<stop offset="1" stop-opacity="0.41"/>
</linearGradient>
<linearGradient id="paint1_linear_1182_751" x1="1097" y1="299" x2="1097" y2="376.813" gradientUnits="userSpaceOnUse">
<stop stop-color="white" stop-opacity="0.2"/>
<stop offset="1" stop-color="white" stop-opacity="0"/>
</linearGradient>
<linearGradient id="paint2_linear_1182_751" x1="1120.02" y1="361.472" x2="1062.59" y2="361.472" gradientUnits="userSpaceOnUse">
<stop stop-color="#FF4281"/>
<stop offset="1" stop-color="#FF7676"/>
</linearGradient>
</defs>
</svg>
