<svg width="1480" height="1168" viewBox="0 0 1480 1168" fill="none" xmlns="http://www.w3.org/2000/svg">
<g opacity="0.3">
<path d="M204 586H276C288.15 586 298 595.85 298 608V680C298 692.15 288.15 702 276 702H204C191.85 702 182 692.15 182 680V608C182 595.85 191.85 586 204 586Z" fill="#868686"/>
<path d="M204 586H276C288.15 586 298 595.85 298 608V680C298 692.15 288.15 702 276 702H204C191.85 702 182 692.15 182 680V608C182 595.85 191.85 586 204 586Z" fill="url(#paint0_linear_1175_92)"/>
<path d="M204 586H276C288.15 586 298 595.85 298 608V680C298 692.15 288.15 702 276 702H204C191.85 702 182 692.15 182 680V608C182 595.85 191.85 586 204 586Z" fill="url(#paint1_linear_1175_92)"/>
<path d="M204 586H276C288.15 586 298 595.85 298 608V680C298 692.15 288.15 702 276 702H204C191.85 702 182 692.15 182 680V608C182 595.85 191.85 586 204 586Z" stroke="white" stroke-width="4"/>
</g>
<g filter="url(#filter0_d_1175_92)">
<path d="M264 626V662C264 663.591 263.368 665.117 262.243 666.243C261.117 667.368 259.591 668 258 668H222C220.409 668 218.883 667.368 217.757 666.243C216.632 665.117 216 663.591 216 662V626C216 624.409 216.632 622.883 217.757 621.757C218.883 620.632 220.409 620 222 620H258C259.591 620 261.117 620.632 262.243 621.757C263.368 622.883 264 624.409 264 626ZM258 626H222V645.14L228.57 638.57L244.26 654.26L247.26 651.26C248.172 650.53 249.321 650.161 250.488 650.222C251.655 650.282 252.758 650.769 253.59 651.59L258 656V626ZM243 636.5C243 635.307 243.474 634.162 244.318 633.318C245.162 632.474 246.307 632 247.5 632C248.693 632 249.838 632.474 250.682 633.318C251.526 634.162 252 635.307 252 636.5C252 637.693 251.526 638.838 250.682 639.682C249.838 640.526 248.693 641 247.5 641C246.307 641 245.162 640.526 244.318 639.682C243.474 638.838 243 637.693 243 636.5Z" fill="url(#paint2_linear_1175_92)"/>
</g>
<defs>
<filter id="filter0_d_1175_92" x="212" y="620" width="56" height="56" filterUnits="userSpaceOnUse" color-interpolation-filters="sRGB">
<feFlood flood-opacity="0" result="BackgroundImageFix"/>
<feColorMatrix in="SourceAlpha" type="matrix" values="0 0 0 0 0 0 0 0 0 0 0 0 0 0 0 0 0 0 127 0" result="hardAlpha"/>
<feOffset dy="4"/>
<feGaussianBlur stdDeviation="2"/>
<feComposite in2="hardAlpha" operator="out"/>
<feColorMatrix type="matrix" values="0 0 0 0 0 0 0 0 0 0 0 0 0 0 0 0 0 0 0.25 0"/>
<feBlend mode="normal" in2="BackgroundImageFix" result="effect1_dropShadow_1175_92"/>
<feBlend mode="normal" in="SourceGraphic" in2="effect1_dropShadow_1175_92" result="shape"/>
</filter>
<linearGradient id="paint0_linear_1175_92" x1="240" y1="617.75" x2="240" y2="704" gradientUnits="userSpaceOnUse">
<stop stop-opacity="0"/>
<stop offset="0.972871" stop-opacity="0.24"/>
<stop offset="1" stop-opacity="0.41"/>
</linearGradient>
<linearGradient id="paint1_linear_1175_92" x1="240" y1="584" x2="240" y2="661.813" gradientUnits="userSpaceOnUse">
<stop stop-color="white" stop-opacity="0.2"/>
<stop offset="1" stop-color="white" stop-opacity="0"/>
</linearGradient>
<linearGradient id="paint2_linear_1175_92" x1="264" y1="645.6" x2="216" y2="645.6" gradientUnits="userSpaceOnUse">
<stop stop-color="#FF4281"/>
<stop offset="1" stop-color="#FF7676"/>
</linearGradient>
</defs>
</svg>
