<svg width="1480" height="1168" viewBox="0 0 1480 1168" fill="none" xmlns="http://www.w3.org/2000/svg">
<g opacity="0.3">
<path d="M1060 751H1132C1144.15 751 1154 760.85 1154 773V845C1154 857.15 1144.15 867 1132 867H1060C1047.85 867 1038 857.15 1038 845V773C1038 760.85 1047.85 751 1060 751Z" fill="#868686"/>
<path d="M1060 751H1132C1144.15 751 1154 760.85 1154 773V845C1154 857.15 1144.15 867 1132 867H1060C1047.85 867 1038 857.15 1038 845V773C1038 760.85 1047.85 751 1060 751Z" fill="url(#paint0_linear_1182_770)"/>
<path d="M1060 751H1132C1144.15 751 1154 760.85 1154 773V845C1154 857.15 1144.15 867 1132 867H1060C1047.85 867 1038 857.15 1038 845V773C1038 760.85 1047.85 751 1060 751Z" fill="url(#paint1_linear_1182_770)"/>
<path d="M1060 751H1132C1144.15 751 1154 760.85 1154 773V845C1154 857.15 1144.15 867 1132 867H1060C1047.85 867 1038 857.15 1038 845V773C1038 760.85 1047.85 751 1060 751Z" stroke="white" stroke-width="4"/>
</g>
<g filter="url(#filter0_d_1182_770)">
<path d="M1066 807.5C1066 790.103 1080.1 776 1097.5 776C1114.9 776 1129 790.103 1129 807.5C1129 824.897 1114.9 839 1097.5 839C1092.17 839 1087.15 837.675 1082.74 835.335L1070.3 838.872C1069.72 839.036 1069.11 839.042 1068.53 838.891C1067.95 838.739 1067.42 838.436 1066.99 838.011C1066.57 837.586 1066.27 837.055 1066.12 836.473C1065.96 835.892 1065.97 835.28 1066.14 834.703L1069.67 822.267C1067.25 817.72 1065.99 812.649 1066 807.5ZM1084 800.75C1084 801.347 1084.24 801.919 1084.66 802.341C1085.08 802.763 1085.65 803 1086.25 803H1108.75C1109.35 803 1109.92 802.763 1110.34 802.341C1110.76 801.919 1111 801.347 1111 800.75C1111 800.153 1110.76 799.581 1110.34 799.159C1109.92 798.737 1109.35 798.5 1108.75 798.5H1086.25C1085.65 798.5 1085.08 798.737 1084.66 799.159C1084.24 799.581 1084 800.153 1084 800.75ZM1086.25 812C1085.65 812 1085.08 812.237 1084.66 812.659C1084.24 813.081 1084 813.653 1084 814.25C1084 814.847 1084.24 815.419 1084.66 815.841C1085.08 816.263 1085.65 816.5 1086.25 816.5H1099.75C1100.35 816.5 1100.92 816.263 1101.34 815.841C1101.76 815.419 1102 814.847 1102 814.25C1102 813.653 1101.76 813.081 1101.34 812.659C1100.92 812.237 1100.35 812 1099.75 812H1086.25Z" fill="url(#paint2_linear_1182_770)"/>
</g>
<defs>
<filter id="filter0_d_1182_770" x="1062" y="776" width="71" height="71" filterUnits="userSpaceOnUse" color-interpolation-filters="sRGB">
<feFlood flood-opacity="0" result="BackgroundImageFix"/>
<feColorMatrix in="SourceAlpha" type="matrix" values="0 0 0 0 0 0 0 0 0 0 0 0 0 0 0 0 0 0 127 0" result="hardAlpha"/>
<feOffset dy="4"/>
<feGaussianBlur stdDeviation="2"/>
<feComposite in2="hardAlpha" operator="out"/>
<feColorMatrix type="matrix" values="0 0 0 0 0 0 0 0 0 0 0 0 0 0 0 0 0 0 0.25 0"/>
<feBlend mode="normal" in2="BackgroundImageFix" result="effect1_dropShadow_1182_770"/>
<feBlend mode="normal" in="SourceGraphic" in2="effect1_dropShadow_1182_770" result="shape"/>
</filter>
<linearGradient id="paint0_linear_1182_770" x1="1096" y1="782.75" x2="1096" y2="869" gradientUnits="userSpaceOnUse">
<stop stop-opacity="0"/>
<stop offset="0.972871" stop-opacity="0.24"/>
<stop offset="1" stop-opacity="0.41"/>
</linearGradient>
<linearGradient id="paint1_linear_1182_770" x1="1096" y1="749" x2="1096" y2="826.813" gradientUnits="userSpaceOnUse">
<stop stop-color="white" stop-opacity="0.2"/>
<stop offset="1" stop-color="white" stop-opacity="0"/>
</linearGradient>
<linearGradient id="paint2_linear_1182_770" x1="1129" y1="809.6" x2="1066" y2="809.6" gradientUnits="userSpaceOnUse">
<stop stop-color="#FF4281"/>
<stop offset="1" stop-color="#FF7676"/>
</linearGradient>
</defs>
</svg>
