<svg width="1480" height="1168" viewBox="0 0 1480 1168" fill="none" xmlns="http://www.w3.org/2000/svg">
<g opacity="0.3">
<path d="M605 976H677C689.15 976 699 985.85 699 998V1070C699 1082.15 689.15 1092 677 1092H605C592.85 1092 583 1082.15 583 1070V998C583 985.85 592.85 976 605 976Z" fill="#868686"/>
<path d="M605 976H677C689.15 976 699 985.85 699 998V1070C699 1082.15 689.15 1092 677 1092H605C592.85 1092 583 1082.15 583 1070V998C583 985.85 592.85 976 605 976Z" fill="url(#paint0_linear_1182_732)"/>
<path d="M605 976H677C689.15 976 699 985.85 699 998V1070C699 1082.15 689.15 1092 677 1092H605C592.85 1092 583 1082.15 583 1070V998C583 985.85 592.85 976 605 976Z" fill="url(#paint1_linear_1182_732)"/>
<path d="M605 976H677C689.15 976 699 985.85 699 998V1070C699 1082.15 689.15 1092 677 1092H605C592.85 1092 583 1082.15 583 1070V998C583 985.85 592.85 976 605 976Z" stroke="white" stroke-width="4"/>
</g>
<g filter="url(#filter0_d_1182_732)">
<path d="M666.909 1047.5C666.676 1047.22 666.447 1046.93 666.222 1046.66C663.128 1042.92 661.256 1040.66 661.256 1030.07C661.256 1024.58 659.944 1020.08 657.358 1016.71C655.451 1014.22 652.874 1012.33 649.476 1010.93C649.432 1010.9 649.393 1010.87 649.361 1010.83C648.139 1006.74 644.795 1004 641.023 1004C637.252 1004 633.909 1006.74 632.687 1010.83C632.654 1010.87 632.616 1010.9 632.573 1010.92C624.645 1014.18 620.791 1020.45 620.791 1030.06C620.791 1040.66 618.922 1042.92 615.826 1046.66C615.601 1046.93 615.372 1047.21 615.138 1047.49C614.535 1048.22 614.153 1049.1 614.037 1050.04C613.921 1050.98 614.077 1051.93 614.484 1052.78C615.352 1054.61 617.201 1055.75 619.312 1055.75H662.75C664.851 1055.75 666.687 1054.61 667.558 1052.79C667.967 1051.94 668.124 1050.99 668.009 1050.05C667.894 1049.11 667.512 1048.23 666.909 1047.5ZM641.023 1067C643.055 1067 645.049 1066.45 646.793 1065.4C648.537 1064.36 649.966 1062.87 650.929 1061.08C650.974 1060.99 650.997 1060.89 650.994 1060.8C650.991 1060.7 650.963 1060.61 650.913 1060.52C650.863 1060.44 650.792 1060.37 650.708 1060.32C650.623 1060.27 650.528 1060.25 650.431 1060.25H631.618C631.521 1060.25 631.425 1060.27 631.341 1060.32C631.256 1060.37 631.185 1060.44 631.135 1060.52C631.085 1060.6 631.057 1060.7 631.054 1060.8C631.051 1060.89 631.073 1060.99 631.119 1061.08C632.082 1062.86 633.51 1064.36 635.254 1065.4C636.998 1066.45 638.991 1067 641.023 1067Z" fill="url(#paint2_linear_1182_732)"/>
</g>
<defs>
<filter id="filter0_d_1182_732" x="610" y="1004" width="62.0454" height="71" filterUnits="userSpaceOnUse" color-interpolation-filters="sRGB">
<feFlood flood-opacity="0" result="BackgroundImageFix"/>
<feColorMatrix in="SourceAlpha" type="matrix" values="0 0 0 0 0 0 0 0 0 0 0 0 0 0 0 0 0 0 127 0" result="hardAlpha"/>
<feOffset dy="4"/>
<feGaussianBlur stdDeviation="2"/>
<feComposite in2="hardAlpha" operator="out"/>
<feColorMatrix type="matrix" values="0 0 0 0 0 0 0 0 0 0 0 0 0 0 0 0 0 0 0.25 0"/>
<feBlend mode="normal" in2="BackgroundImageFix" result="effect1_dropShadow_1182_732"/>
<feBlend mode="normal" in="SourceGraphic" in2="effect1_dropShadow_1182_732" result="shape"/>
</filter>
<linearGradient id="paint0_linear_1182_732" x1="641" y1="1007.75" x2="641" y2="1094" gradientUnits="userSpaceOnUse">
<stop stop-opacity="0"/>
<stop offset="0.972871" stop-opacity="0.24"/>
<stop offset="1" stop-opacity="0.41"/>
</linearGradient>
<linearGradient id="paint1_linear_1182_732" x1="641" y1="974" x2="641" y2="1051.81" gradientUnits="userSpaceOnUse">
<stop stop-color="white" stop-opacity="0.2"/>
<stop offset="1" stop-color="white" stop-opacity="0"/>
</linearGradient>
<linearGradient id="paint2_linear_1182_732" x1="668.046" y1="1037.6" x2="614" y2="1037.6" gradientUnits="userSpaceOnUse">
<stop stop-color="#FF4281"/>
<stop offset="1" stop-color="#FF7676"/>
</linearGradient>
</defs>
</svg>
