<svg width="1480" height="1168" viewBox="0 0 1480 1168" fill="none" xmlns="http://www.w3.org/2000/svg">
<g opacity="0.3">
<path d="M335 817H407C419.15 817 429 826.85 429 839V911C429 923.15 419.15 933 407 933H335C322.85 933 313 923.15 313 911V839C313 826.85 322.85 817 335 817Z" fill="#868686"/>
<path d="M335 817H407C419.15 817 429 826.85 429 839V911C429 923.15 419.15 933 407 933H335C322.85 933 313 923.15 313 911V839C313 826.85 322.85 817 335 817Z" fill="url(#paint0_linear_1175_99)"/>
<path d="M335 817H407C419.15 817 429 826.85 429 839V911C429 923.15 419.15 933 407 933H335C322.85 933 313 923.15 313 911V839C313 826.85 322.85 817 335 817Z" fill="url(#paint1_linear_1175_99)"/>
<path d="M335 817H407C419.15 817 429 826.85 429 839V911C429 923.15 419.15 933 407 933H335C322.85 933 313 923.15 313 911V839C313 826.85 322.85 817 335 817Z" stroke="white" stroke-width="4"/>
</g>
<g filter="url(#filter0_d_1175_99)">
<path d="M405.674 862.428C406.124 863.652 405.744 865.016 404.774 865.887L398.685 871.428C398.84 872.595 398.924 873.791 398.924 875C398.924 876.209 398.84 877.405 398.685 878.572L404.774 884.112C405.744 884.984 406.124 886.348 405.674 887.572C405.055 889.245 404.31 890.848 403.452 892.395L402.791 893.534C401.863 895.081 400.822 896.544 399.683 897.922C398.854 898.934 397.476 899.272 396.238 898.878L388.405 896.389C386.521 897.837 384.44 899.047 382.218 899.961L380.46 907.991C380.179 909.27 379.194 910.283 377.901 910.494C375.96 910.817 373.963 910.986 371.924 910.986C369.885 910.986 367.888 910.817 365.947 910.494C364.654 910.283 363.669 909.27 363.388 907.991L361.63 899.961C359.408 899.047 357.327 897.837 355.443 896.389L347.624 898.892C346.387 899.286 345.008 898.934 344.179 897.936C343.04 896.558 341.999 895.095 341.071 893.548L340.41 892.409C339.552 890.862 338.807 889.259 338.188 887.586C337.738 886.362 338.118 884.998 339.088 884.127L345.177 878.586C345.022 877.405 344.938 876.209 344.938 875C344.938 873.791 345.022 872.595 345.177 871.428L339.088 865.887C338.118 865.016 337.738 863.652 338.188 862.428C338.807 860.755 339.552 859.152 340.41 857.605L341.071 856.466C341.999 854.919 343.04 853.456 344.179 852.078C345.008 851.066 346.387 850.728 347.624 851.122L355.457 853.611C357.341 852.162 359.422 850.953 361.644 850.039L363.402 842.009C363.683 840.73 364.668 839.717 365.962 839.506C367.902 839.169 369.899 839 371.938 839C373.977 839 375.974 839.169 377.915 839.492C379.208 839.703 380.193 840.716 380.474 841.995L382.232 850.025C384.454 850.939 386.535 852.148 388.419 853.597L396.252 851.108C397.49 850.714 398.868 851.066 399.697 852.064C400.837 853.442 401.877 854.905 402.805 856.452L403.466 857.591C404.324 859.137 405.069 860.741 405.688 862.414L405.674 862.428ZM371.938 886.25C374.922 886.25 377.783 885.065 379.893 882.955C382.003 880.845 383.188 877.984 383.188 875C383.188 872.016 382.003 869.155 379.893 867.045C377.783 864.935 374.922 863.75 371.938 863.75C368.954 863.75 366.093 864.935 363.983 867.045C361.873 869.155 360.688 872.016 360.688 875C360.688 877.984 361.873 880.845 363.983 882.955C366.093 885.065 368.954 886.25 371.938 886.25Z" fill="url(#paint2_linear_1175_99)"/>
</g>
<defs>
<filter id="filter0_d_1175_99" x="334" y="839" width="75.8623" height="79.9863" filterUnits="userSpaceOnUse" color-interpolation-filters="sRGB">
<feFlood flood-opacity="0" result="BackgroundImageFix"/>
<feColorMatrix in="SourceAlpha" type="matrix" values="0 0 0 0 0 0 0 0 0 0 0 0 0 0 0 0 0 0 127 0" result="hardAlpha"/>
<feOffset dy="4"/>
<feGaussianBlur stdDeviation="2"/>
<feComposite in2="hardAlpha" operator="out"/>
<feColorMatrix type="matrix" values="0 0 0 0 0 0 0 0 0 0 0 0 0 0 0 0 0 0 0.25 0"/>
<feBlend mode="normal" in2="BackgroundImageFix" result="effect1_dropShadow_1175_99"/>
<feBlend mode="normal" in="SourceGraphic" in2="effect1_dropShadow_1175_99" result="shape"/>
</filter>
<linearGradient id="paint0_linear_1175_99" x1="371" y1="848.75" x2="371" y2="935" gradientUnits="userSpaceOnUse">
<stop stop-opacity="0"/>
<stop offset="0.972871" stop-opacity="0.24"/>
<stop offset="1" stop-opacity="0.41"/>
</linearGradient>
<linearGradient id="paint1_linear_1175_99" x1="371" y1="815" x2="371" y2="892.813" gradientUnits="userSpaceOnUse">
<stop stop-color="white" stop-opacity="0.2"/>
<stop offset="1" stop-color="white" stop-opacity="0"/>
</linearGradient>
<linearGradient id="paint2_linear_1175_99" x1="405.862" y1="877.393" x2="338" y2="877.393" gradientUnits="userSpaceOnUse">
<stop stop-color="#FF4281"/>
<stop offset="1" stop-color="#FF7676"/>
</linearGradient>
</defs>
</svg>
