<svg width="1480" height="1168" viewBox="0 0 1480 1168" fill="none" xmlns="http://www.w3.org/2000/svg">
<g filter="url(#filter0_d_1175_20)">
<path d="M632 274.5H848C883.07 274.5 911.5 302.93 911.5 338V830C911.5 865.07 883.07 893.5 848 893.5H632C596.93 893.5 568.5 865.07 568.5 830V338C568.5 302.93 596.93 274.5 632 274.5Z" stroke="url(#paint0_linear_1175_20)"/>
<path d="M718 294.5H762C769.456 294.5 775.5 300.544 775.5 308C775.5 315.456 769.456 321.5 762 321.5H718C710.544 321.5 704.5 315.456 704.5 308C704.5 300.544 710.544 294.5 718 294.5Z" stroke="url(#paint1_linear_1175_20)"/>
<path d="M740 678.812C731.656 678.812 723.5 681.287 716.562 685.922C709.624 690.558 704.217 697.147 701.024 704.856C697.831 712.564 696.995 721.047 698.623 729.23C700.251 737.414 704.269 744.931 710.169 750.831C716.069 756.731 723.586 760.749 731.77 762.377C739.953 764.005 748.436 763.169 756.144 759.976C763.853 756.783 770.442 751.376 775.078 744.438C779.713 737.5 782.188 729.344 782.188 721C782.175 709.815 777.727 699.092 769.818 691.182C761.908 683.273 751.185 678.825 740 678.812ZM740 759.812C732.324 759.812 724.82 757.536 718.437 753.271C712.054 749.007 707.08 742.945 704.142 735.853C701.204 728.761 700.436 720.957 701.933 713.428C703.431 705.899 707.127 698.983 712.555 693.555C717.983 688.127 724.899 684.431 732.428 682.933C739.957 681.436 747.761 682.204 754.853 685.142C761.945 688.08 768.007 693.054 772.271 699.437C776.536 705.82 778.813 713.324 778.813 721C778.801 731.29 774.709 741.156 767.432 748.432C760.156 755.709 750.29 759.801 740 759.812ZM754.437 719.595L734.187 706.095C733.932 705.926 733.637 705.828 733.332 705.813C733.026 705.799 732.723 705.867 732.454 706.011C732.184 706.155 731.959 706.37 731.802 706.632C731.645 706.895 731.562 707.194 731.563 707.5V734.5C731.562 734.806 731.645 735.105 731.802 735.368C731.958 735.63 732.183 735.845 732.453 735.989C732.722 736.134 733.026 736.202 733.331 736.187C733.637 736.172 733.932 736.075 734.187 735.905L754.437 722.405C754.668 722.251 754.858 722.042 754.989 721.797C755.12 721.552 755.189 721.278 755.189 721C755.189 720.722 755.12 720.448 754.989 720.203C754.858 719.958 754.668 719.749 754.437 719.595ZM734.938 731.349V710.651L750.458 721L734.938 731.349Z" fill="url(#paint2_linear_1175_20)"/>
</g>
<rect x="592.5" y="365.5" width="294" height="258" rx="24.5" stroke="url(#paint3_linear_1175_20)"/>
<path d="M462.226 641L468 635.226L473.774 641L468 646.774L462.226 641ZM583.774 504L578 509.774L572.227 504L578 498.227L583.774 504ZM468 640H470.213V642H468V640ZM474.639 640H476.852V642H474.639V640ZM476.852 640C477.494 640 478.133 639.984 478.767 639.954L478.864 641.951C478.197 641.984 477.526 642 476.852 642V640ZM482.578 639.583C483.85 639.396 485.103 639.147 486.332 638.84L486.817 640.78C485.524 641.103 484.207 641.365 482.869 641.561L482.578 639.583ZM489.995 637.73C491.202 637.298 492.381 636.809 493.53 636.264L494.386 638.072C493.178 638.644 491.938 639.159 490.669 639.613L489.995 637.73ZM496.904 634.457C498 633.799 499.062 633.088 500.085 632.328L501.277 633.933C500.202 634.732 499.086 635.48 497.934 636.172L496.904 634.457ZM503.043 629.898C503.988 629.04 504.892 628.136 505.75 627.191L507.231 628.534C506.33 629.528 505.38 630.478 504.386 631.379L503.043 629.898ZM508.18 624.233C508.94 623.21 509.651 622.148 510.309 621.052L512.024 622.082C511.331 623.234 510.584 624.35 509.785 625.425L508.18 624.233ZM512.116 617.678C512.661 616.529 513.15 615.35 513.582 614.143L515.465 614.817C515.011 616.086 514.496 617.326 513.924 618.534L512.116 617.678ZM514.692 610.48C514.999 609.251 515.248 607.999 515.435 606.726L517.413 607.017C517.217 608.355 516.955 609.672 516.632 610.965L514.692 610.48ZM515.806 602.915C515.836 602.281 515.852 601.642 515.852 601H517.852C517.852 601.674 517.836 602.345 517.803 603.012L515.806 602.915ZM515.852 601V598.964H517.852V601H515.852ZM515.852 594.893V590.821H517.852V594.893H515.852ZM515.852 586.75V582.679H517.852V586.75H515.852ZM515.852 578.607V574.536H517.852V578.607H515.852ZM515.852 570.464V566.393H517.852V570.464H515.852ZM515.852 562.321V558.25H517.852V562.321H515.852ZM515.852 554.179V550.107H517.852V554.179H515.852ZM515.852 546.036V544H517.852V546.036H515.852ZM515.852 544C515.852 543.326 515.868 542.655 515.9 541.988L517.898 542.085C517.867 542.719 517.852 543.358 517.852 544H515.852ZM516.29 537.983C516.487 536.645 516.749 535.328 517.072 534.035L519.012 534.52C518.705 535.749 518.456 537.001 518.269 538.274L516.29 537.983ZM518.239 530.183C518.693 528.914 519.208 527.674 519.78 526.466L521.588 527.322C521.043 528.471 520.554 529.65 520.122 530.857L518.239 530.183ZM521.68 522.918C522.372 521.766 523.12 520.65 523.919 519.575L525.524 520.767C524.764 521.79 524.053 522.852 523.395 523.948L521.68 522.918ZM526.473 516.466C527.374 515.472 528.324 514.522 529.318 513.621L530.661 515.102C529.716 515.96 528.812 516.864 527.954 517.809L526.473 516.466ZM532.427 511.067C533.502 510.268 534.618 509.52 535.77 508.828L536.8 510.543C535.704 511.201 534.642 511.912 533.619 512.672L532.427 511.067ZM539.318 506.928C540.526 506.356 541.766 505.841 543.035 505.387L543.709 507.27C542.502 507.702 541.323 508.191 540.174 508.736L539.318 506.928ZM546.887 504.22C548.18 503.897 549.497 503.635 550.835 503.439L551.126 505.417C549.853 505.604 548.601 505.853 547.372 506.16L546.887 504.22ZM554.84 503.049C555.507 503.016 556.178 503 556.852 503V505C556.21 505 555.571 505.016 554.937 505.046L554.84 503.049ZM556.852 503H558.614V505H556.852V503ZM562.139 503H565.664V505H562.139V503ZM569.188 503H572.713V505H569.188V503ZM576.238 503H578V505H576.238V503Z" fill="url(#paint4_linear_1175_20)"/>
<path d="M896.226 504L902 498.226L907.774 504L902 509.774L896.226 504ZM1017.77 414L1012 419.773L1006.23 414L1012 408.226L1017.77 414ZM902 503H904.213V505H902V503ZM908.639 503H910.852V505H908.639V503ZM910.852 503C911.494 503 912.133 502.984 912.767 502.954L912.864 504.951C912.197 504.984 911.526 505 910.852 505V503ZM916.578 502.583C917.85 502.396 919.103 502.147 920.332 501.84L920.817 503.78C919.524 504.103 918.207 504.365 916.869 504.561L916.578 502.583ZM923.995 500.73C925.202 500.298 926.381 499.809 927.53 499.264L928.386 501.072C927.178 501.644 925.938 502.159 924.669 502.613L923.995 500.73ZM930.904 497.457C932 496.799 933.062 496.088 934.085 495.328L935.277 496.933C934.202 497.732 933.086 498.48 931.934 499.172L930.904 497.457ZM937.043 492.898C937.988 492.04 938.892 491.136 939.75 490.191L941.231 491.534C940.33 492.528 939.38 493.478 938.386 494.379L937.043 492.898ZM942.18 487.233C942.94 486.21 943.651 485.148 944.309 484.052L946.024 485.082C945.331 486.234 944.584 487.35 943.785 488.425L942.18 487.233ZM946.116 480.678C946.661 479.529 947.15 478.35 947.582 477.143L949.465 477.817C949.011 479.086 948.496 480.326 947.924 481.534L946.116 480.678ZM948.692 473.48C948.999 472.251 949.248 470.999 949.435 469.726L951.413 470.017C951.217 471.355 950.955 472.672 950.632 473.965L948.692 473.48ZM949.806 465.915C949.836 465.281 949.852 464.642 949.852 464H951.852C951.852 464.674 951.836 465.345 951.803 466.012L949.806 465.915ZM949.852 464V461.5H951.852V464H949.852ZM949.852 456.5V454H951.852V456.5H949.852ZM949.852 454C949.852 453.326 949.868 452.655 949.9 451.988L951.898 452.085C951.867 452.719 951.852 453.358 951.852 454H949.852ZM950.29 447.983C950.487 446.645 950.749 445.328 951.072 444.035L953.012 444.52C952.705 445.749 952.456 447.001 952.269 448.274L950.29 447.983ZM952.239 440.183C952.693 438.914 953.208 437.674 953.78 436.466L955.588 437.322C955.043 438.471 954.554 439.65 954.122 440.857L952.239 440.183ZM955.68 432.918C956.372 431.766 957.12 430.65 957.919 429.575L959.524 430.767C958.764 431.79 958.053 432.852 957.395 433.948L955.68 432.918ZM960.473 426.466C961.374 425.472 962.324 424.522 963.318 423.621L964.661 425.102C963.716 425.96 962.812 426.864 961.954 427.809L960.473 426.466ZM966.427 421.067C967.502 420.268 968.618 419.52 969.77 418.828L970.8 420.543C969.704 421.201 968.642 421.912 967.619 422.672L966.427 421.067ZM973.318 416.928C974.526 416.356 975.766 415.841 977.035 415.387L977.709 417.27C976.502 417.702 975.323 418.191 974.174 418.736L973.318 416.928ZM980.887 414.22C982.18 413.897 983.497 413.635 984.835 413.439L985.126 415.417C983.853 415.604 982.601 415.853 981.372 416.16L980.887 414.22ZM988.84 413.049C989.507 413.016 990.178 413 990.852 413V415C990.21 415 989.571 415.016 988.937 415.046L988.84 413.049ZM990.852 413H992.614V415H990.852V413ZM996.139 413H999.664V415H996.139V413ZM1003.19 413H1006.71V415H1003.19V413ZM1010.24 413H1012V415H1010.24V413Z" fill="url(#paint5_linear_1175_20)"/>
<path d="M851 386.667C849.527 386.667 848.333 385.473 848.333 384C848.333 382.527 849.527 381.333 851 381.333C852.473 381.333 853.667 382.527 853.667 384C853.667 385.473 852.473 386.667 851 386.667ZM794 228.667C792.527 228.667 791.333 227.473 791.333 226C791.333 224.527 792.527 223.333 794 223.333C795.473 223.333 796.667 224.527 796.667 226C796.667 227.473 795.473 228.667 794 228.667ZM794 284.5L793.5 284.5L794 284.5ZM851 341.5L851.5 341.5L851 341.5ZM850.5 384L850.5 383.034L851.5 383.034L851.5 384L850.5 384ZM850.5 381.102L850.5 379.17L851.5 379.17L851.5 381.102L850.5 381.102ZM850.5 377.239L850.5 375.307L851.5 375.307L851.5 377.239L850.5 377.239ZM850.5 373.375L850.5 371.443L851.5 371.443L851.5 373.375L850.5 373.375ZM850.5 369.511L850.5 367.58L851.5 367.58L851.5 369.511L850.5 369.511ZM850.5 365.648L850.5 363.716L851.5 363.716L851.5 365.648L850.5 365.648ZM850.5 361.784L850.5 359.852L851.5 359.852L851.5 361.784L850.5 361.784ZM850.5 357.92L850.5 355.989L851.5 355.989L851.5 357.92L850.5 357.92ZM850.5 354.057L850.5 352.125L851.5 352.125L851.5 354.057L850.5 354.057ZM850.5 350.193L850.5 348.261L851.5 348.261L851.5 350.193L850.5 350.193ZM850.5 346.33L850.5 344.398L851.5 344.398L851.5 346.33L850.5 346.33ZM850.5 342.466L850.5 341.5L851.5 341.5L851.5 342.466L850.5 342.466ZM850.5 341.5C850.5 341.165 850.494 340.831 850.482 340.498L851.482 340.463C851.494 340.807 851.5 341.153 851.5 341.5L850.5 341.5ZM850.342 338.505C850.271 337.838 850.176 337.178 850.059 336.525L851.044 336.349C851.165 337.025 851.263 337.708 851.336 338.399L850.342 338.505ZM849.637 334.573C849.472 333.924 849.284 333.284 849.074 332.654L850.023 332.339C850.24 332.991 850.435 333.654 850.606 334.326L849.637 334.573ZM848.376 330.782C848.12 330.165 847.842 329.558 847.544 328.964L848.438 328.516C848.747 329.131 849.034 329.759 849.299 330.399L848.376 330.782ZM846.585 327.211C846.243 326.637 845.882 326.077 845.502 325.53L846.323 324.959C846.717 325.525 847.091 326.105 847.444 326.7L846.585 327.211ZM844.303 323.931C843.884 323.412 843.447 322.908 842.993 322.42L843.725 321.739C844.195 322.244 844.648 322.765 845.081 323.303L844.303 323.931ZM841.58 321.007C841.092 320.553 840.588 320.116 840.069 319.697L840.697 318.919C841.235 319.352 841.756 319.805 842.261 320.275L841.58 321.007ZM838.47 318.498C837.923 318.118 837.363 317.757 836.789 317.415L837.3 316.556C837.895 316.909 838.475 317.283 839.041 317.677L838.47 318.498ZM835.036 316.456C834.442 316.158 833.835 315.88 833.218 315.624L833.601 314.701C834.241 314.966 834.869 315.253 835.484 315.562L835.036 316.456ZM831.346 314.926C830.716 314.716 830.076 314.528 829.427 314.363L829.674 313.394C830.346 313.565 831.009 313.76 831.661 313.977L831.346 314.926ZM827.475 313.941C826.822 313.824 826.162 313.729 825.495 313.658L825.601 312.664C826.292 312.737 826.975 312.835 827.651 312.956L827.475 313.941ZM823.502 313.518C823.169 313.506 822.835 313.5 822.5 313.5L822.5 312.5C822.847 312.5 823.193 312.506 823.537 312.518L823.502 313.518ZM822.5 313.5C822.153 313.5 821.807 313.494 821.463 313.482L821.498 312.482C821.831 312.494 822.165 312.5 822.5 312.5L822.5 313.5ZM819.399 313.336C818.708 313.263 818.025 313.165 817.349 313.044L817.525 312.06C818.178 312.176 818.838 312.271 819.505 312.342L819.399 313.336ZM815.326 312.606C814.654 312.435 813.991 312.24 813.339 312.023L813.654 311.074C814.284 311.284 814.924 311.472 815.573 311.637L815.326 312.606ZM811.399 311.299C810.759 311.034 810.131 310.747 809.516 310.438L809.964 309.544C810.558 309.842 811.165 310.12 811.782 310.376L811.399 311.299ZM807.7 309.444C807.105 309.091 806.525 308.717 805.959 308.323L806.53 307.502C807.077 307.882 807.637 308.243 808.211 308.585L807.7 309.444ZM804.303 307.081C803.765 306.648 803.244 306.195 802.739 305.725L803.42 304.993C803.908 305.447 804.412 305.884 804.931 306.303L804.303 307.081ZM801.275 304.261C800.805 303.756 800.352 303.235 799.919 302.697L800.697 302.069C801.116 302.588 801.553 303.092 802.007 303.58L801.275 304.261ZM798.677 301.041C798.283 300.475 797.909 299.895 797.556 299.3L798.415 298.789C798.757 299.363 799.118 299.923 799.498 300.47L798.677 301.041ZM796.562 297.484C796.253 296.869 795.966 296.241 795.701 295.601L796.624 295.218C796.88 295.835 797.158 296.442 797.456 297.036L796.562 297.484ZM794.977 293.661C794.76 293.009 794.565 292.346 794.394 291.674L795.363 291.427C795.528 292.076 795.716 292.716 795.926 293.346L794.977 293.661ZM793.956 289.651C793.835 288.975 793.737 288.292 793.664 287.601L794.658 287.495C794.729 288.162 794.824 288.822 794.94 289.475L793.956 289.651ZM793.518 285.537C793.506 285.193 793.5 284.847 793.5 284.5L794.5 284.5C794.5 284.835 794.506 285.169 794.518 285.502L793.518 285.537ZM793.5 284.5L793.5 283.525L794.5 283.525L794.5 284.5L793.5 284.5ZM793.5 281.575L793.5 279.625L794.5 279.625L794.5 281.575L793.5 281.575ZM793.5 277.675L793.5 275.725L794.5 275.725L794.5 277.675L793.5 277.675ZM793.5 273.775L793.5 271.825L794.5 271.825L794.5 273.775L793.5 273.775ZM793.5 269.875L793.5 267.925L794.5 267.925L794.5 269.875L793.5 269.875ZM793.5 265.975L793.5 264.025L794.5 264.025L794.5 265.975L793.5 265.975ZM793.5 262.075L793.5 260.125L794.5 260.125L794.5 262.075L793.5 262.075ZM793.5 258.175L793.5 256.225L794.5 256.225L794.5 258.175L793.5 258.175ZM793.5 254.275L793.5 252.325L794.5 252.325L794.5 254.275L793.5 254.275ZM793.5 250.375L793.5 248.425L794.5 248.425L794.5 250.375L793.5 250.375ZM793.5 246.475L793.5 244.525L794.5 244.525L794.5 246.475L793.5 246.475ZM793.5 242.575L793.5 240.625L794.5 240.625L794.5 242.575L793.5 242.575ZM793.5 238.675L793.5 236.725L794.5 236.725L794.5 238.675L793.5 238.675ZM793.5 234.775L793.5 232.825L794.5 232.825L794.5 234.775L793.5 234.775ZM793.5 230.875L793.5 228.925L794.5 228.925L794.5 230.875L793.5 230.875ZM793.5 226.975L793.5 226L794.5 226L794.5 226.975L793.5 226.975Z" fill="url(#paint6_linear_1175_20)"/>
<path d="M468 410.667C469.473 410.667 470.667 409.473 470.667 408C470.667 406.527 469.473 405.333 468 405.333C466.527 405.333 465.333 406.527 465.333 408C465.333 409.473 466.527 410.667 468 410.667ZM530 228.667C531.473 228.667 532.667 227.473 532.667 226C532.667 224.527 531.473 223.333 530 223.333C528.527 223.333 527.333 224.527 527.333 226C527.333 227.473 528.527 228.667 530 228.667ZM468 408.5L469.1 408.5L469.1 407.5L468 407.5L468 408.5ZM471.3 408.5L473.5 408.5L473.5 407.5L471.3 407.5L471.3 408.5ZM475.7 408.5L477.9 408.5L477.9 407.5L475.7 407.5L475.7 408.5ZM480.1 408.5L482.3 408.5L482.3 407.5L480.1 407.5L480.1 408.5ZM484.5 408.5L486.7 408.5L486.7 407.5L484.5 407.5L484.5 408.5ZM488.9 408.5L490 408.5L490 407.5L488.9 407.5L488.9 408.5ZM490 408.5C490.333 408.5 490.665 408.496 490.997 408.488L490.973 407.488C490.649 407.496 490.325 407.5 490 407.5L490 408.5ZM492.982 408.392C493.646 408.344 494.305 408.279 494.96 408.199L494.839 407.207C494.2 407.285 493.557 407.347 492.909 407.395L492.982 408.392ZM496.927 407.91C497.582 407.797 498.233 407.668 498.877 407.524L498.659 406.548C498.03 406.689 497.396 406.814 496.757 406.924L496.927 407.91ZM500.806 407.042C501.447 406.865 502.081 406.673 502.709 406.466L502.395 405.516C501.783 405.718 501.164 405.906 500.54 406.078L500.806 407.042ZM504.58 405.796C505.2 405.557 505.812 405.303 506.417 405.034L506.011 404.12C505.422 404.382 504.825 404.63 504.22 404.863L504.58 405.796ZM508.214 404.183C508.806 403.884 509.391 403.571 509.966 403.244L509.472 402.375C508.911 402.693 508.341 402.999 507.763 403.29L508.214 404.183ZM511.67 402.221C512.23 401.865 512.781 401.497 513.322 401.115L512.746 400.298C512.218 400.67 511.681 401.03 511.134 401.376L511.67 402.221ZM514.918 399.929C515.44 399.521 515.953 399.1 516.454 398.667L515.8 397.911C515.311 398.333 514.812 398.743 514.302 399.142L514.918 399.929ZM517.926 397.332C518.406 396.875 518.875 396.406 519.332 395.926L518.608 395.237C518.162 395.705 517.705 396.162 517.237 396.608L517.926 397.332ZM520.667 394.454C521.1 393.953 521.521 393.44 521.929 392.918L521.141 392.302C520.743 392.812 520.333 393.311 519.911 393.8L520.667 394.454ZM523.115 391.322C523.497 390.781 523.865 390.23 524.221 389.67L523.376 389.134C523.03 389.681 522.67 390.218 522.298 390.746L523.115 391.322ZM525.244 387.966C525.571 387.391 525.884 386.806 526.183 386.214L525.29 385.763C524.999 386.341 524.693 386.911 524.375 387.472L525.244 387.966ZM527.034 384.417C527.303 383.812 527.557 383.2 527.796 382.58L526.863 382.22C526.63 382.825 526.382 383.422 526.12 384.011L527.034 384.417ZM528.466 380.709C528.673 380.081 528.865 379.447 529.042 378.806L528.078 378.54C527.906 379.164 527.718 379.783 527.516 380.395L528.466 380.709ZM529.524 376.877C529.668 376.233 529.797 375.582 529.91 374.927L528.924 374.757C528.814 375.396 528.689 376.03 528.548 376.659L529.524 376.877ZM530.199 372.96C530.279 372.305 530.344 371.646 530.392 370.982L529.395 370.909C529.347 371.557 529.285 372.2 529.207 372.839L530.199 372.96ZM530.488 368.997C530.496 368.665 530.5 368.333 530.5 368L529.5 368C529.5 368.325 529.496 368.649 529.488 368.973L530.488 368.997ZM530.5 368L530.5 367.014L529.5 367.014L529.5 368L530.5 368ZM530.5 365.042L530.5 363.069L529.5 363.069L529.5 365.042L530.5 365.042ZM530.5 361.097L530.5 359.125L529.5 359.125L529.5 361.097L530.5 361.097ZM530.5 357.153L530.5 355.181L529.5 355.181L529.5 357.153L530.5 357.153ZM530.5 353.208L530.5 351.236L529.5 351.236L529.5 353.208L530.5 353.208ZM530.5 349.264L530.5 347.292L529.5 347.292L529.5 349.264L530.5 349.264ZM530.5 345.319L530.5 343.347L529.5 343.347L529.5 345.319L530.5 345.319ZM530.5 341.375L530.5 339.403L529.5 339.403L529.5 341.375L530.5 341.375ZM530.5 337.431L530.5 335.458L529.5 335.458L529.5 337.431L530.5 337.431ZM530.5 333.486L530.5 331.514L529.5 331.514L529.5 333.486L530.5 333.486ZM530.5 329.542L530.5 327.569L529.5 327.569L529.5 329.542L530.5 329.542ZM530.5 325.597L530.5 323.625L529.5 323.625L529.5 325.597L530.5 325.597ZM530.5 321.653L530.5 319.681L529.5 319.681L529.5 321.653L530.5 321.653ZM530.5 317.708L530.5 315.736L529.5 315.736L529.5 317.708L530.5 317.708ZM530.5 313.764L530.5 311.792L529.5 311.792L529.5 313.764L530.5 313.764ZM530.5 309.819L530.5 307.847L529.5 307.847L529.5 309.819L530.5 309.819ZM530.5 305.875L530.5 303.903L529.5 303.903L529.5 305.875L530.5 305.875ZM530.5 301.931L530.5 299.958L529.5 299.958L529.5 301.931L530.5 301.931ZM530.5 297.986L530.5 296.014L529.5 296.014L529.5 297.986L530.5 297.986ZM530.5 294.042L530.5 292.069L529.5 292.069L529.5 294.042L530.5 294.042ZM530.5 290.097L530.5 288.125L529.5 288.125L529.5 290.097L530.5 290.097ZM530.5 286.153L530.5 284.181L529.5 284.181L529.5 286.153L530.5 286.153ZM530.5 282.208L530.5 280.236L529.5 280.236L529.5 282.208L530.5 282.208ZM530.5 278.264L530.5 276.292L529.5 276.292L529.5 278.264L530.5 278.264ZM530.5 274.319L530.5 272.347L529.5 272.347L529.5 274.319L530.5 274.319ZM530.5 270.375L530.5 268.403L529.5 268.403L529.5 270.375L530.5 270.375ZM530.5 266.431L530.5 264.458L529.5 264.458L529.5 266.431L530.5 266.431ZM530.5 262.486L530.5 260.514L529.5 260.514L529.5 262.486L530.5 262.486ZM530.5 258.542L530.5 256.569L529.5 256.569L529.5 258.542L530.5 258.542ZM530.5 254.597L530.5 252.625L529.5 252.625L529.5 254.597L530.5 254.597ZM530.5 250.653L530.5 248.681L529.5 248.681L529.5 250.653L530.5 250.653ZM530.5 246.708L530.5 244.736L529.5 244.736L529.5 246.708L530.5 246.708ZM530.5 242.764L530.5 240.792L529.5 240.792L529.5 242.764L530.5 242.764ZM530.5 238.819L530.5 236.847L529.5 236.847L529.5 238.819L530.5 238.819ZM530.5 234.875L530.5 232.903L529.5 232.903L529.5 234.875L530.5 234.875ZM530.5 230.931L530.5 228.958L529.5 228.958L529.5 230.931L530.5 230.931ZM530.5 226.986L530.5 226L529.5 226L529.5 226.986L530.5 226.986Z" fill="url(#paint7_linear_1175_20)"/>
<path d="M1121 1001.67C1122.47 1001.67 1123.67 1000.47 1123.67 999C1123.67 997.527 1122.47 996.333 1121 996.333C1119.53 996.333 1118.33 997.527 1118.33 999C1118.33 1000.47 1119.53 1001.67 1121 1001.67ZM1192 849.667C1193.47 849.667 1194.67 848.473 1194.67 847C1194.67 845.527 1193.47 844.333 1192 844.333C1190.53 844.333 1189.33 845.527 1189.33 847C1189.33 848.473 1190.53 849.667 1192 849.667ZM1121 999.5L1121.97 999.5L1121.97 998.5L1121 998.5L1121 999.5ZM1123.91 999.5L1125.84 999.5L1125.84 998.5L1123.91 998.5L1123.91 999.5ZM1127.78 999.5L1129.72 999.5L1129.72 998.5L1127.78 998.5L1127.78 999.5ZM1131.66 999.5L1133.59 999.5L1133.59 998.5L1131.66 998.5L1131.66 999.5ZM1135.53 999.5L1137.47 999.5L1137.47 998.5L1135.53 998.5L1135.53 999.5ZM1139.41 999.5L1141.34 999.5L1141.34 998.5L1139.41 998.5L1139.41 999.5ZM1143.28 999.5L1145.22 999.5L1145.22 998.5L1143.28 998.5L1143.28 999.5ZM1147.16 999.5L1149.09 999.5L1149.09 998.5L1147.16 998.5L1147.16 999.5ZM1151.03 999.5L1152 999.5L1152 998.5L1151.03 998.5L1151.03 999.5ZM1152 999.5C1152.33 999.5 1152.67 999.496 1153 999.488L1152.97 998.488C1152.65 998.496 1152.33 998.5 1152 998.5L1152 999.5ZM1154.98 999.392C1155.65 999.344 1156.31 999.279 1156.96 999.199L1156.84 998.207C1156.2 998.285 1155.56 998.347 1154.91 998.395L1154.98 999.392ZM1158.93 998.91C1159.58 998.797 1160.23 998.668 1160.88 998.524L1160.66 997.548C1160.03 997.689 1159.4 997.814 1158.76 997.924L1158.93 998.91ZM1162.81 998.042C1163.45 997.865 1164.08 997.673 1164.71 997.466L1164.4 996.516C1163.78 996.718 1163.16 996.906 1162.54 997.078L1162.81 998.042ZM1166.58 996.796C1167.2 996.557 1167.81 996.303 1168.42 996.034L1168.01 995.12C1167.42 995.382 1166.82 995.63 1166.22 995.863L1166.58 996.796ZM1170.21 995.183C1170.81 994.884 1171.39 994.571 1171.97 994.244L1171.47 993.375C1170.91 993.693 1170.34 993.999 1169.76 994.29L1170.21 995.183ZM1173.67 993.221C1174.23 992.865 1174.78 992.497 1175.32 992.115L1174.75 991.298C1174.22 991.67 1173.68 992.03 1173.13 992.376L1173.67 993.221ZM1176.92 990.929C1177.44 990.521 1177.95 990.1 1178.45 989.667L1177.8 988.911C1177.31 989.333 1176.81 989.743 1176.3 990.142L1176.92 990.929ZM1179.93 988.332C1180.41 987.875 1180.88 987.406 1181.33 986.926L1180.61 986.237C1180.16 986.705 1179.7 987.162 1179.24 987.608L1179.93 988.332ZM1182.67 985.454C1183.1 984.953 1183.52 984.44 1183.93 983.918L1183.14 983.302C1182.74 983.812 1182.33 984.311 1181.91 984.8L1182.67 985.454ZM1185.11 982.322C1185.5 981.781 1185.87 981.23 1186.22 980.67L1185.38 980.134C1185.03 980.681 1184.67 981.218 1184.3 981.746L1185.11 982.322ZM1187.24 978.966C1187.57 978.391 1187.88 977.806 1188.18 977.214L1187.29 976.763C1187 977.341 1186.69 977.911 1186.37 978.472L1187.24 978.966ZM1189.03 975.417C1189.3 974.812 1189.56 974.2 1189.8 973.58L1188.86 973.22C1188.63 973.825 1188.38 974.422 1188.12 975.011L1189.03 975.417ZM1190.47 971.709C1190.67 971.081 1190.87 970.447 1191.04 969.806L1190.08 969.54C1189.91 970.164 1189.72 970.783 1189.52 971.395L1190.47 971.709ZM1191.52 967.877C1191.67 967.233 1191.8 966.582 1191.91 965.927L1190.92 965.757C1190.81 966.396 1190.69 967.03 1190.55 967.659L1191.52 967.877ZM1192.2 963.96C1192.28 963.305 1192.34 962.646 1192.39 961.982L1191.39 961.909C1191.35 962.557 1191.28 963.2 1191.21 963.839L1192.2 963.96ZM1192.49 959.997C1192.5 959.665 1192.5 959.333 1192.5 959L1191.5 959C1191.5 959.325 1191.5 959.649 1191.49 959.973L1192.49 959.997ZM1192.5 959L1192.5 958L1191.5 958L1191.5 959L1192.5 959ZM1192.5 956L1192.5 954L1191.5 954L1191.5 956L1192.5 956ZM1192.5 952L1192.5 950L1191.5 950L1191.5 952L1192.5 952ZM1192.5 948L1192.5 946L1191.5 946L1191.5 948L1192.5 948ZM1192.5 944L1192.5 942L1191.5 942L1191.5 944L1192.5 944ZM1192.5 940L1192.5 938L1191.5 938L1191.5 940L1192.5 940ZM1192.5 936L1192.5 934L1191.5 934L1191.5 936L1192.5 936ZM1192.5 932L1192.5 930L1191.5 930L1191.5 932L1192.5 932ZM1192.5 928L1192.5 926L1191.5 926L1191.5 928L1192.5 928ZM1192.5 924L1192.5 922L1191.5 922L1191.5 924L1192.5 924ZM1192.5 920L1192.5 918L1191.5 918L1191.5 920L1192.5 920ZM1192.5 916L1192.5 914L1191.5 914L1191.5 916L1192.5 916ZM1192.5 912L1192.5 910L1191.5 910L1191.5 912L1192.5 912ZM1192.5 908L1192.5 906L1191.5 906L1191.5 908L1192.5 908ZM1192.5 904L1192.5 902L1191.5 902L1191.5 904L1192.5 904ZM1192.5 900L1192.5 898L1191.5 898L1191.5 900L1192.5 900ZM1192.5 896L1192.5 894L1191.5 894L1191.5 896L1192.5 896ZM1192.5 892L1192.5 890L1191.5 890L1191.5 892L1192.5 892ZM1192.5 888L1192.5 886L1191.5 886L1191.5 888L1192.5 888ZM1192.5 884L1192.5 882L1191.5 882L1191.5 884L1192.5 884ZM1192.5 880L1192.5 878L1191.5 878L1191.5 880L1192.5 880ZM1192.5 876L1192.5 874L1191.5 874L1191.5 876L1192.5 876ZM1192.5 872L1192.5 870L1191.5 870L1191.5 872L1192.5 872ZM1192.5 868L1192.5 866L1191.5 866L1191.5 868L1192.5 868ZM1192.5 864L1192.5 862L1191.5 862L1191.5 864L1192.5 864ZM1192.5 860L1192.5 858L1191.5 858L1191.5 860L1192.5 860ZM1192.5 856L1192.5 854L1191.5 854L1191.5 856L1192.5 856ZM1192.5 852L1192.5 850L1191.5 850L1191.5 852L1192.5 852ZM1192.5 848L1192.5 847L1191.5 847L1191.5 848L1192.5 848Z" fill="url(#paint8_linear_1175_20)"/>
<path d="M881 707.333C882.473 707.333 883.667 708.527 883.667 710C883.667 711.473 882.473 712.667 881 712.667C879.527 712.667 878.333 711.473 878.333 710C878.333 708.527 879.527 707.333 881 707.333ZM943 922.333C944.473 922.333 945.667 923.527 945.667 925C945.667 926.473 944.473 927.667 943 927.667C941.527 927.667 940.333 926.473 940.333 925C940.333 923.527 941.527 922.333 943 922.333ZM881 709.5L882.1 709.5L882.1 710.5L881 710.5L881 709.5ZM884.3 709.5L886.5 709.5L886.5 710.5L884.3 710.5L884.3 709.5ZM888.7 709.5L890.9 709.5L890.9 710.5L888.7 710.5L888.7 709.5ZM893.1 709.5L895.3 709.5L895.3 710.5L893.1 710.5L893.1 709.5ZM897.5 709.5L899.7 709.5L899.7 710.5L897.5 710.5L897.5 709.5ZM901.9 709.5L903 709.5L903 710.5L901.9 710.5L901.9 709.5ZM903 709.5C903.333 709.5 903.665 709.504 903.997 709.512L903.973 710.512C903.649 710.504 903.325 710.5 903 710.5L903 709.5ZM905.982 709.608C906.646 709.656 907.305 709.721 907.96 709.801L907.839 710.793C907.2 710.715 906.557 710.653 905.909 710.605L905.982 709.608ZM909.927 710.09C910.582 710.203 911.233 710.332 911.877 710.476L911.659 711.452C911.03 711.311 910.396 711.186 909.757 711.076L909.927 710.09ZM913.806 710.958C914.447 711.135 915.081 711.327 915.709 711.534L915.395 712.484C914.783 712.282 914.164 712.094 913.54 711.922L913.806 710.958ZM917.58 712.204C918.2 712.443 918.812 712.697 919.417 712.966L919.011 713.88C918.422 713.618 917.825 713.37 917.22 713.137L917.58 712.204ZM921.214 713.817C921.806 714.116 922.391 714.429 922.966 714.756L922.472 715.625C921.911 715.307 921.341 715.001 920.763 714.71L921.214 713.817ZM924.67 715.779C925.23 716.135 925.781 716.503 926.322 716.885L925.746 717.702C925.218 717.33 924.681 716.97 924.134 716.624L924.67 715.779ZM927.918 718.071C928.44 718.479 928.953 718.9 929.454 719.333L928.8 720.089C928.311 719.667 927.812 719.257 927.302 718.858L927.918 718.071ZM930.926 720.668C931.406 721.125 931.875 721.594 932.332 722.074L931.608 722.763C931.162 722.295 930.705 721.838 930.237 721.392L930.926 720.668ZM933.667 723.546C934.1 724.047 934.521 724.56 934.929 725.082L934.141 725.698C933.743 725.188 933.333 724.689 932.911 724.2L933.667 723.546ZM936.115 726.678C936.497 727.219 936.865 727.77 937.221 728.33L936.376 728.866C936.03 728.319 935.67 727.782 935.298 727.254L936.115 726.678ZM938.244 730.034C938.571 730.609 938.884 731.194 939.183 731.786L938.29 732.237C937.999 731.659 937.693 731.089 937.375 730.528L938.244 730.034ZM940.034 733.583C940.303 734.188 940.557 734.8 940.796 735.42L939.863 735.78C939.63 735.175 939.382 734.578 939.12 733.989L940.034 733.583ZM941.466 737.291C941.673 737.919 941.865 738.553 942.042 739.194L941.078 739.46C940.906 738.836 940.718 738.217 940.516 737.605L941.466 737.291ZM942.524 741.123C942.668 741.767 942.797 742.418 942.91 743.073L941.924 743.243C941.814 742.604 941.689 741.97 941.548 741.341L942.524 741.123ZM943.199 745.04C943.279 745.695 943.344 746.354 943.392 747.018L942.395 747.091C942.347 746.443 942.285 745.8 942.207 745.161L943.199 745.04ZM943.488 749.003C943.496 749.335 943.5 749.667 943.5 750L942.5 750C942.5 749.675 942.496 749.351 942.488 749.027L943.488 749.003ZM943.5 750L943.5 750.994L942.5 750.994L942.5 750L943.5 750ZM943.5 752.983L943.5 754.972L942.5 754.972L942.5 752.983L943.5 752.983ZM943.5 756.96L943.5 758.949L942.5 758.949L942.5 756.96L943.5 756.96ZM943.5 760.937L943.5 762.926L942.5 762.926L942.5 760.937L943.5 760.937ZM943.5 764.915L943.5 766.903L942.5 766.903L942.5 764.915L943.5 764.915ZM943.5 768.892L943.5 770.881L942.5 770.881L942.5 768.892L943.5 768.892ZM943.5 772.869L943.5 774.858L942.5 774.858L942.5 772.869L943.5 772.869ZM943.5 776.847L943.5 778.835L942.5 778.835L942.5 776.847L943.5 776.847ZM943.5 780.824L943.5 782.812L942.5 782.812L942.5 780.824L943.5 780.824ZM943.5 784.801L943.5 786.79L942.5 786.79L942.5 784.801L943.5 784.801ZM943.5 788.778L943.5 790.767L942.5 790.767L942.5 788.778L943.5 788.778ZM943.5 792.756L943.5 794.744L942.5 794.744L942.5 792.756L943.5 792.756ZM943.5 796.733L943.5 798.722L942.5 798.722L942.5 796.733L943.5 796.733ZM943.5 800.71L943.5 802.699L942.5 802.699L942.5 800.71L943.5 800.71ZM943.5 804.687L943.5 806.676L942.5 806.676L942.5 804.687L943.5 804.687ZM943.5 808.665L943.5 810.653L942.5 810.653L942.5 808.665L943.5 808.665ZM943.5 812.642L943.5 814.631L942.5 814.631L942.5 812.642L943.5 812.642ZM943.5 816.619L943.5 818.608L942.5 818.608L942.5 816.619L943.5 816.619ZM943.5 820.597L943.5 822.585L942.5 822.585L942.5 820.597L943.5 820.597ZM943.5 824.574L943.5 826.563L942.5 826.563L942.5 824.574L943.5 824.574ZM943.5 828.551L943.5 830.54L942.5 830.54L942.5 828.551L943.5 828.551ZM943.5 832.528L943.5 834.517L942.5 834.517L942.5 832.528L943.5 832.528ZM943.5 836.506L943.5 838.494L942.5 838.494L942.5 836.506L943.5 836.506ZM943.5 840.483L943.5 842.472L942.5 842.472L942.5 840.483L943.5 840.483ZM943.5 844.46L943.5 846.449L942.5 846.449L942.5 844.46L943.5 844.46ZM943.5 848.438L943.5 850.426L942.5 850.426L942.5 848.438L943.5 848.438ZM943.5 852.415L943.5 854.403L942.5 854.403L942.5 852.415L943.5 852.415ZM943.5 856.392L943.5 858.381L942.5 858.381L942.5 856.392L943.5 856.392ZM943.5 860.369L943.5 862.358L942.5 862.358L942.5 860.369L943.5 860.369ZM943.5 864.347L943.5 866.335L942.5 866.335L942.5 864.347L943.5 864.347ZM943.5 868.324L943.5 870.313L942.5 870.313L942.5 868.324L943.5 868.324ZM943.5 872.301L943.5 874.29L942.5 874.29L942.5 872.301L943.5 872.301ZM943.5 876.279L943.5 878.267L942.5 878.267L942.5 876.279L943.5 876.279ZM943.5 880.256L943.5 882.244L942.5 882.244L942.5 880.256L943.5 880.256ZM943.5 884.233L943.5 886.222L942.5 886.222L942.5 884.233L943.5 884.233ZM943.5 888.21L943.5 890.199L942.5 890.199L942.5 888.21L943.5 888.21ZM943.5 892.188L943.5 894.176L942.5 894.176L942.5 892.188L943.5 892.188ZM943.5 896.165L943.5 898.153L942.5 898.153L942.5 896.165L943.5 896.165ZM943.5 900.142L943.5 902.131L942.5 902.131L942.5 900.142L943.5 900.142ZM943.5 904.119L943.5 906.108L942.5 906.108L942.5 904.119L943.5 904.119ZM943.5 908.097L943.5 910.085L942.5 910.085L942.5 908.097L943.5 908.097ZM943.5 912.074L943.5 914.063L942.5 914.063L942.5 912.074L943.5 912.074ZM943.5 916.051L943.5 918.04L942.5 918.04L942.5 916.051L943.5 916.051ZM943.5 920.028L943.5 922.017L942.5 922.017L942.5 920.028L943.5 920.028ZM943.5 924.006L943.5 925L942.5 925L942.5 924.006L943.5 924.006Z" fill="url(#paint9_linear_1175_20)"/>
<path d="M635 515H833" stroke="url(#paint10_linear_1175_20)" stroke-linecap="round"/>
<path d="M635 545H782" stroke="url(#paint11_linear_1175_20)" stroke-linecap="round"/>
<path d="M635 579H823" stroke="url(#paint12_linear_1175_20)" stroke-linecap="round"/>
<line x1="631" y1="809.5" x2="849" y2="809.5" stroke="url(#paint13_linear_1175_20)"/>
<circle cx="638" cy="810" r="7" fill="url(#paint14_linear_1175_20)"/>
<path d="M646 414.5H834C842.008 414.5 848.5 420.992 848.5 429V471C848.5 479.008 842.008 485.5 834 485.5H646C637.992 485.5 631.5 479.008 631.5 471V429C631.5 420.992 637.992 414.5 646 414.5Z" stroke="url(#paint15_linear_1175_20)"/>
<line y1="-0.5" x2="135.34" y2="-0.5" transform="matrix(0.96793 0.251219 -0.201742 0.979439 676 432)" stroke="url(#paint16_linear_1175_20)"/>
<line y1="-0.5" x2="135.34" y2="-0.5" transform="matrix(0.96793 -0.251219 -0.201742 -0.979439 676 466)" stroke="url(#paint17_linear_1175_20)"/>
<g filter="url(#filter1_d_1175_20)">
<path d="M198 274.5H414C449.07 274.5 477.5 302.93 477.5 338V830C477.5 865.07 449.07 893.5 414 893.5H198C162.93 893.5 134.5 865.07 134.5 830V338C134.5 302.93 162.93 274.5 198 274.5Z" stroke="url(#paint18_linear_1175_20)"/>
<path d="M284 294.5H328C335.456 294.5 341.5 300.544 341.5 308C341.5 315.456 335.456 321.5 328 321.5H284C276.544 321.5 270.5 315.456 270.5 308C270.5 300.544 276.544 294.5 284 294.5Z" stroke="url(#paint19_linear_1175_20)"/>
</g>
<path d="M313.766 781.265L306.266 788.765C306.231 788.8 306.189 788.828 306.144 788.847C306.098 788.866 306.049 788.875 306 788.875C305.951 788.875 305.902 788.866 305.857 788.847C305.811 788.828 305.77 788.8 305.735 788.765L298.235 781.265C298.2 781.23 298.172 781.189 298.154 781.144C298.135 781.098 298.125 781.049 298.125 781C298.125 780.951 298.135 780.902 298.154 780.856C298.172 780.811 298.2 780.769 298.235 780.735C298.305 780.664 298.401 780.625 298.5 780.625C298.549 780.625 298.598 780.634 298.644 780.653C298.689 780.672 298.731 780.7 298.766 780.735L306 787.969L313.235 780.735C313.27 780.7 313.311 780.672 313.357 780.653C313.402 780.634 313.451 780.625 313.5 780.625C313.549 780.625 313.598 780.634 313.644 780.653C313.689 780.672 313.731 780.7 313.766 780.735C313.8 780.769 313.828 780.811 313.847 780.856C313.866 780.902 313.875 780.951 313.875 781C313.875 781.049 313.866 781.098 313.847 781.144C313.828 781.189 313.8 781.23 313.766 781.265Z" fill="url(#paint20_linear_1175_20)"/>
<rect x="158.5" y="365.5" width="294" height="162" rx="15.5" stroke="url(#paint21_linear_1175_20)"/>
<rect x="158.5" y="557.5" width="294" height="162" rx="15.5" stroke="url(#paint22_linear_1175_20)"/>
<rect x="158.5" y="757.5" width="294" height="52" rx="15.5" stroke="url(#paint23_linear_1175_20)"/>
<path d="M295 605H404" stroke="url(#paint24_linear_1175_20)" stroke-linecap="round"/>
<path d="M295 628H350" stroke="url(#paint25_linear_1175_20)" stroke-linecap="round"/>
<path d="M295 651H348" stroke="url(#paint26_linear_1175_20)" stroke-linecap="round"/>
<path d="M295 674H355" stroke="url(#paint27_linear_1175_20)" stroke-linecap="round"/>
<rect x="186.5" y="590.5" width="83" height="97" rx="14.5" stroke="url(#paint28_linear_1175_20)"/>
<line y1="-0.5" x2="68.4804" y2="-0.5" transform="matrix(0.737102 0.675781 -0.058212 0.998304 203.339 614.5)" stroke="url(#paint29_linear_1175_20)"/>
<line y1="-0.5" x2="68.4804" y2="-0.5" transform="matrix(0.737102 -0.675781 -0.058212 -0.998304 203.339 660.778)" stroke="url(#paint30_linear_1175_20)"/>
<path d="M314.125 452.189C315.841 450.563 317.029 448.461 317.537 446.152C318.044 443.844 317.848 441.437 316.973 439.242C316.098 437.046 314.585 435.164 312.628 433.838C310.672 432.511 308.363 431.803 306 431.803C303.637 431.803 301.328 432.511 299.372 433.838C297.415 435.164 295.902 437.046 295.027 439.242C294.152 441.437 293.956 443.844 294.463 446.152C294.971 448.461 296.159 450.563 297.875 452.189C295.776 452.546 293.888 453.678 292.584 455.362C291.797 456.364 291.251 457.534 290.989 458.782C290.728 460.029 290.756 461.32 291.074 462.555L296.213 482.805C296.686 484.639 297.758 486.263 299.259 487.419C300.76 488.576 302.604 489.198 304.498 489.188H307.502C309.396 489.198 311.24 488.576 312.741 487.419C314.242 486.263 315.314 484.639 315.788 482.805L320.926 462.555C321.244 461.32 321.272 460.029 321.011 458.782C320.749 457.534 320.203 456.364 319.416 455.362C318.112 453.678 316.224 452.546 314.125 452.189ZM297.563 443.625C297.563 441.956 298.057 440.325 298.984 438.937C299.912 437.55 301.229 436.468 302.771 435.83C304.313 435.191 306.009 435.024 307.646 435.35C309.283 435.675 310.786 436.479 311.966 437.659C313.146 438.839 313.95 440.342 314.275 441.979C314.601 443.616 314.434 445.312 313.795 446.854C313.157 448.396 312.075 449.713 310.688 450.641C309.3 451.568 307.669 452.062 306 452.062C303.762 452.062 301.616 451.174 300.034 449.591C298.451 448.009 297.563 445.863 297.563 443.625ZM317.656 461.723L312.518 481.973C312.228 483.08 311.577 484.059 310.669 484.754C309.76 485.449 308.646 485.822 307.502 485.813H304.498C303.354 485.822 302.24 485.449 301.331 484.754C300.423 484.059 299.772 483.08 299.482 481.973L294.344 461.723C294.155 460.987 294.139 460.217 294.295 459.473C294.452 458.729 294.777 458.031 295.246 457.433C295.732 456.807 296.356 456.302 297.068 455.956C297.781 455.61 298.563 455.433 299.355 455.438H312.645C313.437 455.433 314.219 455.61 314.932 455.956C315.644 456.302 316.268 456.807 316.754 457.433C317.223 458.031 317.548 458.729 317.705 459.473C317.861 460.217 317.845 460.987 317.656 461.723ZM331.313 447C331.309 443.409 330.541 439.859 329.06 436.588C327.58 433.316 325.42 430.397 322.724 428.024C320.028 425.651 316.858 423.879 313.425 422.826C309.992 421.773 306.374 421.462 302.811 421.914C299.248 422.367 295.823 423.572 292.762 425.45C289.701 427.328 287.075 429.836 285.057 432.808C283.04 435.779 281.679 439.145 281.063 442.683C280.447 446.221 280.591 449.85 281.485 453.328C281.54 453.543 281.553 453.766 281.522 453.986C281.491 454.205 281.417 454.417 281.304 454.608C281.077 454.993 280.706 455.273 280.272 455.385C280.057 455.44 279.834 455.453 279.614 455.422C279.395 455.391 279.183 455.317 278.992 455.204C278.607 454.977 278.327 454.605 278.215 454.172C277.126 449.934 277.021 445.503 277.908 441.219C278.794 436.934 280.649 432.909 283.331 429.451C286.012 425.994 289.449 423.195 293.378 421.27C297.307 419.345 301.625 418.344 306 418.344C310.375 418.344 314.693 419.345 318.622 421.27C322.551 423.195 325.988 425.994 328.669 429.451C331.351 432.909 333.206 436.934 334.092 441.219C334.979 445.503 334.874 449.934 333.785 454.172C333.691 454.534 333.48 454.855 333.185 455.084C332.889 455.313 332.526 455.437 332.152 455.438C332.01 455.438 331.868 455.42 331.73 455.383C331.515 455.328 331.314 455.231 331.136 455.098C330.959 454.965 330.81 454.798 330.697 454.607C330.584 454.416 330.51 454.205 330.479 453.986C330.448 453.766 330.46 453.543 330.515 453.328C331.045 451.26 331.313 449.134 331.313 447ZM348.188 447C348.193 453.962 346.474 460.816 343.183 466.951C339.892 473.085 335.133 478.309 329.33 482.155C329.145 482.282 328.937 482.372 328.718 482.418C328.499 482.464 328.273 482.466 328.052 482.424C327.832 482.381 327.623 482.296 327.436 482.172C327.25 482.047 327.09 481.887 326.966 481.701C326.842 481.514 326.756 481.305 326.714 481.085C326.671 480.865 326.673 480.639 326.719 480.419C326.765 480.2 326.855 479.992 326.982 479.808C327.109 479.623 327.272 479.466 327.461 479.345C334.408 474.735 339.685 468.011 342.513 460.168C345.34 452.325 345.567 443.78 343.159 435.798C340.752 427.816 335.838 420.821 329.145 415.849C322.453 410.878 314.337 408.193 306 408.193C297.663 408.193 289.547 410.878 282.855 415.849C276.162 420.821 271.248 427.816 268.841 435.798C266.433 443.78 266.66 452.325 269.487 460.168C272.315 468.011 277.593 474.735 284.539 479.345C284.728 479.466 284.891 479.623 285.018 479.808C285.145 479.992 285.235 480.2 285.281 480.419C285.327 480.639 285.329 480.865 285.286 481.085C285.244 481.305 285.158 481.514 285.034 481.701C284.91 481.887 284.75 482.047 284.564 482.172C284.377 482.296 284.168 482.381 283.948 482.424C283.727 482.466 283.501 482.464 283.282 482.418C283.063 482.372 282.855 482.282 282.67 482.155C276.593 478.121 271.666 472.581 268.369 466.075C265.072 459.569 263.518 452.32 263.859 445.034C264.199 437.748 266.423 430.675 270.313 424.505C274.203 418.335 279.626 413.279 286.053 409.831C292.48 406.382 299.692 404.659 306.983 404.829C314.275 404.999 321.398 407.057 327.658 410.801C333.917 414.545 339.098 419.848 342.697 426.193C346.295 432.537 348.187 439.706 348.188 447Z" fill="url(#paint31_linear_1175_20)"/>
<g filter="url(#filter2_d_1175_20)">
<path d="M1066 274.5H1282C1317.07 274.5 1345.5 302.93 1345.5 338V830C1345.5 865.07 1317.07 893.5 1282 893.5H1066C1030.93 893.5 1002.5 865.07 1002.5 830V338C1002.5 302.93 1030.93 274.5 1066 274.5Z" stroke="url(#paint32_linear_1175_20)"/>
<path d="M1152 294.5H1196C1203.46 294.5 1209.5 300.544 1209.5 308C1209.5 315.456 1203.46 321.5 1196 321.5H1152C1144.54 321.5 1138.5 315.456 1138.5 308C1138.5 300.544 1144.54 294.5 1152 294.5Z" stroke="url(#paint33_linear_1175_20)"/>
<path d="M1174 407.812C1165.66 407.812 1157.5 410.287 1150.56 414.922C1143.62 419.558 1138.22 426.147 1135.02 433.856C1131.83 441.564 1131 450.047 1132.62 458.23C1134.25 466.414 1138.27 473.931 1144.17 479.831C1150.07 485.731 1157.59 489.749 1165.77 491.377C1173.95 493.005 1182.44 492.169 1190.14 488.976C1197.85 485.783 1204.44 480.376 1209.08 473.438C1213.71 466.5 1216.19 458.344 1216.19 450C1216.18 438.815 1211.73 428.092 1203.82 420.183C1195.91 412.273 1185.19 407.825 1174 407.812ZM1149.05 479.708C1151.56 475.3 1155.19 471.633 1159.57 469.082C1163.95 466.531 1168.93 465.188 1174 465.188C1179.07 465.188 1184.05 466.531 1188.43 469.082C1192.81 471.633 1196.44 475.3 1198.95 479.708C1191.96 485.588 1183.13 488.812 1174 488.812C1164.87 488.812 1156.04 485.588 1149.05 479.708ZM1201.49 477.367C1197.3 470.358 1190.58 465.224 1182.72 463.023C1186.37 461.079 1189.27 457.967 1190.96 454.183C1192.64 450.4 1193.01 446.161 1192.01 442.143C1191.01 438.124 1188.69 434.556 1185.43 432.007C1182.16 429.457 1178.14 428.072 1174 428.072C1169.86 428.072 1165.84 429.457 1162.57 432.007C1159.31 434.556 1156.99 438.124 1155.99 442.143C1154.99 446.161 1155.36 450.4 1157.04 454.183C1158.73 457.967 1161.63 461.079 1165.28 463.023C1157.42 465.224 1150.7 470.358 1146.51 477.367C1141.09 471.933 1137.41 465.018 1135.92 457.492C1134.44 449.967 1135.21 442.171 1138.16 435.087C1141.1 428.003 1146.07 421.949 1152.45 417.691C1158.83 413.432 1166.33 411.159 1174 411.159C1181.67 411.159 1189.17 413.432 1195.55 417.691C1201.93 421.949 1206.9 428.003 1209.84 435.087C1212.79 442.171 1213.56 449.967 1212.08 457.492C1210.59 465.018 1206.91 471.933 1201.49 477.367ZM1174 461.813C1171 461.813 1168.06 460.922 1165.56 459.253C1163.06 457.584 1161.12 455.212 1159.97 452.437C1158.82 449.662 1158.52 446.608 1159.1 443.662C1159.69 440.716 1161.14 438.01 1163.26 435.886C1165.38 433.762 1168.09 432.315 1171.04 431.729C1173.98 431.143 1177.04 431.444 1179.81 432.594C1182.59 433.743 1184.96 435.69 1186.63 438.187C1188.3 440.685 1189.19 443.621 1189.19 446.625C1189.19 450.653 1187.59 454.516 1184.74 457.364C1181.89 460.212 1178.03 461.813 1174 461.813Z" fill="url(#paint34_linear_1175_20)"/>
<rect x="1120" y="396" width="108" height="108" stroke="white" stroke-dasharray="4 4"/>
</g>
<rect x="1026.5" y="365.5" width="294" height="409" rx="24.5" stroke="url(#paint35_linear_1175_20)"/>
<rect x="1103.5" y="531.5" width="141" height="24" rx="8.5" stroke="url(#paint36_linear_1175_20)"/>
<rect x="1065.5" y="588.5" width="217" height="149" rx="14.5" stroke="url(#paint37_linear_1175_20)"/>
<line y1="-0.5" x2="180.624" y2="-0.5" transform="matrix(0.847064 0.531491 -0.0848941 0.99639 1103 612)" stroke="url(#paint38_linear_1175_20)"/>
<line y1="-0.5" x2="180.624" y2="-0.5" transform="matrix(0.847064 -0.531491 -0.0848941 -0.99639 1103 708)" stroke="url(#paint39_linear_1175_20)"/>
<rect x="1224" y="392" width="8" height="8" fill="white"/>
<rect x="1170" y="392" width="8" height="8" fill="white"/>
<rect x="1116" y="392" width="8" height="8" fill="white"/>
<rect x="1116" y="500" width="8" height="8" fill="white"/>
<rect x="1116" y="446" width="8" height="8" fill="white"/>
<rect x="1224" y="500" width="8" height="8" fill="white"/>
<rect x="1170" y="500" width="8" height="8" fill="white"/>
<rect x="1224" y="446" width="8" height="8" fill="white"/>
<rect x="892.689" y="945.69" width="99.6207" height="99.6207" stroke="white" stroke-dasharray="4 4"/>
<rect x="988.621" y="942" width="7.37931" height="7.37931" fill="white"/>
<rect x="938.811" y="942" width="7.37931" height="7.37931" fill="white"/>
<rect x="889" y="942" width="7.37931" height="7.37931" fill="white"/>
<rect x="889" y="1041.62" width="7.37931" height="7.37931" fill="white"/>
<rect x="889" y="991.81" width="7.37931" height="7.37931" fill="white"/>
<rect x="988.621" y="1041.62" width="7.37931" height="7.37931" fill="white"/>
<rect x="938.811" y="1041.62" width="7.37931" height="7.37931" fill="white"/>
<rect x="988.621" y="991.81" width="7.37931" height="7.37931" fill="white"/>
<rect x="351.689" y="122.69" width="99.6207" height="99.6207" stroke="white" stroke-dasharray="4 4"/>
<rect x="447.621" y="119" width="7.37931" height="7.37931" fill="white"/>
<rect x="397.811" y="119" width="7.37931" height="7.37931" fill="white"/>
<rect x="348" y="119" width="7.37931" height="7.37931" fill="white"/>
<rect x="348" y="218.62" width="7.37931" height="7.37931" fill="white"/>
<rect x="348" y="168.81" width="7.37931" height="7.37931" fill="white"/>
<rect x="447.621" y="218.62" width="7.37931" height="7.37931" fill="white"/>
<rect x="397.811" y="218.62" width="7.37931" height="7.37931" fill="white"/>
<rect x="447.621" y="168.81" width="7.37931" height="7.37931" fill="white"/>
<path d="M691.125 1020C691.125 1020.3 691.006 1020.58 690.795 1020.8C690.584 1021.01 690.298 1021.12 690 1021.12H672C671.701 1021.12 671.415 1021.01 671.204 1020.8C670.993 1020.58 670.875 1020.3 670.875 1020C670.875 1019.7 670.993 1019.42 671.204 1019.2C671.415 1018.99 671.701 1018.88 672 1018.88H690C690.298 1018.88 690.584 1018.99 690.795 1019.2C691.006 1019.42 691.125 1019.7 691.125 1020ZM706.419 1010.44C706.127 1010.95 705.702 1011.38 705.189 1011.68C704.676 1011.97 704.093 1012.13 703.5 1012.12H658.5C657.908 1012.12 657.328 1011.97 656.816 1011.67C656.305 1011.37 655.881 1010.95 655.586 1010.43C655.291 1009.92 655.136 1009.34 655.137 1008.75C655.137 1008.16 655.293 1007.57 655.589 1007.06C657.212 1004.25 659.625 996.412 659.625 986.25C659.625 980.581 661.877 975.144 665.885 971.136C669.894 967.127 675.331 964.875 681 964.875C686.669 964.875 692.106 967.127 696.114 971.136C700.123 975.144 702.375 980.581 702.375 986.25C702.375 996.412 704.791 1004.25 706.414 1007.05C706.716 1007.56 706.875 1008.15 706.876 1008.74C706.877 1009.34 706.719 1009.92 706.419 1010.44ZM704.465 1008.19C702.375 1004.58 700.125 996.181 700.125 986.25C700.125 981.178 698.11 976.313 694.523 972.727C690.937 969.14 686.072 967.125 681 967.125C675.928 967.125 671.063 969.14 667.476 972.727C663.89 976.313 661.875 981.178 661.875 986.25C661.875 996.184 659.625 1004.58 657.532 1008.19C657.434 1008.36 657.382 1008.55 657.382 1008.75C657.382 1008.95 657.434 1009.14 657.532 1009.31C657.628 1009.48 657.769 1009.63 657.939 1009.73C658.109 1009.82 658.303 1009.88 658.5 1009.88H703.5C703.697 1009.88 703.89 1009.82 704.06 1009.73C704.231 1009.63 704.371 1009.48 704.467 1009.31C704.566 1009.14 704.617 1008.95 704.617 1008.75C704.616 1008.55 704.564 1008.36 704.465 1008.19Z" fill="url(#paint40_linear_1175_20)"/>
<path d="M842.046 987.704L819.546 965.204C819.389 965.047 819.188 964.939 818.97 964.896C818.751 964.852 818.525 964.875 818.319 964.96C818.114 965.045 817.938 965.189 817.814 965.374C817.691 965.56 817.625 965.777 817.625 966V978.4C802.437 979.087 783.754 993.461 781.642 1011.87C781.583 1012.34 781.676 1012.82 781.908 1013.23C782.14 1013.64 782.498 1013.97 782.93 1014.16C783.23 1014.31 783.557 1014.38 783.889 1014.38C784.195 1014.38 784.498 1014.32 784.778 1014.19C785.058 1014.07 785.31 1013.89 785.517 1013.66C788.76 1010.21 800.505 999.114 817.625 998.645V1011C817.625 1011.22 817.691 1011.44 817.814 1011.63C817.938 1011.81 818.114 1011.95 818.319 1012.04C818.525 1012.13 818.751 1012.15 818.97 1012.1C819.188 1012.06 819.389 1011.95 819.546 1011.8L842.046 989.296C842.15 989.191 842.233 989.067 842.29 988.931C842.347 988.794 842.376 988.648 842.376 988.5C842.376 988.352 842.347 988.206 842.29 988.069C842.233 987.933 842.15 987.809 842.046 987.704ZM819.875 1008.28V997.5C819.875 997.202 819.756 996.915 819.545 996.704C819.334 996.493 819.048 996.375 818.75 996.375C811.047 996.375 803.54 998.392 796.436 1002.37C791.785 1004.97 787.551 1008.26 783.875 1012.12C784.82 1003.91 789.373 995.959 796.7 989.746C803.43 984.031 811.671 980.625 818.75 980.625C819.048 980.625 819.334 980.506 819.545 980.295C819.756 980.084 819.875 979.798 819.875 979.5V968.717L839.658 988.5L819.875 1008.28Z" fill="url(#paint41_linear_1175_20)"/>
<path d="M958.75 967.125H927.25C926.355 967.125 925.496 967.481 924.864 968.114C924.231 968.746 923.875 969.605 923.875 970.5V1020C923.875 1020.2 923.929 1020.4 924.031 1020.57C924.133 1020.74 924.279 1020.89 924.455 1020.98C924.631 1021.08 924.829 1021.13 925.03 1021.12C925.23 1021.12 925.426 1021.06 925.596 1020.95L943 1010.08L960.407 1020.95C960.584 1021.06 960.79 1021.12 961 1021.12C961.191 1021.12 961.378 1021.08 961.546 1020.98C961.721 1020.89 961.868 1020.74 961.97 1020.57C962.071 1020.4 962.125 1020.2 962.125 1020V970.5C962.125 969.605 961.769 968.746 961.136 968.114C960.504 967.481 959.645 967.125 958.75 967.125ZM959.875 1017.97L943.593 1007.8C943.415 1007.68 943.208 1007.63 942.997 1007.63C942.786 1007.63 942.58 1007.68 942.401 1007.8L926.125 1017.97V970.5C926.125 970.202 926.244 969.915 926.455 969.705C926.665 969.494 926.952 969.375 927.25 969.375H958.75C959.048 969.375 959.335 969.494 959.545 969.705C959.756 969.915 959.875 970.202 959.875 970.5V1017.97Z" fill="url(#paint42_linear_1175_20)"/>
<path d="M1088.06 967.125C1082.03 967.125 1076.83 969.991 1074 974.738C1071.17 969.991 1065.97 967.125 1059.94 967.125C1055.61 967.13 1051.47 968.851 1048.41 971.909C1045.35 974.967 1043.63 979.113 1043.62 983.438C1043.62 991.478 1048.69 999.882 1058.64 1008.41C1063.24 1012.32 1068.2 1015.78 1073.47 1018.74C1073.63 1018.83 1073.81 1018.88 1074 1018.88C1074.19 1018.88 1074.37 1018.83 1074.53 1018.74C1079.8 1015.78 1084.76 1012.32 1089.36 1008.41C1099.31 999.882 1104.38 991.478 1104.38 983.438C1104.37 979.113 1102.65 974.967 1099.59 971.909C1096.53 968.851 1092.39 967.13 1088.06 967.125ZM1074 1016.46C1070.06 1014.22 1045.88 999.77 1045.88 983.438C1045.88 979.709 1047.36 976.135 1050 973.499C1052.64 970.862 1056.21 969.379 1059.94 969.375C1065.87 969.375 1070.86 972.556 1072.96 977.675C1073.04 977.881 1073.19 978.058 1073.37 978.182C1073.56 978.306 1073.78 978.372 1074 978.372C1074.22 978.372 1074.44 978.306 1074.63 978.182C1074.81 978.058 1074.96 977.881 1075.04 977.675C1077.14 972.556 1082.13 969.375 1088.06 969.375C1091.79 969.379 1095.36 970.862 1098 973.499C1100.64 976.135 1102.12 979.709 1102.12 983.438C1102.12 999.75 1077.94 1014.22 1074 1016.46Z" fill="url(#paint43_linear_1175_20)"/>
<path d="M424.5 144.125H379.5C378.605 144.125 377.746 144.481 377.114 145.114C376.481 145.746 376.125 146.605 376.125 147.5V192.5C376.125 193.395 376.481 194.254 377.114 194.886C377.746 195.519 378.605 195.875 379.5 195.875H424.5C425.395 195.875 426.254 195.519 426.886 194.886C427.519 194.254 427.875 193.395 427.875 192.5V147.5C427.875 146.605 427.519 145.746 426.886 145.114C426.254 144.481 425.395 144.125 424.5 144.125ZM378.375 192.5V147.5C378.375 147.202 378.494 146.915 378.705 146.705C378.915 146.494 379.202 146.375 379.5 146.375H424.5C424.798 146.375 425.085 146.494 425.295 146.705C425.506 146.915 425.625 147.202 425.625 147.5V171.969L416.763 163.104C416.449 162.789 416.077 162.539 415.666 162.369C415.256 162.199 414.816 162.111 414.372 162.111C413.928 162.111 413.488 162.199 413.078 162.369C412.668 162.539 412.295 162.789 411.982 163.104L381.469 193.625H379.5C379.202 193.625 378.915 193.506 378.705 193.295C378.494 193.085 378.375 192.798 378.375 192.5ZM424.5 193.625H384.658L413.579 164.704C413.684 164.599 413.808 164.516 413.944 164.46C414.081 164.403 414.227 164.374 414.375 164.374C414.523 164.374 414.669 164.403 414.806 164.46C414.942 164.516 415.066 164.599 415.171 164.704L425.625 175.158V192.5C425.625 192.798 425.506 193.085 425.295 193.295C425.085 193.506 424.798 193.625 424.5 193.625ZM393 166.625C394.113 166.625 395.2 166.295 396.125 165.677C397.05 165.059 397.771 164.18 398.197 163.153C398.623 162.125 398.734 160.994 398.517 159.903C398.3 158.811 397.764 157.809 396.977 157.023C396.191 156.236 395.189 155.7 394.097 155.483C393.006 155.266 391.875 155.377 390.847 155.803C389.82 156.229 388.941 156.95 388.323 157.875C387.705 158.8 387.375 159.887 387.375 161C387.375 162.492 387.968 163.923 389.023 164.977C390.077 166.032 391.508 166.625 393 166.625ZM393 157.625C393.668 157.625 394.32 157.823 394.875 158.194C395.43 158.565 395.863 159.092 396.118 159.708C396.374 160.325 396.44 161.004 396.31 161.658C396.18 162.313 395.858 162.914 395.386 163.386C394.914 163.858 394.313 164.18 393.658 164.31C393.004 164.44 392.325 164.374 391.708 164.118C391.092 163.863 390.565 163.43 390.194 162.875C389.823 162.32 389.625 161.668 389.625 161C389.625 160.105 389.981 159.246 390.614 158.614C391.246 157.981 392.105 157.625 393 157.625Z" fill="url(#paint44_linear_1175_20)"/>
<path d="M542.624 164.563L529.124 155.563C528.955 155.45 528.758 155.385 528.554 155.376C528.351 155.366 528.149 155.411 527.969 155.507C527.789 155.604 527.639 155.747 527.535 155.922C527.43 156.096 527.375 156.296 527.375 156.5V174.5C527.375 174.704 527.43 174.904 527.534 175.079C527.639 175.253 527.789 175.397 527.968 175.493C528.148 175.589 528.351 175.635 528.554 175.625C528.758 175.615 528.955 175.55 529.124 175.437L542.624 166.437C542.779 166.334 542.905 166.195 542.993 166.031C543.08 165.868 543.126 165.685 543.126 165.5C543.126 165.315 543.08 165.132 542.993 164.969C542.905 164.805 542.779 164.666 542.624 164.563ZM529.625 172.399V158.601L539.972 165.5L529.625 172.399ZM557.75 146.375H508.25C507.355 146.375 506.496 146.731 505.864 147.364C505.231 147.996 504.875 148.855 504.875 149.75V181.25C504.875 182.145 505.231 183.004 505.864 183.636C506.496 184.269 507.355 184.625 508.25 184.625H557.75C558.645 184.625 559.504 184.269 560.136 183.636C560.769 183.004 561.125 182.145 561.125 181.25V149.75C561.125 148.855 560.769 147.996 560.136 147.364C559.504 146.731 558.645 146.375 557.75 146.375ZM558.875 181.25C558.875 181.548 558.756 181.835 558.545 182.045C558.335 182.256 558.048 182.375 557.75 182.375H508.25C507.952 182.375 507.665 182.256 507.455 182.045C507.244 181.835 507.125 181.548 507.125 181.25V149.75C507.125 149.452 507.244 149.165 507.455 148.955C507.665 148.744 507.952 148.625 508.25 148.625H557.75C558.048 148.625 558.335 148.744 558.545 148.955C558.756 149.165 558.875 149.452 558.875 149.75V181.25ZM561.125 192.5C561.125 192.798 561.006 193.085 560.795 193.295C560.585 193.506 560.298 193.625 560 193.625H506C505.702 193.625 505.415 193.506 505.205 193.295C504.994 193.085 504.875 192.798 504.875 192.5C504.875 192.202 504.994 191.915 505.205 191.705C505.415 191.494 505.702 191.375 506 191.375H560C560.298 191.375 560.585 191.494 560.795 191.705C561.006 191.915 561.125 192.202 561.125 192.5Z" fill="url(#paint45_linear_1175_20)"/>
<path d="M689.875 176.75V192.5C689.875 193.395 689.519 194.254 688.886 194.886C688.254 195.519 687.395 195.875 686.5 195.875H641.5C640.605 195.875 639.746 195.519 639.114 194.886C638.481 194.254 638.125 193.395 638.125 192.5V176.75C638.125 176.452 638.244 176.165 638.455 175.955C638.665 175.744 638.952 175.625 639.25 175.625C639.548 175.625 639.835 175.744 640.045 175.955C640.256 176.165 640.375 176.452 640.375 176.75V192.5C640.375 192.798 640.494 193.085 640.705 193.295C640.915 193.506 641.202 193.625 641.5 193.625H686.5C686.798 193.625 687.085 193.506 687.295 193.295C687.506 193.085 687.625 192.798 687.625 192.5V176.75C687.625 176.452 687.744 176.165 687.955 175.955C688.165 175.744 688.452 175.625 688.75 175.625C689.048 175.625 689.335 175.744 689.545 175.955C689.756 176.165 689.875 176.452 689.875 176.75ZM663.204 177.546C663.309 177.651 663.433 177.734 663.569 177.79C663.706 177.847 663.852 177.876 664 177.876C664.148 177.876 664.294 177.847 664.431 177.79C664.567 177.734 664.691 177.651 664.796 177.546L676.046 166.296C676.15 166.191 676.233 166.067 676.29 165.931C676.347 165.794 676.376 165.648 676.376 165.5C676.376 165.352 676.347 165.206 676.29 165.069C676.233 164.933 676.15 164.809 676.046 164.704C675.941 164.6 675.817 164.517 675.681 164.46C675.544 164.403 675.398 164.374 675.25 164.374C675.102 164.374 674.956 164.403 674.819 164.46C674.683 164.517 674.559 164.6 674.454 164.704L665.125 174.033V145.25C665.125 144.952 665.006 144.665 664.795 144.455C664.585 144.244 664.298 144.125 664 144.125C663.702 144.125 663.415 144.244 663.205 144.455C662.994 144.665 662.875 144.952 662.875 145.25V174.033L653.546 164.704C653.335 164.493 653.049 164.374 652.75 164.374C652.451 164.374 652.165 164.493 651.954 164.704C651.743 164.915 651.624 165.201 651.624 165.5C651.624 165.799 651.743 166.085 651.954 166.296L663.204 177.546Z" fill="url(#paint46_linear_1175_20)"/>
<path d="M795 162.125C793.442 162.125 791.92 162.587 790.625 163.452C789.33 164.317 788.32 165.547 787.724 166.986C787.128 168.425 786.972 170.009 787.276 171.536C787.58 173.064 788.33 174.467 789.432 175.568C790.533 176.67 791.936 177.42 793.464 177.724C794.991 178.028 796.575 177.872 798.014 177.276C799.453 176.68 800.683 175.67 801.548 174.375C802.413 173.08 802.875 171.558 802.875 170C802.875 167.911 802.045 165.908 800.568 164.432C799.092 162.955 797.089 162.125 795 162.125ZM795 175.625C793.887 175.625 792.8 175.295 791.875 174.677C790.95 174.059 790.229 173.18 789.803 172.153C789.377 171.125 789.266 169.994 789.483 168.903C789.7 167.811 790.236 166.809 791.023 166.023C791.809 165.236 792.811 164.7 793.903 164.483C794.994 164.266 796.125 164.377 797.153 164.803C798.18 165.229 799.059 165.95 799.677 166.875C800.295 167.8 800.625 168.887 800.625 170C800.625 171.492 800.032 172.923 798.977 173.977C797.923 175.032 796.492 175.625 795 175.625ZM772.5 162.125C770.942 162.125 769.42 162.587 768.125 163.452C766.83 164.317 765.82 165.547 765.224 166.986C764.628 168.425 764.472 170.009 764.776 171.536C765.08 173.064 765.83 174.467 766.932 175.568C768.033 176.67 769.436 177.42 770.964 177.724C772.491 178.028 774.075 177.872 775.514 177.276C776.953 176.68 778.183 175.67 779.048 174.375C779.913 173.08 780.375 171.558 780.375 170C780.375 167.911 779.545 165.908 778.068 164.432C776.592 162.955 774.589 162.125 772.5 162.125ZM772.5 175.625C771.387 175.625 770.3 175.295 769.375 174.677C768.45 174.059 767.729 173.18 767.303 172.153C766.877 171.125 766.766 169.994 766.983 168.903C767.2 167.811 767.736 166.809 768.523 166.023C769.309 165.236 770.311 164.7 771.403 164.483C772.494 164.266 773.625 164.377 774.653 164.803C775.68 165.229 776.559 165.95 777.177 166.875C777.795 167.8 778.125 168.887 778.125 170C778.125 171.492 777.532 172.923 776.477 173.977C775.423 175.032 773.992 175.625 772.5 175.625ZM817.5 162.125C815.942 162.125 814.42 162.587 813.125 163.452C811.83 164.317 810.82 165.547 810.224 166.986C809.628 168.425 809.472 170.009 809.776 171.536C810.08 173.064 810.83 174.467 811.932 175.568C813.033 176.67 814.436 177.42 815.964 177.724C817.491 178.028 819.075 177.872 820.514 177.276C821.953 176.68 823.183 175.67 824.048 174.375C824.913 173.08 825.375 171.558 825.375 170C825.375 168.966 825.171 167.942 824.776 166.986C824.38 166.031 823.8 165.163 823.068 164.432C822.337 163.7 821.469 163.12 820.514 162.724C819.558 162.329 818.534 162.125 817.5 162.125ZM817.5 175.625C816.387 175.625 815.3 175.295 814.375 174.677C813.45 174.059 812.729 173.18 812.303 172.153C811.877 171.125 811.766 169.994 811.983 168.903C812.2 167.811 812.736 166.809 813.523 166.023C814.309 165.236 815.311 164.7 816.403 164.483C817.494 164.266 818.625 164.377 819.653 164.803C820.68 165.229 821.559 165.95 822.177 166.875C822.795 167.8 823.125 168.887 823.125 170C823.125 171.492 822.532 172.923 821.477 173.977C820.423 175.032 818.992 175.625 817.5 175.625Z" fill="url(#paint47_linear_1175_20)"/>
<path d="M1140.39 203.685L1140.24 203.5H1140H1091C1083.54 203.5 1077.5 197.456 1077.5 190V150C1077.5 142.544 1083.54 136.5 1091 136.5H1202C1209.45 136.5 1215.5 142.544 1215.5 150V190C1215.5 197.456 1209.45 203.5 1202 203.5H1152.5H1152.25L1152.1 203.7L1146.48 211.188L1140.39 203.685Z" stroke="url(#paint48_linear_1175_20)"/>
<rect x="177.5" y="960.5" width="257" height="65" rx="13.5" stroke="url(#paint49_linear_1175_20)"/>
<path d="M219 990.964C218.998 990.324 218.934 989.683 218.808 989.049C218.422 987.109 217.47 985.328 216.071 983.929C214.673 982.531 212.891 981.578 210.951 981.192C209.011 980.806 207.001 981.004 205.173 981.761C203.346 982.518 201.784 983.8 200.685 985.444C199.587 987.089 199 989.022 199 991L199 991.001C199.003 993.652 200.057 996.194 201.932 998.068C203.803 999.939 206.337 1000.99 208.982 1001C208.865 1001 208.748 1001 208.63 1000.99C206.018 1000.9 203.545 999.789 201.741 997.897C199.937 996.005 198.945 993.482 198.976 990.868C199.007 988.254 200.059 985.756 201.908 983.908C203.756 982.059 206.254 981.007 208.868 980.976C211.482 980.945 214.005 981.937 215.897 983.741C217.789 985.545 218.9 988.018 218.994 990.63C218.998 990.742 219 990.853 219 990.964ZM215.962 998.179C216.035 998.108 216.108 998.035 216.179 997.962L216.076 998.075L216.413 998.412L223 1005L223 1005L223 1005L223 1005L223 1005L216.412 998.413L216.075 998.076L215.962 998.179Z" fill="black" stroke="url(#paint50_linear_1175_20)"/>
<rect x="139.5" y="144.5" width="51" height="51" rx="13.5" stroke="url(#paint51_linear_1175_20)"/>
<path d="M177.49 161.561L161.5 178.491L154.51 171.09C154.507 171.086 154.5 171.076 154.5 171.059C154.5 171.052 154.501 171.045 154.503 171.041L161.137 178.064L161.5 178.449L161.864 178.064L177.497 161.512C177.499 161.516 177.5 161.523 177.5 161.53C177.5 161.546 177.493 161.557 177.49 161.561Z" fill="black" stroke="url(#paint52_linear_1175_20)"/>
<rect x="235.5" y="144.5" width="51" height="51" rx="25.5" stroke="url(#paint53_linear_1175_20)"/>
<rect x="246.5" y="155.5" width="29" height="29" rx="14.5" stroke="url(#paint54_linear_1175_20)"/>
<rect x="915.5" y="144.5" width="100" height="52" rx="26" stroke="url(#paint55_linear_1175_20)"/>
<circle cx="985" cy="171" r="19.5" stroke="url(#paint56_linear_1175_20)"/>
<rect x="370.035" y="633.035" width="54.931" height="54.931" stroke="white" stroke-dasharray="4 4"/>
<rect x="422.931" y="631" width="4.06897" height="4.06897" fill="white"/>
<rect x="395.465" y="631" width="4.06897" height="4.06897" fill="white"/>
<rect x="368" y="631" width="4.06897" height="4.06897" fill="white"/>
<rect x="368" y="685.931" width="4.06897" height="4.06897" fill="white"/>
<rect x="368" y="658.465" width="4.06897" height="4.06897" fill="white"/>
<rect x="422.931" y="685.931" width="4.06897" height="4.06897" fill="white"/>
<rect x="395.465" y="685.931" width="4.06897" height="4.06897" fill="white"/>
<rect x="422.931" y="658.465" width="4.06897" height="4.06897" fill="white"/>
<path d="M398 647.5C395.528 647.5 393.111 648.233 391.055 649.607C389 650.98 387.398 652.932 386.452 655.216C385.505 657.501 385.258 660.014 385.74 662.439C386.223 664.863 387.413 667.091 389.161 668.839C390.909 670.587 393.137 671.777 395.561 672.26C397.986 672.742 400.499 672.495 402.784 671.548C405.068 670.602 407.02 669 408.393 666.945C409.767 664.889 410.5 662.472 410.5 660C410.496 656.686 409.178 653.509 406.835 651.165C404.491 648.822 401.314 647.504 398 647.5ZM398 671.5C395.726 671.5 393.502 670.826 391.611 669.562C389.72 668.298 388.246 666.502 387.375 664.401C386.505 662.3 386.277 659.987 386.721 657.756C387.165 655.526 388.26 653.477 389.868 651.868C391.477 650.26 393.526 649.165 395.756 648.721C397.987 648.277 400.3 648.505 402.401 649.375C404.502 650.246 406.298 651.72 407.562 653.611C408.826 655.502 409.5 657.726 409.5 660C409.497 663.049 408.284 665.972 406.128 668.128C403.972 670.284 401.049 671.497 398 671.5ZM401.354 659.646C401.4 659.693 401.437 659.748 401.462 659.809C401.487 659.869 401.5 659.934 401.5 660C401.5 660.066 401.487 660.131 401.462 660.191C401.437 660.252 401.4 660.307 401.354 660.354L396.354 665.354C396.26 665.448 396.133 665.5 396 665.5C395.867 665.5 395.74 665.448 395.646 665.354C395.552 665.26 395.5 665.133 395.5 665C395.5 664.867 395.552 664.74 395.646 664.646L400.293 660L395.646 655.354C395.552 655.26 395.5 655.133 395.5 655C395.5 654.867 395.552 654.74 395.646 654.646C395.74 654.552 395.867 654.5 396 654.5C396.133 654.5 396.26 654.552 396.354 654.646L401.354 659.646Z" fill="url(#paint57_linear_1175_20)"/>
<circle cx="1212.5" cy="141.5" r="1.5" fill="white"/>
<circle cx="1212.5" cy="198.5" r="1.5" fill="white"/>
<circle cx="1080.5" cy="198.5" r="1.5" fill="white"/>
<circle cx="1080.5" cy="140.5" r="1.5" fill="white"/>
<path d="M1203.18 127.813L1202.81 129.822L1204.82 130.187L1205.19 128.178L1203.18 127.813ZM1222.82 156.187L1223.19 154.178L1221.18 153.813L1220.81 155.822L1222.82 156.187ZM1203.79 129.142L1221.79 155.142L1222.21 154.858L1204.21 128.858L1203.79 129.142Z" fill="white"/>
<defs>
<filter id="filter0_d_1175_20" x="536" y="258" width="408" height="684" filterUnits="userSpaceOnUse" color-interpolation-filters="sRGB">
<feFlood flood-opacity="0" result="BackgroundImageFix"/>
<feColorMatrix in="SourceAlpha" type="matrix" values="0 0 0 0 0 0 0 0 0 0 0 0 0 0 0 0 0 0 127 0" result="hardAlpha"/>
<feOffset dy="16"/>
<feGaussianBlur stdDeviation="16"/>
<feComposite in2="hardAlpha" operator="out"/>
<feColorMatrix type="matrix" values="0 0 0 0 0 0 0 0 0 0 0 0 0 0 0 0 0 0 0.16 0"/>
<feBlend mode="normal" in2="BackgroundImageFix" result="effect1_dropShadow_1175_20"/>
<feBlend mode="normal" in="SourceGraphic" in2="effect1_dropShadow_1175_20" result="shape"/>
</filter>
<filter id="filter1_d_1175_20" x="102" y="258" width="408" height="684" filterUnits="userSpaceOnUse" color-interpolation-filters="sRGB">
<feFlood flood-opacity="0" result="BackgroundImageFix"/>
<feColorMatrix in="SourceAlpha" type="matrix" values="0 0 0 0 0 0 0 0 0 0 0 0 0 0 0 0 0 0 127 0" result="hardAlpha"/>
<feOffset dy="16"/>
<feGaussianBlur stdDeviation="16"/>
<feComposite in2="hardAlpha" operator="out"/>
<feColorMatrix type="matrix" values="0 0 0 0 0 0 0 0 0 0 0 0 0 0 0 0 0 0 0.16 0"/>
<feBlend mode="normal" in2="BackgroundImageFix" result="effect1_dropShadow_1175_20"/>
<feBlend mode="normal" in="SourceGraphic" in2="effect1_dropShadow_1175_20" result="shape"/>
</filter>
<filter id="filter2_d_1175_20" x="970" y="258" width="408" height="684" filterUnits="userSpaceOnUse" color-interpolation-filters="sRGB">
<feFlood flood-opacity="0" result="BackgroundImageFix"/>
<feColorMatrix in="SourceAlpha" type="matrix" values="0 0 0 0 0 0 0 0 0 0 0 0 0 0 0 0 0 0 127 0" result="hardAlpha"/>
<feOffset dy="16"/>
<feGaussianBlur stdDeviation="16"/>
<feComposite in2="hardAlpha" operator="out"/>
<feColorMatrix type="matrix" values="0 0 0 0 0 0 0 0 0 0 0 0 0 0 0 0 0 0 0.16 0"/>
<feBlend mode="normal" in2="BackgroundImageFix" result="effect1_dropShadow_1175_20"/>
<feBlend mode="normal" in="SourceGraphic" in2="effect1_dropShadow_1175_20" result="shape"/>
</filter>
<linearGradient id="paint0_linear_1175_20" x1="740" y1="274" x2="740" y2="894" gradientUnits="userSpaceOnUse">
<stop stop-color="#FF0054"/>
<stop offset="1" stop-color="#FF0049"/>
</linearGradient>
<linearGradient id="paint1_linear_1175_20" x1="740" y1="294" x2="740" y2="322" gradientUnits="userSpaceOnUse">
<stop stop-color="#FF0054"/>
<stop offset="1" stop-color="#FF0049"/>
</linearGradient>
<linearGradient id="paint2_linear_1175_20" x1="740" y1="678.812" x2="740" y2="763.188" gradientUnits="userSpaceOnUse">
<stop stop-color="#FF0054"/>
<stop offset="1" stop-color="#FF0049"/>
</linearGradient>
<linearGradient id="paint3_linear_1175_20" x1="739.5" y1="365" x2="739.5" y2="624" gradientUnits="userSpaceOnUse">
<stop stop-color="#FF0054"/>
<stop offset="1" stop-color="#FF0049"/>
</linearGradient>
<linearGradient id="paint4_linear_1175_20" x1="523" y1="641" x2="523" y2="504" gradientUnits="userSpaceOnUse">
<stop stop-color="#FF0054"/>
<stop offset="1" stop-color="#FF0049"/>
</linearGradient>
<linearGradient id="paint5_linear_1175_20" x1="957" y1="504" x2="957" y2="414" gradientUnits="userSpaceOnUse">
<stop stop-color="#FF0054"/>
<stop offset="1" stop-color="#FF0049"/>
</linearGradient>
<linearGradient id="paint6_linear_1175_20" x1="851" y1="305" x2="794" y2="305" gradientUnits="userSpaceOnUse">
<stop stop-color="#FF0054"/>
<stop offset="1" stop-color="#FF0049"/>
</linearGradient>
<linearGradient id="paint7_linear_1175_20" x1="468" y1="317" x2="530" y2="317" gradientUnits="userSpaceOnUse">
<stop stop-color="#FF0054"/>
<stop offset="1" stop-color="#FF0049"/>
</linearGradient>
<linearGradient id="paint8_linear_1175_20" x1="1121" y1="923" x2="1192" y2="923" gradientUnits="userSpaceOnUse">
<stop stop-color="#FF0054"/>
<stop offset="1" stop-color="#FF0049"/>
</linearGradient>
<linearGradient id="paint9_linear_1175_20" x1="881" y1="817.5" x2="943" y2="817.5" gradientUnits="userSpaceOnUse">
<stop stop-color="#FF0054"/>
<stop offset="1" stop-color="#FF0049"/>
</linearGradient>
<linearGradient id="paint10_linear_1175_20" x1="734" y1="515" x2="734" y2="516" gradientUnits="userSpaceOnUse">
<stop stop-color="#FF0054"/>
<stop offset="1" stop-color="#FF0049"/>
</linearGradient>
<linearGradient id="paint11_linear_1175_20" x1="708.5" y1="545" x2="708.5" y2="546" gradientUnits="userSpaceOnUse">
<stop stop-color="#FF0054"/>
<stop offset="1" stop-color="#FF0049"/>
</linearGradient>
<linearGradient id="paint12_linear_1175_20" x1="729" y1="579" x2="729" y2="580" gradientUnits="userSpaceOnUse">
<stop stop-color="#FF0054"/>
<stop offset="1" stop-color="#FF0049"/>
</linearGradient>
<linearGradient id="paint13_linear_1175_20" x1="740" y1="810" x2="740" y2="811" gradientUnits="userSpaceOnUse">
<stop stop-color="#FF0054"/>
<stop offset="1" stop-color="#FF0049"/>
</linearGradient>
<linearGradient id="paint14_linear_1175_20" x1="638" y1="803" x2="638" y2="817" gradientUnits="userSpaceOnUse">
<stop stop-color="#FF0054"/>
<stop offset="1" stop-color="#FF0049"/>
</linearGradient>
<linearGradient id="paint15_linear_1175_20" x1="740" y1="414" x2="740" y2="486" gradientUnits="userSpaceOnUse">
<stop stop-color="#FF0054"/>
<stop offset="1" stop-color="#FF0049"/>
</linearGradient>
<linearGradient id="paint16_linear_1175_20" x1="67.6702" y1="0" x2="67.6702" y2="1" gradientUnits="userSpaceOnUse">
<stop stop-color="#FF0054"/>
<stop offset="1" stop-color="#FF0049"/>
</linearGradient>
<linearGradient id="paint17_linear_1175_20" x1="67.6702" y1="0" x2="67.6702" y2="1" gradientUnits="userSpaceOnUse">
<stop stop-color="#FF0054"/>
<stop offset="1" stop-color="#FF0049"/>
</linearGradient>
<linearGradient id="paint18_linear_1175_20" x1="306" y1="274" x2="306" y2="894" gradientUnits="userSpaceOnUse">
<stop stop-color="#FF0054"/>
<stop offset="1" stop-color="#FF0049"/>
</linearGradient>
<linearGradient id="paint19_linear_1175_20" x1="306" y1="294" x2="306" y2="322" gradientUnits="userSpaceOnUse">
<stop stop-color="#FF0054"/>
<stop offset="1" stop-color="#FF0049"/>
</linearGradient>
<linearGradient id="paint20_linear_1175_20" x1="306" y1="780.625" x2="306" y2="788.875" gradientUnits="userSpaceOnUse">
<stop stop-color="#FF0054"/>
<stop offset="1" stop-color="#FF0049"/>
</linearGradient>
<linearGradient id="paint21_linear_1175_20" x1="305.5" y1="365" x2="305.5" y2="528" gradientUnits="userSpaceOnUse">
<stop stop-color="#FF0054"/>
<stop offset="1" stop-color="#FF0049"/>
</linearGradient>
<linearGradient id="paint22_linear_1175_20" x1="305.5" y1="557" x2="305.5" y2="720" gradientUnits="userSpaceOnUse">
<stop stop-color="#FF0054"/>
<stop offset="1" stop-color="#FF0049"/>
</linearGradient>
<linearGradient id="paint23_linear_1175_20" x1="305.5" y1="757" x2="305.5" y2="810" gradientUnits="userSpaceOnUse">
<stop stop-color="#FF0054"/>
<stop offset="1" stop-color="#FF0049"/>
</linearGradient>
<linearGradient id="paint24_linear_1175_20" x1="349.5" y1="605" x2="349.5" y2="606" gradientUnits="userSpaceOnUse">
<stop stop-color="#FF0054"/>
<stop offset="1" stop-color="#FF0049"/>
</linearGradient>
<linearGradient id="paint25_linear_1175_20" x1="322.5" y1="628" x2="322.5" y2="629" gradientUnits="userSpaceOnUse">
<stop stop-color="#FF0054"/>
<stop offset="1" stop-color="#FF0049"/>
</linearGradient>
<linearGradient id="paint26_linear_1175_20" x1="321.5" y1="651" x2="321.5" y2="652" gradientUnits="userSpaceOnUse">
<stop stop-color="#FF0054"/>
<stop offset="1" stop-color="#FF0049"/>
</linearGradient>
<linearGradient id="paint27_linear_1175_20" x1="325" y1="674" x2="325" y2="675" gradientUnits="userSpaceOnUse">
<stop stop-color="#FF0054"/>
<stop offset="1" stop-color="#FF0049"/>
</linearGradient>
<linearGradient id="paint28_linear_1175_20" x1="228" y1="590" x2="228" y2="688" gradientUnits="userSpaceOnUse">
<stop stop-color="#FF0054"/>
<stop offset="1" stop-color="#FF0049"/>
</linearGradient>
<linearGradient id="paint29_linear_1175_20" x1="34.2402" y1="0" x2="34.2402" y2="1" gradientUnits="userSpaceOnUse">
<stop stop-color="#FF0054"/>
<stop offset="1" stop-color="#FF0049"/>
</linearGradient>
<linearGradient id="paint30_linear_1175_20" x1="34.2402" y1="0" x2="34.2402" y2="1" gradientUnits="userSpaceOnUse">
<stop stop-color="#FF0054"/>
<stop offset="1" stop-color="#FF0049"/>
</linearGradient>
<linearGradient id="paint31_linear_1175_20" x1="306" y1="404.818" x2="306" y2="489.188" gradientUnits="userSpaceOnUse">
<stop stop-color="#FF0054"/>
<stop offset="1" stop-color="#FF0049"/>
</linearGradient>
<linearGradient id="paint32_linear_1175_20" x1="1174" y1="274" x2="1174" y2="894" gradientUnits="userSpaceOnUse">
<stop stop-color="#FF0054"/>
<stop offset="1" stop-color="#FF0049"/>
</linearGradient>
<linearGradient id="paint33_linear_1175_20" x1="1174" y1="294" x2="1174" y2="322" gradientUnits="userSpaceOnUse">
<stop stop-color="#FF0054"/>
<stop offset="1" stop-color="#FF0049"/>
</linearGradient>
<linearGradient id="paint34_linear_1175_20" x1="1174" y1="407.812" x2="1174" y2="492.188" gradientUnits="userSpaceOnUse">
<stop stop-color="#FF0054"/>
<stop offset="1" stop-color="#FF0049"/>
</linearGradient>
<linearGradient id="paint35_linear_1175_20" x1="1173.5" y1="365" x2="1173.5" y2="775" gradientUnits="userSpaceOnUse">
<stop stop-color="#FF0054"/>
<stop offset="1" stop-color="#FF0049"/>
</linearGradient>
<linearGradient id="paint36_linear_1175_20" x1="1174" y1="531" x2="1174" y2="556" gradientUnits="userSpaceOnUse">
<stop stop-color="#FF0054"/>
<stop offset="1" stop-color="#FF0049"/>
</linearGradient>
<linearGradient id="paint37_linear_1175_20" x1="1174" y1="588" x2="1174" y2="738" gradientUnits="userSpaceOnUse">
<stop stop-color="#FF0054"/>
<stop offset="1" stop-color="#FF0049"/>
</linearGradient>
<linearGradient id="paint38_linear_1175_20" x1="90.312" y1="0" x2="90.312" y2="1" gradientUnits="userSpaceOnUse">
<stop stop-color="#FF0054"/>
<stop offset="1" stop-color="#FF0049"/>
</linearGradient>
<linearGradient id="paint39_linear_1175_20" x1="90.312" y1="0" x2="90.312" y2="1" gradientUnits="userSpaceOnUse">
<stop stop-color="#FF0054"/>
<stop offset="1" stop-color="#FF0049"/>
</linearGradient>
<linearGradient id="paint40_linear_1175_20" x1="681.006" y1="964.875" x2="681.006" y2="1021.12" gradientUnits="userSpaceOnUse">
<stop stop-color="#FF0054"/>
<stop offset="1" stop-color="#FF0049"/>
</linearGradient>
<linearGradient id="paint41_linear_1175_20" x1="812" y1="964.874" x2="812" y2="1014.38" gradientUnits="userSpaceOnUse">
<stop stop-color="#FF0054"/>
<stop offset="1" stop-color="#FF0049"/>
</linearGradient>
<linearGradient id="paint42_linear_1175_20" x1="943" y1="967.125" x2="943" y2="1021.12" gradientUnits="userSpaceOnUse">
<stop stop-color="#FF0054"/>
<stop offset="1" stop-color="#FF0049"/>
</linearGradient>
<linearGradient id="paint43_linear_1175_20" x1="1074" y1="967.125" x2="1074" y2="1018.88" gradientUnits="userSpaceOnUse">
<stop stop-color="#FF0054"/>
<stop offset="1" stop-color="#FF0049"/>
</linearGradient>
<linearGradient id="paint44_linear_1175_20" x1="402" y1="144.125" x2="402" y2="195.875" gradientUnits="userSpaceOnUse">
<stop stop-color="#FF0054"/>
<stop offset="1" stop-color="#FF0049"/>
</linearGradient>
<linearGradient id="paint45_linear_1175_20" x1="533" y1="146.375" x2="533" y2="193.625" gradientUnits="userSpaceOnUse">
<stop stop-color="#FF0054"/>
<stop offset="1" stop-color="#FF0049"/>
</linearGradient>
<linearGradient id="paint46_linear_1175_20" x1="664" y1="144.125" x2="664" y2="195.875" gradientUnits="userSpaceOnUse">
<stop stop-color="#FF0054"/>
<stop offset="1" stop-color="#FF0049"/>
</linearGradient>
<linearGradient id="paint47_linear_1175_20" x1="795" y1="162.125" x2="795" y2="177.875" gradientUnits="userSpaceOnUse">
<stop stop-color="#FF0054"/>
<stop offset="1" stop-color="#FF0049"/>
</linearGradient>
<linearGradient id="paint48_linear_1175_20" x1="1146.5" y1="136" x2="1146.5" y2="212" gradientUnits="userSpaceOnUse">
<stop stop-color="#FF0054"/>
<stop offset="1" stop-color="#FF0049"/>
</linearGradient>
<linearGradient id="paint49_linear_1175_20" x1="306" y1="960" x2="306" y2="1026" gradientUnits="userSpaceOnUse">
<stop stop-color="#FF0054"/>
<stop offset="1" stop-color="#FF0049"/>
</linearGradient>
<linearGradient id="paint50_linear_1175_20" x1="210.988" y1="980.475" x2="210.988" y2="1005.5" gradientUnits="userSpaceOnUse">
<stop stop-color="#FF0054"/>
<stop offset="1" stop-color="#FF0049"/>
</linearGradient>
<linearGradient id="paint51_linear_1175_20" x1="165" y1="144" x2="165" y2="196" gradientUnits="userSpaceOnUse">
<stop stop-color="#FF0054"/>
<stop offset="1" stop-color="#FF0049"/>
</linearGradient>
<linearGradient id="paint52_linear_1175_20" x1="166" y1="161" x2="166" y2="179" gradientUnits="userSpaceOnUse">
<stop stop-color="#FF0054"/>
<stop offset="1" stop-color="#FF0049"/>
</linearGradient>
<linearGradient id="paint53_linear_1175_20" x1="261" y1="144" x2="261" y2="196" gradientUnits="userSpaceOnUse">
<stop stop-color="#FF0054"/>
<stop offset="1" stop-color="#FF0049"/>
</linearGradient>
<linearGradient id="paint54_linear_1175_20" x1="261" y1="155" x2="261" y2="185" gradientUnits="userSpaceOnUse">
<stop stop-color="#FF0054"/>
<stop offset="1" stop-color="#FF0049"/>
</linearGradient>
<linearGradient id="paint55_linear_1175_20" x1="965.5" y1="144" x2="965.5" y2="197" gradientUnits="userSpaceOnUse">
<stop stop-color="#FF0054"/>
<stop offset="1" stop-color="#FF0049"/>
</linearGradient>
<linearGradient id="paint56_linear_1175_20" x1="985" y1="151" x2="985" y2="191" gradientUnits="userSpaceOnUse">
<stop stop-color="#FF0054"/>
<stop offset="1" stop-color="#FF0049"/>
</linearGradient>
<linearGradient id="paint57_linear_1175_20" x1="398" y1="647.5" x2="398" y2="672.5" gradientUnits="userSpaceOnUse">
<stop stop-color="#FF0054"/>
<stop offset="1" stop-color="#FF0049"/>
</linearGradient>
</defs>
</svg>
