<svg width="181" height="213" viewBox="0 0 181 213" fill="none" xmlns="http://www.w3.org/2000/svg">
<path d="M0 25.6C0 16.6392 0 12.1587 1.7439 8.73615C3.27787 5.72556 5.72556 3.27787 8.73615 1.7439C12.1587 0 16.6392 0 25.6 0H78.6C114.443 0 132.365 0 146.055 6.97558C158.098 13.1115 167.889 22.9022 174.024 34.9446C181 48.635 181 66.5566 181 102.4V117C181 150.603 181 167.405 174.46 180.239C168.708 191.529 159.529 200.708 148.239 206.46C135.405 213 118.603 213 85 213H25.6C16.6392 213 12.1587 213 8.73615 211.256C5.72556 209.722 3.27787 207.274 1.7439 204.264C0 200.841 0 196.361 0 187.4V25.6Z" fill="black"/>
<path d="M38.2348 171.405L106.276 44.8472C107.281 42.9765 109.23 41.8101 111.351 41.8101H134.567C134.894 41.8101 135.103 42.1603 134.948 42.449L78.1598 148.075C70.2964 162.701 55.0584 171.821 38.4828 171.821C38.2696 171.821 38.1337 171.593 38.2348 171.405Z" fill="white"/>
<path d="M134 172H83C83 172 102 170 117 153C132 136 134 112 134 112V172Z" fill="white"/>
<path d="M22.4842 41.0109L22 41.0109C22 41.0109 22.1633 40.9864 22.4842 41.0109L75 41.0109C75 41.0109 58.4375 41.0109 58.4375 61.7392C58.4375 82.4676 66.7188 109 66.7188 109C66.7188 109 61.2717 92.0702 46.0156 65.8849C32.8427 43.2752 24.5133 41.1655 22.4842 41.0109Z" fill="white"/>
</svg>
