<svg width="233" height="275" viewBox="0 0 233 275" fill="none" xmlns="http://www.w3.org/2000/svg">
    <g clip-path="url(#clip0_507_38)">
        <path
            d="M-0.342712 25.6C-0.342712 16.6392 -0.342712 12.1587 1.40118 8.73615C2.93516 5.72556 5.38285 3.27787 8.39344 1.7439C11.816 0 16.2964 0 25.2573 0H130.943C166.786 0 184.708 0 198.398 6.97558C210.44 13.1115 220.231 22.9022 226.367 34.9446C233.343 48.635 233.343 66.5566 233.343 102.4V179C233.343 212.603 233.343 229.405 226.803 242.239C221.051 253.529 211.872 262.708 200.582 268.46C187.747 275 170.946 275 137.343 275H25.2573C16.2964 275 11.816 275 8.39344 273.256C5.38285 271.722 2.93516 269.274 1.40118 266.264C-0.342712 262.841 -0.342712 258.361 -0.342712 249.4V25.6Z"
            fill="black" />
        <path
            d="M49.0216 221.297L136.868 57.9014C138.166 55.4861 140.683 53.9802 143.42 53.9802H173.394C173.817 53.9802 174.086 54.4324 173.886 54.8052L100.568 191.177C90.4157 210.061 70.7422 221.834 49.3417 221.834C49.0665 221.834 48.891 221.54 49.0216 221.297Z"
            fill="white" />
        <path
            d="M172.662 222.066H106.817C106.817 222.066 131.347 219.484 150.714 197.535C170.08 175.587 172.662 144.601 172.662 144.601V222.066Z"
            fill="white" />
        <path
            d="M28.6862 52.9484L28.061 52.9484C28.061 52.9484 28.2719 52.9168 28.6862 52.9484L96.4883 52.9484C96.4883 52.9484 75.1048 52.9484 75.1048 79.7103C75.1048 106.472 85.7965 140.728 85.7965 140.728C85.7965 140.728 78.7639 118.87 59.0671 85.0627C42.0599 55.8718 31.3059 53.148 28.6862 52.9484Z"
            fill="white" />
    </g>
    <defs>
        <clipPath id="clip0_507_38">
            <rect width="233" height="275" fill="white" />
        </clipPath>
    </defs>
</svg>