<svg width="275" height="275" viewBox="0 0 275 275" fill="none" xmlns="http://www.w3.org/2000/svg">
<rect width="275" height="275" fill="black"/>
<path fill-rule="evenodd" clip-rule="evenodd" d="M75.8188 206.033H76.0794L107.178 149.751V149.675L102.817 139.992L84.5189 99.3648L78.3108 85.5807C76.9263 82.3963 76.3725 79.7658 76.6494 77.689C76.9263 75.4738 78.5877 73.7431 81.6336 72.4971L85.3718 71.0433V68.9666H29.7144V71.0433L33.4525 72.9124C35.5293 73.8816 37.0523 75.0584 38.0214 76.4429C39.129 77.8274 40.3059 79.9042 41.5519 82.6732L75.8186 152.453V152.453L75.8188 152.453V206.033ZM235.352 206.033H216.868L225.798 189.419L234.729 172.805H236.805L235.352 206.033ZM234.313 68.9666V71.4587L162.249 201.88L159.954 206.033H129.021V203.541L201.085 73.1201L203.38 68.9666H234.313ZM142.935 85.373L133.382 102.195L131.305 102.195L132.759 68.9666H152.253L143.461 84.4466C143.285 84.749 143.109 85.0574 142.936 85.3717L142.935 85.373Z" fill="white"/>
</svg>
