<svg width="207" height="137" viewBox="0 0 207 137" fill="none" xmlns="http://www.w3.org/2000/svg">
<g clip-path="url(#clip0_571_163)">
<path fill-rule="evenodd" clip-rule="evenodd" d="M45.8188 137.033H46.0794L77.1779 80.7515V80.6754L72.8167 70.9921L54.5189 30.3648L48.3108 16.5807C46.9263 13.3963 46.3725 10.7658 46.6494 8.68899C46.9263 6.47377 48.5877 4.74313 51.6336 3.49707L55.3718 2.04332V-0.0334473H-0.285645V2.04332L3.45254 3.91241C5.52931 4.88158 7.05228 6.05842 8.02143 7.44293C9.12905 8.82744 10.3059 10.9042 11.5519 13.6732L45.8186 83.4527V83.4528L45.8188 83.4527V137.033ZM205.352 137.033H186.868L195.798 120.419L204.729 103.805H206.805L205.352 137.033ZM204.313 -0.0334473V2.45868L132.249 132.88L129.954 137.033H99.0209V134.541L171.085 4.12009L173.38 -0.0334473H204.313ZM112.935 16.373L103.382 33.1949L101.305 33.1949L102.759 -0.0334473H122.253L113.461 15.4466C113.285 15.749 113.109 16.0574 112.936 16.3717L112.935 16.373Z" fill="black"/>
</g>
<defs>
<clipPath id="clip0_571_163">
<rect width="207" height="137" fill="white"/>
</clipPath>
</defs>
</svg>
