<svg width="512" height="512" viewBox="0 0 512 512" fill="none" xmlns="http://www.w3.org/2000/svg">
<rect width="512" height="512" fill="url(#paint0_linear_522_68)"/>
<mask id="path-1-inside-1_522_68" fill="white">
<path fill-rule="evenodd" clip-rule="evenodd" d="M140.401 126.736C138.657 130.159 138.657 134.639 138.657 143.6V367.4C138.657 376.361 138.657 380.841 140.401 384.264C141.935 387.274 144.383 389.722 147.393 391.256C150.816 393 155.296 393 164.257 393H276.343C309.946 393 326.747 393 339.582 386.46C350.872 380.708 360.051 371.529 365.803 360.239C372.343 347.405 372.343 330.603 372.343 297V220.4C372.343 184.557 372.343 166.635 365.367 152.945C359.231 140.902 349.44 131.111 337.398 124.976C323.708 118 305.786 118 269.943 118H164.257C155.296 118 150.816 118 147.393 119.744C144.383 121.278 141.935 123.726 140.401 126.736ZM167.404 170.948H168.029C167.615 170.917 167.404 170.948 167.404 170.948ZM168.029 170.948L235.831 170.948C235.831 170.948 214.447 170.948 214.447 197.71C214.447 224.472 225.139 258.728 225.139 258.728C225.139 258.728 218.107 236.87 198.41 203.063C181.403 173.872 170.649 171.148 168.029 170.948ZM276.211 175.901L188.364 339.297C188.234 339.54 188.409 339.834 188.684 339.834C210.085 339.834 229.758 328.061 239.911 309.177L313.228 172.805C313.429 172.432 313.159 171.98 312.737 171.98H282.763C280.025 171.98 277.509 173.486 276.211 175.901ZM246.16 340.066H312.005V262.601C312.005 262.601 309.423 293.587 290.056 315.535C270.69 337.484 246.16 340.066 246.16 340.066Z"/>
</mask>
<g filter="url(#filter0_ii_522_68)">
<path fill-rule="evenodd" clip-rule="evenodd" d="M140.401 126.736C138.657 130.159 138.657 134.639 138.657 143.6V367.4C138.657 376.361 138.657 380.841 140.401 384.264C141.935 387.274 144.383 389.722 147.393 391.256C150.816 393 155.296 393 164.257 393H276.343C309.946 393 326.747 393 339.582 386.46C350.872 380.708 360.051 371.529 365.803 360.239C372.343 347.405 372.343 330.603 372.343 297V220.4C372.343 184.557 372.343 166.635 365.367 152.945C359.231 140.902 349.44 131.111 337.398 124.976C323.708 118 305.786 118 269.943 118H164.257C155.296 118 150.816 118 147.393 119.744C144.383 121.278 141.935 123.726 140.401 126.736ZM167.404 170.948H168.029C167.615 170.917 167.404 170.948 167.404 170.948ZM168.029 170.948L235.831 170.948C235.831 170.948 214.447 170.948 214.447 197.71C214.447 224.472 225.139 258.728 225.139 258.728C225.139 258.728 218.107 236.87 198.41 203.063C181.403 173.872 170.649 171.148 168.029 170.948ZM276.211 175.901L188.364 339.297C188.234 339.54 188.409 339.834 188.684 339.834C210.085 339.834 229.758 328.061 239.911 309.177L313.228 172.805C313.429 172.432 313.159 171.98 312.737 171.98H282.763C280.025 171.98 277.509 173.486 276.211 175.901ZM246.16 340.066H312.005V262.601C312.005 262.601 309.423 293.587 290.056 315.535C270.69 337.484 246.16 340.066 246.16 340.066Z" fill="white" fill-opacity="0.7"/>
</g>
<path d="M140.401 126.736L139.956 126.509L139.956 126.509L140.401 126.736ZM140.401 384.264L139.956 384.491L139.956 384.491L140.401 384.264ZM147.393 391.256L147.62 390.811L147.62 390.811L147.393 391.256ZM339.582 386.46L339.355 386.015L339.582 386.46ZM365.803 360.239L365.358 360.012L365.358 360.012L365.803 360.239ZM365.367 152.945L364.922 153.172L364.922 153.172L365.367 152.945ZM337.398 124.976L337.625 124.53L337.398 124.976ZM147.393 119.744L147.166 119.298L147.166 119.298L147.393 119.744ZM167.404 170.948L167.33 170.454C167.071 170.493 166.886 170.724 166.905 170.985C166.925 171.246 167.142 171.448 167.404 171.448V170.948ZM235.831 171.448C236.107 171.448 236.331 171.224 236.331 170.948C236.331 170.672 236.107 170.448 235.831 170.448L235.831 171.448ZM225.139 258.728L224.663 258.881C224.748 259.143 225.028 259.288 225.29 259.204C225.553 259.121 225.699 258.842 225.617 258.579L225.139 258.728ZM198.41 203.063L197.978 203.314L197.978 203.314L198.41 203.063ZM188.364 339.297L188.805 339.534L188.805 339.534L188.364 339.297ZM276.211 175.901L275.77 175.665L275.77 175.665L276.211 175.901ZM239.911 309.177L240.351 309.414L240.351 309.414L239.911 309.177ZM313.228 172.805L313.669 173.042L313.669 173.042L313.228 172.805ZM312.005 340.066V340.566C312.281 340.566 312.505 340.342 312.505 340.066H312.005ZM246.16 340.066L246.107 339.568C245.843 339.596 245.646 339.826 245.66 340.092C245.674 340.358 245.894 340.566 246.16 340.566V340.066ZM312.005 262.601H312.505C312.505 262.333 312.293 262.113 312.025 262.101C311.758 262.09 311.529 262.292 311.506 262.559L312.005 262.601ZM290.056 315.535L290.431 315.866L290.431 315.866L290.056 315.535ZM139.157 143.6C139.157 139.111 139.158 135.775 139.374 133.132C139.589 130.495 140.017 128.592 140.847 126.963L139.956 126.509C139.042 128.303 138.597 130.352 138.377 133.051C138.157 135.744 138.157 139.128 138.157 143.6H139.157ZM139.157 367.4V143.6H138.157V367.4H139.157ZM140.847 384.037C140.017 382.408 139.589 380.505 139.374 377.868C139.158 375.225 139.157 371.889 139.157 367.4H138.157C138.157 371.872 138.157 375.256 138.377 377.949C138.597 380.648 139.042 382.697 139.956 384.491L140.847 384.037ZM147.62 390.811C144.704 389.325 142.333 386.953 140.847 384.037L139.956 384.491C141.538 387.596 144.062 390.12 147.166 391.702L147.62 390.811ZM164.257 392.5C159.769 392.5 156.432 392.5 153.789 392.284C151.152 392.068 149.249 391.641 147.62 390.811L147.166 391.702C148.96 392.615 151.009 393.06 153.708 393.28C156.401 393.5 159.785 393.5 164.257 393.5V392.5ZM276.343 392.5H164.257V393.5H276.343V392.5ZM339.355 386.015C333.02 389.243 325.684 390.869 315.71 391.684C305.73 392.5 293.153 392.5 276.343 392.5V393.5C293.136 393.5 305.761 393.5 315.791 392.681C325.827 391.861 333.31 390.218 339.809 386.906L339.355 386.015ZM365.358 360.012C359.653 371.208 350.551 380.31 339.355 386.015L339.809 386.906C351.193 381.106 360.448 371.85 366.249 360.466L365.358 360.012ZM371.843 297C371.843 313.81 371.842 326.387 371.027 336.367C370.212 346.341 368.586 353.677 365.358 360.012L366.249 360.466C369.56 353.967 371.204 346.485 372.024 336.449C372.843 326.418 372.843 313.793 372.843 297H371.843ZM371.843 220.4V297H372.843V220.4H371.843ZM364.922 153.172C368.368 159.935 370.103 167.764 370.972 178.406C371.842 189.053 371.843 202.47 371.843 220.4H372.843C372.843 202.487 372.843 189.021 371.969 178.324C371.095 167.621 369.342 159.645 365.813 152.718L364.922 153.172ZM337.171 125.421C349.119 131.509 358.834 141.223 364.922 153.172L365.813 152.718C359.629 140.581 349.762 130.714 337.625 124.53L337.171 125.421ZM269.943 118.5C287.873 118.5 301.29 118.5 311.937 119.37C322.578 120.24 330.408 121.975 337.171 125.421L337.625 124.53C330.698 121 322.722 119.248 312.019 118.374C301.321 117.5 287.856 117.5 269.943 117.5V118.5ZM164.257 118.5H269.943V117.5H164.257V118.5ZM147.62 120.189C149.249 119.359 151.152 118.932 153.789 118.716C156.432 118.5 159.769 118.5 164.257 118.5V117.5C159.785 117.5 156.401 117.5 153.708 117.72C151.009 117.94 148.96 118.385 147.166 119.298L147.62 120.189ZM140.847 126.963C142.333 124.047 144.704 121.675 147.62 120.189L147.166 119.298C144.062 120.88 141.538 123.404 139.956 126.509L140.847 126.963ZM167.404 171.448H168.029V170.448H167.404V171.448ZM168.067 170.45C167.841 170.433 167.665 170.432 167.542 170.437C167.48 170.439 167.432 170.443 167.396 170.446C167.379 170.448 167.364 170.449 167.353 170.451C167.348 170.451 167.343 170.452 167.339 170.453C167.337 170.453 167.335 170.453 167.334 170.453C167.333 170.453 167.332 170.453 167.332 170.454C167.331 170.454 167.331 170.454 167.331 170.454C167.33 170.454 167.33 170.454 167.33 170.454C167.33 170.454 167.33 170.454 167.33 170.454C167.33 170.454 167.33 170.454 167.404 170.948C167.478 171.443 167.478 171.443 167.478 171.443C167.478 171.443 167.477 171.443 167.477 171.443C167.477 171.443 167.477 171.443 167.477 171.443C167.477 171.443 167.476 171.443 167.476 171.443C167.476 171.443 167.475 171.443 167.475 171.443C167.474 171.443 167.474 171.443 167.474 171.443C167.473 171.444 167.473 171.444 167.474 171.443C167.476 171.443 167.481 171.443 167.49 171.442C167.507 171.44 167.537 171.438 167.58 171.436C167.666 171.433 167.803 171.433 167.991 171.447L168.067 170.45ZM235.831 170.448L168.029 170.448L168.029 171.448L235.831 171.448L235.831 170.448ZM214.947 197.71C214.947 184.489 220.215 177.965 225.404 174.717C228.015 173.084 230.629 172.265 232.592 171.856C233.573 171.651 234.389 171.549 234.957 171.499C235.241 171.473 235.462 171.461 235.612 171.454C235.686 171.451 235.743 171.45 235.78 171.449C235.798 171.449 235.812 171.449 235.82 171.448C235.825 171.448 235.828 171.448 235.83 171.448C235.83 171.448 235.831 171.448 235.831 171.448C235.831 171.448 235.831 171.448 235.831 171.448C235.831 171.448 235.831 171.448 235.831 170.948C235.831 170.448 235.831 170.448 235.83 170.448C235.83 170.448 235.829 170.448 235.829 170.448C235.828 170.448 235.826 170.448 235.825 170.448C235.821 170.448 235.816 170.448 235.811 170.448C235.799 170.449 235.782 170.449 235.76 170.449C235.716 170.45 235.652 170.452 235.57 170.455C235.406 170.462 235.168 170.476 234.868 170.503C234.266 170.556 233.412 170.663 232.388 170.877C230.342 171.304 227.609 172.158 224.874 173.87C219.372 177.313 213.947 184.17 213.947 197.71H214.947ZM225.139 258.728C225.617 258.579 225.616 258.579 225.616 258.578C225.616 258.578 225.616 258.578 225.616 258.577C225.616 258.576 225.615 258.575 225.615 258.573C225.613 258.569 225.612 258.563 225.609 258.555C225.604 258.538 225.596 258.514 225.586 258.481C225.566 258.416 225.536 258.319 225.498 258.191C225.42 257.935 225.305 257.555 225.159 257.062C224.868 256.075 224.451 254.636 223.951 252.824C222.95 249.201 221.616 244.09 220.281 238.145C217.611 226.248 214.947 211.036 214.947 197.71H213.947C213.947 211.147 216.63 226.443 219.305 238.364C220.644 244.328 221.983 249.455 222.987 253.09C223.489 254.908 223.907 256.354 224.2 257.345C224.347 257.841 224.462 258.223 224.541 258.482C224.58 258.611 224.61 258.71 224.631 258.776C224.641 258.809 224.649 258.834 224.654 258.851C224.657 258.859 224.659 258.866 224.66 258.87C224.661 258.872 224.661 258.874 224.661 258.875C224.662 258.876 224.662 258.876 224.662 258.876C224.662 258.877 224.662 258.877 225.139 258.728ZM197.978 203.314C207.816 220.2 214.489 234.099 218.702 243.773C220.809 248.61 222.3 252.39 223.264 254.96C223.747 256.245 224.097 257.227 224.326 257.887C224.441 258.217 224.526 258.466 224.581 258.633C224.609 258.716 224.63 258.778 224.643 258.82C224.65 258.841 224.655 258.856 224.659 258.866C224.66 258.871 224.661 258.875 224.662 258.878C224.663 258.879 224.663 258.88 224.663 258.88C224.663 258.881 224.663 258.881 224.663 258.881C224.663 258.881 224.663 258.881 225.139 258.728C225.615 258.575 225.615 258.574 225.615 258.574C225.615 258.574 225.615 258.574 225.615 258.573C225.615 258.572 225.614 258.571 225.614 258.57C225.613 258.567 225.611 258.563 225.61 258.557C225.606 258.546 225.601 258.53 225.594 258.508C225.579 258.465 225.558 258.4 225.53 258.315C225.473 258.145 225.387 257.892 225.271 257.558C225.039 256.891 224.686 255.901 224.201 254.609C223.231 252.023 221.733 248.227 219.619 243.373C215.392 233.667 208.701 219.733 198.842 202.811L197.978 203.314ZM167.991 171.447C170.354 171.627 180.992 174.16 197.978 203.314L198.842 202.811C181.813 173.583 170.943 170.669 168.067 170.45L167.991 171.447ZM188.805 339.534L276.651 176.138L275.77 175.665L187.924 339.06L188.805 339.534ZM188.684 339.334C188.789 339.334 188.852 339.445 188.805 339.534L187.924 339.06C187.615 339.634 188.029 340.334 188.684 340.334V339.334ZM239.47 308.941C229.405 327.662 209.9 339.334 188.684 339.334V340.334C210.269 340.334 230.112 328.459 240.351 309.414L239.47 308.941ZM312.788 172.568L239.47 308.941L240.351 309.414L313.669 173.042L312.788 172.568ZM312.737 172.48C312.751 172.48 312.76 172.484 312.766 172.487C312.773 172.491 312.78 172.498 312.787 172.509C312.793 172.519 312.796 172.53 312.796 172.538C312.796 172.546 312.795 172.555 312.788 172.568L313.669 173.042C314.047 172.338 313.54 171.48 312.737 171.48V172.48ZM282.763 172.48H312.737V171.48H282.763V172.48ZM276.651 176.138C277.863 173.885 280.21 172.48 282.763 172.48V171.48C279.841 171.48 277.156 173.088 275.77 175.665L276.651 176.138ZM312.005 339.566H246.16V340.566H312.005V339.566ZM311.505 262.601V340.066H312.505V262.601H311.505ZM290.431 315.866C300.181 304.816 305.695 291.506 308.773 280.978C310.312 275.71 311.244 271.132 311.792 267.868C312.065 266.236 312.243 264.933 312.352 264.036C312.407 263.587 312.444 263.24 312.468 263.005C312.48 262.887 312.489 262.797 312.495 262.736C312.497 262.706 312.499 262.683 312.501 262.667C312.501 262.659 312.502 262.653 312.502 262.649C312.503 262.647 312.503 262.646 312.503 262.644C312.503 262.644 312.503 262.643 312.503 262.643C312.503 262.643 312.503 262.642 312.005 262.601C311.506 262.559 311.506 262.559 311.506 262.56C311.506 262.56 311.506 262.56 311.506 262.56C311.506 262.561 311.506 262.562 311.506 262.564C311.506 262.567 311.505 262.573 311.505 262.58C311.503 262.594 311.501 262.616 311.499 262.645C311.493 262.702 311.485 262.789 311.474 262.904C311.45 263.133 311.413 263.473 311.36 263.915C311.252 264.798 311.076 266.087 310.805 267.703C310.263 270.935 309.34 275.474 307.813 280.697C304.758 291.148 299.298 304.306 289.681 315.204L290.431 315.866ZM246.16 340.066C246.212 340.563 246.212 340.563 246.213 340.563C246.213 340.563 246.213 340.563 246.214 340.563C246.215 340.563 246.216 340.563 246.218 340.562C246.221 340.562 246.226 340.561 246.233 340.561C246.246 340.559 246.265 340.557 246.289 340.554C246.338 340.548 246.411 340.54 246.505 340.527C246.694 340.502 246.971 340.463 247.331 340.406C248.049 340.291 249.093 340.102 250.405 339.807C253.029 339.217 256.725 338.201 261.03 336.496C269.638 333.085 280.684 326.913 290.431 315.866L289.681 315.204C280.062 326.106 269.16 332.199 260.661 335.566C256.412 337.25 252.766 338.251 250.185 338.832C248.895 339.122 247.872 339.306 247.172 339.418C246.823 339.474 246.555 339.512 246.375 339.536C246.285 339.548 246.217 339.556 246.172 339.561C246.149 339.564 246.133 339.566 246.122 339.567C246.117 339.567 246.113 339.568 246.11 339.568C246.109 339.568 246.108 339.568 246.108 339.568C246.107 339.568 246.107 339.568 246.107 339.569C246.107 339.569 246.107 339.568 246.16 340.066Z" fill="#D998A9" mask="url(#path-1-inside-1_522_68)"/>
<defs>
<filter id="filter0_ii_522_68" x="136.657" y="117" width="237.685" height="277" filterUnits="userSpaceOnUse" color-interpolation-filters="sRGB">
<feFlood flood-opacity="0" result="BackgroundImageFix"/>
<feBlend mode="normal" in="SourceGraphic" in2="BackgroundImageFix" result="shape"/>
<feColorMatrix in="SourceAlpha" type="matrix" values="0 0 0 0 0 0 0 0 0 0 0 0 0 0 0 0 0 0 127 0" result="hardAlpha"/>
<feOffset dx="-2" dy="-1"/>
<feGaussianBlur stdDeviation="1"/>
<feComposite in2="hardAlpha" operator="arithmetic" k2="-1" k3="1"/>
<feColorMatrix type="matrix" values="0 0 0 0 0.980556 0 0 0 0 0.922026 0 0 0 0 0.920633 0 0 0 1 0"/>
<feBlend mode="normal" in2="shape" result="effect1_innerShadow_522_68"/>
<feColorMatrix in="SourceAlpha" type="matrix" values="0 0 0 0 0 0 0 0 0 0 0 0 0 0 0 0 0 0 127 0" result="hardAlpha"/>
<feOffset dx="2" dy="1"/>
<feGaussianBlur stdDeviation="1"/>
<feComposite in2="hardAlpha" operator="arithmetic" k2="-1" k3="1"/>
<feColorMatrix type="matrix" values="0 0 0 0 0.918056 0 0 0 0 0.536808 0 0 0 0 0.712303 0 0 0 1 0"/>
<feBlend mode="normal" in2="effect1_innerShadow_522_68" result="effect2_innerShadow_522_68"/>
</filter>
<linearGradient id="paint0_linear_522_68" x1="0" y1="0" x2="516" y2="512" gradientUnits="userSpaceOnUse">
<stop stop-color="#FF857D"/>
<stop offset="1" stop-color="#C0005C"/>
</linearGradient>
</defs>
</svg>
